<svg xmlns="http://www.w3.org/2000/svg" xmlns:xlink="http://www.w3.org/1999/xlink" width="200" zoomAndPan="magnify" viewBox="0 0 150 149.999998" height="200" preserveAspectRatio="xMidYMid meet" version="1.0"><defs><clipPath id="29d8f46e0e"><path d="M 29.28125 29.28125 L 120.71875 29.28125 L 120.71875 120.71875 L 29.28125 120.71875 Z M 29.28125 29.28125 " clip-rule="nonzero"/></clipPath><clipPath id="021749b19e"><path d="M 43.570312 29.28125 L 106.429688 29.28125 C 114.320312 29.28125 120.71875 35.679688 120.71875 43.570312 L 120.71875 106.429688 C 120.71875 114.320312 114.320312 120.71875 106.429688 120.71875 L 43.570312 120.71875 C 35.679688 120.71875 29.28125 114.320312 29.28125 106.429688 L 29.28125 43.570312 C 29.28125 35.679688 35.679688 29.28125 43.570312 29.28125 Z M 43.570312 29.28125 " clip-rule="nonzero"/></clipPath><clipPath id="7412858c15"><path d="M 5.722656 5.722656 L 144.472656 5.722656 L 144.472656 144.273438 L 5.722656 144.273438 Z M 5.722656 5.722656 " clip-rule="nonzero"/></clipPath><clipPath id="2f2f5d8892"><path d="M 41.410156 41.410156 L 108.910156 41.410156 L 108.910156 108.910156 L 41.410156 108.910156 Z M 41.410156 41.410156 " clip-rule="nonzero"/></clipPath></defs><g clip-path="url(#29d8f46e0e)"><g clip-path="url(#021749b19e)"><path fill="#ffffff" d="M 29.28125 29.28125 L 120.71875 29.28125 L 120.71875 120.71875 L 29.28125 120.71875 Z M 29.28125 29.28125 " fill-opacity="1" fill-rule="nonzero"/></g></g><g clip-path="url(#7412858c15)"><path fill="#8c52ff" d="M 74.9375 144.3125 C 36.6875 144.3125 5.679688 113.304688 5.679688 75.054688 C 5.679688 36.808594 36.6875 5.800781 74.9375 5.800781 C 113.1875 5.800781 144.191406 36.808594 144.191406 75.054688 C 144.191406 113.304688 113.1875 144.3125 74.9375 144.3125 Z M 109.382812 40.636719 C 105.738281 36.992188 99.832031 36.992188 96.1875 40.636719 L 75.410156 61.414062 L 53.683594 39.691406 C 50.042969 36.046875 44.132812 36.046875 40.492188 39.691406 C 36.84375 43.335938 36.84375 49.242188 40.492188 52.886719 L 62.214844 74.609375 L 41.988281 94.835938 C 38.34375 98.480469 38.34375 104.386719 41.988281 108.03125 C 45.632812 111.675781 51.539062 111.675781 55.183594 108.03125 L 75.410156 87.804688 L 94.6875 107.085938 C 98.332031 110.730469 104.242188 110.730469 107.882812 107.085938 C 111.53125 103.441406 111.53125 97.53125 107.882812 93.890625 L 88.605469 74.609375 L 109.382812 53.832031 C 113.027344 50.1875 113.027344 44.28125 109.382812 40.636719 Z M 109.382812 40.636719 " fill-opacity="1" fill-rule="nonzero"/></g><g clip-path="url(#2f2f5d8892)"><path fill="#8c52ff" d="M 106.65625 99.75 C 108.558594 101.65625 108.558594 104.75 106.65625 106.65625 C 104.75 108.558594 101.65625 108.558594 99.75 106.65625 L 74.976562 81.878906 L 50.203125 106.65625 C 48.296875 108.558594 45.203125 108.558594 43.300781 106.65625 C 41.394531 104.75 41.394531 101.65625 43.300781 99.75 L 68.074219 74.976562 L 43.300781 50.203125 C 41.394531 48.296875 41.394531 45.203125 43.300781 43.300781 C 45.203125 41.394531 48.296875 41.394531 50.203125 43.300781 L 74.976562 68.074219 L 99.75 43.300781 C 101.65625 41.394531 104.75 41.394531 106.65625 43.300781 C 108.558594 45.203125 108.558594 48.296875 106.65625 50.203125 L 81.878906 74.976562 Z M 106.65625 99.75 " fill-opacity="1" fill-rule="nonzero"/></g></svg>