<svg xmlns="http://www.w3.org/2000/svg" xmlns:xlink="http://www.w3.org/1999/xlink" width="200" zoomAndPan="magnify" viewBox="0 0 150 149.999998" height="200" preserveAspectRatio="xMidYMid meet" version="1.0"><defs><clipPath id="27690634fd"><path d="M 13.300781 13.300781 L 137 13.300781 L 137 137 L 13.300781 137 Z M 13.300781 13.300781 " clip-rule="nonzero"/></clipPath><clipPath id="3ed6fb303d"><path d="M 35.023438 43.367188 L 115 43.367188 L 115 106.367188 L 35.023438 106.367188 Z M 35.023438 43.367188 " clip-rule="nonzero"/></clipPath></defs><g clip-path="url(#27690634fd)"><path fill="#8c52ff" d="M 118.636719 31.378906 C 106.984375 19.726562 91.488281 13.308594 75.007812 13.308594 C 58.523438 13.308594 43.035156 19.726562 31.378906 31.378906 C 19.722656 43.03125 13.308594 58.523438 13.308594 75.007812 C 13.308594 91.488281 19.726562 106.980469 31.378906 118.636719 C 43.03125 130.289062 58.523438 136.707031 75.007812 136.707031 C 91.488281 136.707031 106.980469 130.289062 118.636719 118.636719 C 130.289062 106.984375 136.707031 91.488281 136.707031 75.007812 C 136.707031 58.523438 130.289062 43.035156 118.636719 31.378906 Z M 105.960938 100.550781 C 105.960938 103.5 103.5625 105.894531 100.617188 105.894531 L 49.367188 105.894531 C 46.417969 105.894531 44.023438 103.5 44.023438 100.550781 L 44.023438 99.25 C 44.023438 96.300781 46.417969 93.90625 49.367188 93.90625 L 100.617188 93.90625 C 103.5625 93.90625 105.960938 96.300781 105.960938 99.25 Z M 105.960938 75.65625 C 105.960938 78.605469 103.5625 81.003906 100.617188 81.003906 L 49.367188 81.003906 C 46.417969 81.003906 44.023438 78.605469 44.023438 75.65625 L 44.023438 74.355469 C 44.023438 71.40625 46.417969 69.011719 49.367188 69.011719 L 100.617188 69.011719 C 103.5625 69.011719 105.960938 71.40625 105.960938 74.355469 Z M 105.960938 50.761719 C 105.960938 53.710938 103.5625 56.109375 100.617188 56.109375 L 49.367188 56.109375 C 46.417969 56.109375 44.023438 53.710938 44.023438 50.761719 L 44.023438 49.460938 C 44.023438 46.511719 46.417969 44.117188 49.367188 44.117188 L 100.617188 44.117188 C 103.5625 44.117188 105.960938 46.511719 105.960938 49.460938 Z M 105.960938 50.761719 " fill-opacity="1" fill-rule="nonzero"/></g><g clip-path="url(#3ed6fb303d)"><path fill="#ffffff" d="M 41.585938 43.375 L 108.40625 43.375 C 112.027344 43.375 114.96875 46.316406 114.96875 49.9375 C 114.96875 53.5625 112.027344 56.5 108.40625 56.5 L 41.585938 56.5 C 37.960938 56.5 35.023438 53.5625 35.023438 49.9375 C 35.023438 46.316406 37.960938 43.375 41.585938 43.375 Z M 41.585938 68.433594 L 108.40625 68.433594 C 112.027344 68.433594 114.96875 71.371094 114.96875 74.996094 C 114.96875 78.621094 112.027344 81.558594 108.40625 81.558594 L 41.585938 81.558594 C 37.960938 81.558594 35.023438 78.621094 35.023438 74.996094 C 35.023438 71.371094 37.960938 68.433594 41.585938 68.433594 Z M 41.585938 93.492188 L 108.40625 93.492188 C 112.027344 93.492188 114.96875 96.429688 114.96875 100.054688 C 114.96875 103.679688 112.027344 106.617188 108.40625 106.617188 L 41.585938 106.617188 C 37.960938 106.617188 35.023438 103.679688 35.023438 100.054688 C 35.023438 96.429688 37.960938 93.492188 41.585938 93.492188 Z M 41.585938 93.492188 " fill-opacity="1" fill-rule="evenodd"/></g></svg>