<svg xmlns="http://www.w3.org/2000/svg" width="148.222" height="57.645" viewBox="0 0 148.222 57.645"><path id="sunskilogo" d="M145.528 78.975a1.973 1.973.0 01-.753-1.459 30.3 30.3.0 01.691-8.246l.188-1.015c0-.063.0-.253-.062-.253a2.962 2.962.0 01-1.257-1.521 6.825 6.825.0 01-.817-2.474 2.553 2.553.0 01.629-2.093 27.577 27.577.0 012.263-2.41c.439-.443 1.005-.824 1.445-1.268a1.457 1.457.0 00.377-.76c.691-2.219 1.256-4.5 1.885-6.788l2.262-7.166 1.886-5.708c.941-2.6 1.885-5.2 2.89-7.8.565-1.584 1.255-3.107 1.822-4.693.125-.316.189-.7.315-1.014a.958.958.0 00-.064-.823.948.948.0 01.126-.826 5.4 5.4.0 01.5-.633 1.176 1.176.0 011.446-.318 38.036 38.036.0 013.58 1.839 3.468 3.468.0 011.256 1.269 1.288 1.288.0 01.251.951 14 14 0 01-.942 3.8c-.629 1.333-1.319 2.729-1.885 4.186-.755 1.712-1.382 3.551-2.073 5.266-.5 1.205-1.005 2.345-1.445 3.549l-.189.129v-.253c-.063.061-.126.124-.126.189-.25.572-.438 1.142-.628 1.712a.83.83.0 01-.188.254.688.688.0 01.063-.316c.125-.445.315-.89.439-1.332.126-.318.126-.7.252-1.015a1.773 1.773.0 00.188-.824v-.129a.063.063.0 00-.063.065 7.8 7.8.0 00-.439 1.078l-.566 1.266c-.188.635-.439 1.206-.691 1.84-.25.889-.565 1.778-.815 2.665l-.755 2.408c-.314.89-.628 1.714-.879 2.6a.38.38.0 00-.063.253.558.558.0 00.314-.064l6.974-4.058c1.445-.824 2.952-1.587 4.4-2.412a2.349 2.349.0 00.943-.822 1.393 1.393.0 012.2-.319c.188.126.251.444.377.635a.325.325.0 00.126.253 6.333 6.333.0 01.69.635c.315.508.565 1.077.817 1.585a4.038 4.038.0 01.376 1.142c.189.507-.125.887-.314 1.331a1.816 1.816.0 01-1.255.888 29.349 29.349.0 00-3.77 1.775c-.879.509-1.759.89-2.576 1.332a4.421 4.421.0 00-.565.445l-2.263 1.2c-.5.255-1 .571-1.445.762-1.005.507-2.01.95-3.015 1.458-.817.382-1.57.886-2.388 1.332-.062.0-.126.254-.25.0-.817.508-1.634.952-2.389 1.46a.625.625.0 00-.251.317c-.062.127-.126.254-.314.19-.062.0-.188.253-.252.38.0.063-.188.191.126.191v.127c-.062.062-.126.062-.188.127-.062.126-.062.318-.126.444.126.0.188.064.314.128 1.634.062 3.268.125 4.838.317 2.01.128 3.958.316 5.9.507a28.515 28.515.0 014.649.761c.817.254 1.571.634 2.388.952.126.0.188.128.314.19.314.255.314.255.0.57-.314.193-.5.509-.941.509-.19.0-.378-.065-.567-.065a.189.189.0 00-.124.065c.062.0.062.063.124.063a.232.232.0 01.189.062l.064.066h-.126c-1.32.124-2.7.124-4.021.251a74.426 74.426.0 01-8.357.447c-1.57.0-3.078.0-4.649-.067-.313.0-.627-.063-.879.255h-.126c-.313-.126-.753.19-.691.507a.516.516.0 01-.25.508l-.064.063c.314.318-.124.573-.062.952a1.281 1.281.0 01-.126.824c-.251.76-.062 1.523-.251 2.282-.063.381-.063.7-.126 1.014l-.126.7v.127c0-.063.064-.063.064-.127.125-.064.188-.255.188.064v.063c.063.0.063.0.063-.063a.918.918.0 00.126-.382c.126-.317.188-.7.314-1.015v-.063a.09.09.0 010 .128c-.064.379-.188.824-.252 1.268-.062.317-.062.634-.125.95-.063.128-.063.255-.126.381a3 3 0 00-.377.571 6.842 6.842.0 00-.5.952l-.063.064c-.565.0-.753.76-1.319.7a.323.323.0 00-.251.125 1.261 1.261.0 01-.5.132A.877.877.0 01145.528 78.975zm3.456-3.046a.062.062.0 00.063.064l.063-.064a.062.062.0 01-.063-.064C149.047 75.929 149.047 75.929 148.984 75.929zm-.376-.506c-.064.0.0.063.0.063.0-.063.062-.063.062-.127a.062.062.0 00-.062-.064zm-.566-1.587a.062.062.0 01.063.063c0-.063.063-.126.126-.189-.063.0-.063.0-.063-.065zm.126-.825c-.063.0.0.066.0.066.063.0.126-.066.252-.066a.228.228.0 01-.064-.189h-.125C148.231 72.887 148.168 72.95 148.168 73.012zm.188-1.266v.062l.064-.062c0-.064-.064-.064-.064-.128zm10.555-4a.213.213.0 00.063.127A5.347 5.347.0 00159.98 68c.376.0.752-.063 1.13-.063.44.0.88-.065 1.257-.065.062.0.126-.061.188-.061-.062.0-.126-.066-.188-.066-.755.0-1.571-.062-2.325-.124a14.648 14.648.0 01-1.7-.066c-.062.0-.126.066-.188.066.062.062.126.062.126.124.062.0.062.0.062.066a.061.061.0 00-.062.061h-.19c.064.0.126.065.19.065.124.0.313.063.376-.192zm-3.016.127c.064.0.064.065.126.065h1.508a.218.218.0 01.126-.065c-.063.0-.063-.061-.126-.061a11.576 11.576.0 01-1.508-.066C155.959 67.748 155.959 67.813 155.9 67.874zm-2.514-.189a2.8 2.8.0 00.315.062l.252-.062a.575.575.0 00-.314-.062A.385.385.0 00153.382 67.685zm8.86-.253c.064.063.126.191.188.191a.383.383.0 00.252.062h1.947v-.062h.44c.063.0.063-.066.126-.066-.063-.062-.063-.062-.126-.062a4.15 4.15.0 01-.879.0 3.172 3.172.0 00-.728-.049 2.086 2.086.0 01-.967-.141A.469.469.0 00162.241 67.433zm-7.727.125c-.063.0-.063.0-.126.066.063.0.063.062.126.062l.126-.128c-.043.0-.084-.028-.108-.028S154.514 67.537 154.514 67.558zm7.413.066c0 .062.063.0.125.0-.062.0-.062-.066-.125-.066h-.063C161.864 67.623 161.864 67.623 161.927 67.623zm-4.147.0h.064v-.066h-.126zm9.361-.066.064-.062h-.126A.061.061.0 00167.141 67.558zm-.627-.062.063.062a.079.079.0 100-.125zm-5.34-.128V67.5h.062a3.643 3.643.0 00.44-.128.351.351.0 00-.249-.12A.365.365.0 00161.174 67.368zm-8.8-.445c.063.0.126.065.188.065s.126-.065.188-.065c-.062.0-.124-.062-.188-.062A.233.233.0 00152.377 66.923zm-2.011-3.614h.064v-.062A.061.061.0 00150.367 63.309zm.5-.38v.062c.064.0.064-.062.126-.062a.062.062.0 01-.062-.064zM149.8 59.758a12.56 12.56.0 00-2.325 2.155 1.02 1.02.0 00-.25.446c-.064.062.0.062.0.125l.062-.063a3.232 3.232.0 01.438-.508l2.137-1.777a1.923 1.923.0 00.315-.379.219.219.0 01-.126-.064C149.927 59.694 149.864 59.694 149.8 59.758zm-.252 2.346c.064.0.126.0.126-.063C149.613 62.042 149.613 62.1 149.549 62.1zm-2.764-.635a.061.061.0 00.063-.062zm6.22-.442a.226.226.0 00.188-.065C153.131 60.962 153.068 61.027 153.005 61.027zm-.252-.128a.229.229.0 00.19-.065C152.879 60.835 152.817 60.9 152.753 60.9zm-.941-.381a.061.061.0 01.062.062c.126-.126.252-.189.314-.251.0-.065.0-.065-.062-.065C152.062 60.33 151.938 60.392 151.812 60.519zm-4.147-.127c.126-.062.189-.189.314-.255v-.062zm7.854-.507c-.063.0-.063.064-.127.127a.233.233.0 01.189-.063c0-.064.0-.064.063-.13C155.581 59.819 155.519 59.819 155.519 59.885zm-6.6.064v.063q.188-.094.377-.193c.062-.061.126-.061.126-.125V59.5A3.33 3.33.0 01148.922 59.949zm11.058-3.426a9.782 9.782.0 00-1.2.508 2.726 2.726.0 01-.439.381l-1.823.951-.942.571a2.654 2.654.0 00-1.13.886c.063.0.125-.061.189-.061a9.482 9.482.0 00.816-.571c.439-.255.879-.508 1.256-.762l.69-.381c.881-.507 1.76-.951 2.64-1.394.0-.064.062-.128.062-.191C160.043 56.46 159.98 56.46 159.98 56.523zM150.3 59.5v.065a.194.194.0 01.127-.065c0-.063-.064-.063-.064-.127C150.367 59.441 150.3 59.441 150.3 59.5zm1.508-1.078c-.252.128-.44.318-.691.445-.126.128-.314.191-.44.318-.062.063-.126.127-.126.189s.064.064.188.127l.126-.189c.126-.127.252-.317.378-.317.313.0.439-.255.627-.445l.126-.191A.23.23.0 01151.812 58.425zm4.461 1.015c.062.0.062-.064.124-.064C156.335 59.377 156.273 59.377 156.273 59.441zm-2.577-.126c.062.0.126-.064.188-.064A.228.228.0 00153.7 59.315zm-3.9-.127a.221.221.0 01.062.127 1 1 0 01.44-.254c0-.063.063-.128.063-.191a.232.232.0 00-.063-.19zm4.523-.255-.062.065h.125c.063.0.126-.065.188-.128a4.916 4.916.0 001.005-.508c.126-.063.126-.255.188-.318C155.268 58.3 154.828 58.616 154.325 58.933zm-.628-.127c-.062.0-.062.064-.062.127h.062a3.876 3.876.0 00.754-.571A4.577 4.577.0 01153.7 58.806zm4.9-.761a1.12 1.12.0 00-.439.318l.5-.191a1.137 1.137.0 00.314-.253h-.189C158.722 57.919 158.66 57.982 158.6 58.045zm-6.032.255-.062.063c.062.0.062-.063.126-.063a.215.215.0 01.124-.064h-.062A.2.2.0 00152.565 58.3zm-2.2-.255v.191c.188-.128.252-.254.376-.317-.062.0-.062-.063-.124-.063zm4.021-1.966-.063.126c.189.382-.062.508-.314.7-.188.128-.44.191-.629.319l-.878.508c0 .063-.063.063-.063.127-.063.063-.063.189-.126.316l.315-.127c.438-.316.941-.634 1.382-.887.062-.064.062-.064.126-.064.0.064.0.128-.064.128.0.063-.062.128-.062.19h-.126v.064c.064.0.064-.064.126-.064l1.005-.635c.314-.189.691-.443 1.005-.633.5-.318 1.067-.444 1.382-.951h.189c.063-.064.188-.064.314-.128a9.25 9.25.0 001.005-.7 12.244 12.244.0 001.319-.635l1.759-1.014a6.937 6.937.0 01.941-.508l1.32-.761c.5-.252.942-.444 1.445-.7l.69-.381c.5-.256 1.005-.508 1.571-.762.314-.127.44-.442.817-.442l.062-.128c.064-.19.064-.128.19-.19.062.0.124-.065.188-.065s.062-.063.062-.128h-.062a2.271 2.271.0 00-.691.255 8.873 8.873.0 00-2.577 1.27h-.188c.062-.066.062-.127.126-.127l.44-.382H166.2a20.294 20.294.0 01-1.948 1.206c-.315.19-.691.38-1.068.57-.063-.062-.125-.062-.125-.127.0-.317-.189-.188-.315-.125a.321.321.0 00-.25.125 1.35 1.35.0 00-.252.382c.126.0.252.063.376.063h.064a4.963 4.963.0 01-.691.508 15.83 15.83.0 01-1.383.824l-.188.128c0 .316-.124.19-.25.126l.188-.254v-.189a1.072 1.072.0 00-.376-.065c-.127.382-.441.382-.755.382.0-.128.064-.191.064-.317a.233.233.0 00-.19.063c-.188.19.064.19.126.254-.188.443-.628.571-.941.888a.217.217.0 00-.126.062c-.126.0-.188.0-.252-.062a.136.136.0 01.126-.128c0-.064.0-.127.062-.127-.062.0-.062-.063-.124-.063a2.256 2.256.0 01-.567.253c-.124.065-.25.065-.188.255.0.062-.126.128-.188.19l.252-.062a.217.217.0 01.124.062c0 .062.0.128-.062.128l-.188.189c.126.0.25.063.314.0a5.08 5.08.0 01.627-.379h.252c-.062.062-.126.124-.188.19l-.943.57c-.062.0-.188.0-.188-.064-.126-.317-.252-.127-.44.0a6.815 6.815.0 01-.691.381 4.365 4.365.0 01-.627.507c-.126.064-.19.128-.252.128a.392.392.0 01.062-.255c0-.063.064-.127.126-.189.377-.191.691-.444 1.005-.635a.229.229.0 00.064-.19.475.475.0 01-.252-.063V55c-.188.127-.44.255-.629.38a5.076 5.076.0 00-.69.508v-.063C154.576 55.953 154.514 55.953 154.388 56.079zm3.706.571a7.83 7.83.0 00-1.256.7 10.228 10.228.0 00-1.069.7c.126-.063.252-.063.378-.126l1.382-.825q.283-.189.565-.381l.126-.126C158.158 56.587 158.094 56.587 158.094 56.651zm-4.775 1.141c.062.0.062.0.126-.063v-.065zm-2.137-.254-.25.191a.216.216.0 00.125.063 1.365 1.365.0 01.314-.254.572.572.0 01-.139-.028C151.218 57.51 151.2 57.517 151.183 57.538zm2.263-1.015a7.733 7.733.0 01-.754.7.869.869.0 01-.188.254V57.6h.062c.44-.316.816-.57 1.193-.887l.126-.19c-.062.0-.126-.063-.25-.063A.231.231.0 00153.446 56.523zm6.22 1.015a.216.216.0 01.125-.063C159.728 57.475 159.665 57.475 159.665 57.538zm-7.665.0h.062v-.063zm-.314-.254.062.065a1.131 1.131.0 01.314-.256l-.124-.126C151.874 57.093 151.748 57.157 151.686 57.284zm8.859-.254.062-.063A.061.061.0 00160.545 57.03zm.062-.063a.194.194.0 01.126-.065V56.84C160.733 56.9 160.671 56.9 160.607 56.967zm-7.287-.952c-.062.064-.062.19-.126.256l-.44.189c-.062.0-.062.127-.124.127a.3.3.0 00.188.064 5.5 5.5.0 00.628-.445c.063.0.063-.062.125-.126a.2.2.0 01-.062-.126C153.446 55.953 153.382 56.015 153.32 56.015zm7.037.318a.2.2.0 01.126.063c.062-.063.188-.125.25-.253h-.062A1.348 1.348.0 00160.357 56.333zm-6.66-.445c0 .065.126.127.126.127.126-.062.188-.19.376-.316a.268.268.0 01-.188-.065C153.885 55.761 153.759 55.825 153.7 55.888zm5.843.0a.194.194.0 00-.126.065h.064c0-.065.062-.065.124-.065v-.063C159.6 55.888 159.6 55.888 159.539 55.888zm-8.23-.57-.189.443v.192a.228.228.0 00.189-.065c.314-.127.5-.443.752-.761h.378a15.236 15.236.0 00.5-1.586.088.088.0 000-.126.135.135.0 00-.126.126c-.064.255-.188.508-.252.762-.062.128-.125.252-.313.128-.126-.066-.126-.191.0-.318l.439-.634c.126-.254.0-.635.376-.7.064.0.064-.064.064-.127a2.3 2.3.0 01.25-.7 5.453 5.453.0 01.315-1.078c0-.063.062-.063.062-.126.064.063.064.063.064.126.062.063.126.063.126.126.062-.063.188-.063.188-.126l.188-.634c.063-.128.189-.255-.126-.317V49.8c.377-.062.315-.443.377-.7-.188-.19-.125-.7.064-.7.25.0.25-.19.314-.318l.188-.507a.062.062.0 00-.064-.063.189.189.0 00-.124-.065c0-.063.062-.19.124-.19.252.065.252-.191.314-.38s.064-.445.127-.634.125-.318-.127-.191c-.062.0-.124-.064-.188-.127a.136.136.0 01-.126-.125c-.062.062-.124.125-.124.188a5.525 5.525.0 00-.314.951 2.278 2.278.0 00-.126.7c-.063.064-.063.192-.126.192-.189.063-.189.125-.125.318.0.063.0.19-.064.19a.792.792.0 01-.376.063c0-.128.062-.19.062-.318.188-.507.314-1.077.5-1.649v-.317a.481.481.0 00-.125.253c-.252.888-.566 1.778-.817 2.6l-.378 1.459c.064.0.126.064.19.127.124.255-.19.508-.252.761s0 .573-.376.635v.381l-.189 1.078c0 .253-.063.253-.252.126a3.529 3.529.0 00-.188.635c-.062.128.062.318.188.38.064.066.126.066.252.127-.126.063-.188.128-.252.128-.126.063-.188.0-.25.0s-.126.0-.126.063l-.376.445v-.191C151.372 55.192 151.31 55.256 151.31 55.319zm9.109.062c-.06.063-.12.065-.124.122.0-.057.064-.057.124-.057a1.33 1.33.0 00.377-.254h-.063zm2.891.0a.193.193.0 01-.126.065h.126a.684.684.0 01.3-.127C163.494 55.322 163.431 55.381 163.31 55.381zm-6.974-.7c.062.0.126.063.188.063s.126-.063.189-.124a.217.217.0 01-.126-.066A.332.332.0 00156.335 54.683zm-4.461-.061.064-.066h-.064zm1.257-.762c-.064.063-.064.127-.064.255a1.13 1.13.0 00.126.318c0-.128.064-.191.064-.318V53.8A.224.224.0 01153.131 53.86zm1.7-2.473a3.667 3.667.0 00-.252.76l-.565 1.777a.225.225.0 01.062.127l.126-.127a.8.8.0 01.064-.381l.251-.19c0 .064.062.128.062.19a.455.455.0 00.064-.7c-.064.0.0-.127.0-.127.188-.063.25-.063.062-.253.0.0.0-.127-.062-.127a.228.228.0 01.188-.063c.062-.065.188-.065.188-.129l.188-1.077c.064-.253.064-.508.126-.762l.377-1.266c.062-.255.188-.508.252-.762.062-.062.062-.125.124-.125a.112.112.0 11.126.125c0 .065-.062.128-.126.255-.124.635-.314 1.205-.439 1.9a.863.863.0 00.377-.128c-.126-.251.126-.317.188-.507l.755-2.282c.25-.7.438-1.46.627-2.156l.188-.762a.492.492.0 00-.062-.254c-.063.129-.126.191-.126.254a.576.576.0 00-.063.317c-.062.064-.126.128-.188.128a.137.137.0 01-.126-.128c-.062-.253.314-.7.5-.761.126.0.188-.063.188-.127l.378-.887c.188-.635.376-1.269.564-1.839A6.718 6.718.0 00159.1 40.1c0-.063-.062-.126-.125-.255l-.126.319v.127c.126.19.0.317-.126.445-.062.0-.062.125-.125.19.0.127.063.253.063.381.0.507-.628.824-.69 1.4.0.126-.126.126.062.189.062.0.126.127.126.192-.064.127-.126.19-.126.253l-.188-.19c-.064-.063-.126-.063-.189-.128a.2.2.0 01-.126-.062.2.2.0 01-.062-.128.22.22.0 00-.064.128.235.235.0 00-.062.19c-.44 1.2-.817 2.409-1.193 3.614l-1.131 3.678c0 .191.062.382.062.635l-.124.19a.2.2.0 00-.1-.042C154.791 51.217 154.828 51.337 154.828 51.386zm3.142 2.282a.062.062.0 10.062-.062A.061.061.0 01157.97 53.669zm-.441-.127.063.065c.063.0.063-.065.126-.065a.061.061.0 00-.063-.062C157.592 53.48 157.592 53.48 157.529 53.542zm-5.341-.126v.12a.228.228.0 01.064-.184A.063.063.0 00152.188 53.416zm3.016-1.4a6.263 6.263.0 01-.126 1.015c-.062.063-.062.127-.062.254v.127h.126c.062-.064.188-.127.188-.19.189-.445.314-.951.5-1.523-.126-.064-.189-.127-.252-.127C155.392 51.7 155.268 51.766 155.2 52.02zm-1.7.7c-.063.192-.063.381-.127.571h.064a4.258 4.258.0 01.189-.508v-.19C153.571 52.655 153.508 52.655 153.508 52.718zm-1.256.381c.062.0.062.0.062-.063h-.062zm-.064-.952a4.749 4.749.0 01-.25.889l.376-.889-.062-.062zm8.357.572a.192.192.0 00.126.064.483.483.0 00.314-.127v-.063l-.064-.065C160.8 52.592 160.671 52.655 160.545 52.718zm-.879.0c.062.0.062.0.062-.063h-.062zm1.759-.443.126.127a3.227 3.227.0 00.5-.445c-.062.0-.125-.062-.188-.128a.474.474.0 00-.078-.007C161.5 51.822 161.54 52.156 161.424 52.275zm-1.13.063c-.064.0-.064.064-.126.064h.126a.2.2.0 00.062-.127A.061.061.0 00160.295 52.338zm-1.383-.063V52.4a1.641 1.641.0 01.378-.318l-.064-.064A1.346 1.346.0 00158.911 52.275zm2.074-.38c.063.0.063.0.125-.066C161.048 51.829 160.985 51.829 160.985 51.895zm-1.383-.066-.062.066a.193.193.0 00.126-.066.061.061.0 00.062-.063A.2.2.0 00159.6 51.829zm-5.843.066h.064v-.066h-.064zm7.351-.066a.062.062.0 00.064-.063A.062.062.0 00161.11 51.829zm-8.8.0h.063l-.063-.063zm1.634-.381c-.064.063-.064.063-.064.128a.062.062.0 00.064.063v-.128c.062-.063.0-.125.0-.19zm-1.257.191h.062c0-.124.06-.306.064-.431A1.244 1.244.0 01152.691 51.639zm-.314-.063h.063a.063.063.0 01.057-.065C152.44 51.515 152.438 51.576 152.377 51.576zm9.487-.19c.063.0.063.0.063.062a1.27 1.27.0 01.378-.252h-.126A1.5 1.5.0 01161.864 51.386zm-6.031-.761-.189.444c-.063.065-.125.128-.188.19.063.063.188.063.313.128.064-.065.126-.065.126-.128a1.83 1.83.0 00.126-.572V50.5C155.959 50.561 155.9 50.561 155.833 50.625zm-3.33.761.188-.445h-.062A3.735 3.735.0 00152.5 51.386zm8.455-.289L161.11 51A1.358 1.358.0 00160.958 51.1zm1.974-.345H163a2.522 2.522.0 01.439-.255A1.854 1.854.0 00162.932 50.753zm1.446-.446v.128c.062-.062.126-.062.126-.128.062.0.0-.062-.064-.124C164.44 50.244 164.378 50.244 164.378 50.306zm.376-.124c.062.0.062-.066.062-.066h-.124zm.817-.635h.062v-.064h-.062zm.5-.255.063.065.063-.065V49.23C166.136 49.23 166.136 49.292 166.073 49.292zm-11.5-.19.126-.19C154.64 48.975 154.576 49.04 154.576 49.1zm12-.062v-.065h-.063C166.514 49.04 166.514 49.04 166.577 49.04zm1.948-.762.313-.19v-.062A.632.632.0 00168.524 48.278zm.879-.571.063.063a.062.062.0 01.063-.063v-.064C169.466 47.643 169.466 47.707 169.4 47.707zm-.816.0a.061.061.0 01.062.063c.064-.063.188-.063.314-.127a.2.2.0 00-.126-.062C168.775 47.581 168.713 47.643 168.587 47.707zm.564-.57a.864.864.0 00.19.253l.125-.127c-.063-.126-.189-.191-.251-.253A.226.226.0 01169.151 47.138zm1.069-.065c-.064.0-.064.065-.064.128.126-.063.19-.063.252-.128a1.935 1.935.0 00.439-.38h-.188C170.535 46.821 170.347 46.946 170.221 47.073zm-.691-.127c0 .065.062.065.188.192v-.254c0-.063.0-.063-.063-.128zm.817-.76c.062.0.062-.064.124-.064v-.064zm-15.331-2.157c-.126.127.0.381-.314.381a.7.7.0 01.062.317.7.7.0 00-.062.318c-.062.254-.188.381-.188.635-.063.0.0.062.0.127a.138.138.0 00.126-.127l.376-1.143a1.787 1.787.0 01.062-.571A.061.061.0 00155.016 44.029zm.943-.95-.5 1.458-.314.888a.234.234.0 00.062.189.224.224.0 01.126-.063c.189-.571.439-1.141.629-1.649a2.991 2.991.0 00.188-.7c0-.064-.064-.127-.064-.192C156.021 43.014 156.021 43.079 155.959 43.079zM154.2 45.17v.063l.064-.063v-.062A.061.061.0 00154.2 45.17zm.315-.126v.064h.062V44.98zm.314-1.839a6.812 6.812.0 00-.44 1.2c0 .127-.063.254-.063.381.063-.127.126-.191.126-.316.189-.508.313-1.015.5-1.523A.47.47.0 00154.828 43.205zm.376.126c-.062.19-.062.38-.126.571a2.327 2.327.0 01.314-.508.632.632.0 01-.062-.188zm.691-2.347a11.228 11.228.0 01-.627 1.9h.062a.228.228.0 01.062.127c.064-.062.189-.127.189-.19l.188-.571c.19-.7.44-1.4.628-2.092.064-.254.064-.508.126-.761C156.335 39.971 156.083 40.478 155.9 40.984zm-.691.888c-.062.381-.188.7-.25 1.079l.376-1.015a.225.225.0 01-.062-.127A.062.062.0 01155.2 41.873zm1.257.825a.061.061.0 00.062.064l.126-.128h-.126A.062.062.0 01156.461 42.7zm-.064-.761c-.062.191-.124.443-.188.633-.062.0.0.065.0.065a5.89 5.89.0 00.314-.634c0-.064-.062-.064-.062-.128zm1.382-.064-.188.572v.124a.062.062.0 01.063-.063 2.7 2.7.0 01.251-.634l-.062-.063A.062.062.0 00157.78 41.873zm2.325-.253a.22.22.0 01.064.128l.188-.256a.234.234.0 01-.062-.189zm-2.2-.065h.064c0-.125.062-.252.062-.38a.928.928.0 00-.125.381zm-1.319.0c.063.0.0-.063.0-.063zm-1.194-.19c0 .065.0.127.064.127.0-.062.0-.062.063-.127a.225.225.0 01.062-.126c0-.126.0-.19-.062-.255A.884.884.0 01155.392 41.365zm2.954-1.2c-.126.38-.188.7-.314 1.014l.376-.949c.064-.065.0-.129.0-.192A.225.225.0 01158.346 40.161zm-1.7-2.538-.376 1.079c-.252.634-.44 1.269-.629 1.9-.063.0.0.128.0.191.0-.063.063-.127.063-.191.252-.7.566-1.4.754-2.094a5.511 5.511.0 00.313-.95V37.5C156.713 37.56 156.65 37.56 156.65 37.623zm2.576 1.84c-.062.0.064.063.064.127l.124-.191a.487.487.0 01-.062-.254A.491.491.0 00159.225 39.463zm-1.193-4.122-.943 2.281c-.188.572-.376 1.206-.565 1.777a.882.882.0 00.189-.254c.188-.571.314-1.14.5-1.649.314-.7.565-1.4.879-2.093v-.189A.228.228.0 01158.032 35.341zm.879 3.233.063-.064A.062.062.0 00158.911 38.574zm.252-.761a.061.061.0 01.062.064c0-.126.064-.19.126-.318h-.062C159.225 37.623 159.225 37.688 159.163 37.813zm-2.325-.633c-.064.0.0.061.0.125.062-.125.126-.191.126-.253l-.064-.062A.232.232.0 00156.839 37.181zm2.7-.318.062.062V36.8zm-2.513-.317a.061.061.0 01.062.062c.064-.127.064-.253.126-.318l-.062-.062zm1.445-2.409a3.616 3.616.0 00-.252.76v.064a7.438 7.438.0 01.314-.7c0-.063.0-.063.063-.125l-.063-.065zm.188-.445v.062c.062-.062.125-.19.188-.253l-.063-.065A.491.491.0 00158.66 33.692zm.188-.572a.062.062.0 01.063.064c0-.064.063-.128.126-.19h-.063C158.911 32.994 158.911 33.056 158.848 33.12zm.251-.633c0 .063.064.063.064.127.0-.064.062-.064.062-.127a15.145 15.145.0 01.628-1.523zm-.251-1.079.063.063a.231.231.0 01.188-.063c0-.064-.062-.064-.062-.126l-.063-.064C158.911 31.282 158.848 31.344 158.848 31.408zm.251-.7a.194.194.0 00.126.065v-.19A.135.135.0 01159.1 30.71zm.314-.632a.061.061.0 00.064.062l.188-.19a.746.746.0 01-.126-.19C159.477 29.887 159.413 29.95 159.413 30.078zm1.445-3.68c-.376 1.015-.754 2.03-1.193 3.045a.233.233.0 01-.064.19c0 .063.064.063.064.128.0-.065.0-.065.062-.128l.377-1.014c.19-.445.44-.952.628-1.4a4.758 4.758.0 00.252-.887v-.064zm-.44-.634v.064h.064V25.7zm.881-.319v.065a.062.062.0 00.062-.065l-.062-.063zm-.693.0v-.063h-.062C160.545 25.446 160.545 25.446 160.607 25.446zm.881-.825c0 .066.062.066.062.128l.188-.189c-.062-.063-.126-.063-.126-.127zm.188-.506c0 .064.062.064.062.127.062-.063.062-.063.062-.127a.062.062.0 00-.062-.064zm.188-.381h.126c-.063-.062-.063-.062-.126-.062zM86.653 75.676c-.063.0-.063-.062-.063-.127a1.867 1.867.0 01.439-.316l.126-.129a.23.23.0 00-.188.063c-.5.128-1.005.319-1.507.446a2.791 2.791.0 01-2.2-.572 5.125 5.125.0 01-1.572-1.712 6.552 6.552.0 01-.627-2.157 16.268 16.268.0 01-.126-4.63 34.733 34.733.0 01.753-5.709c.755-3.424 1.7-6.72 2.765-10.019l.565-1.776v-.19c-.062.062-.126.062-.126.125a81.316 81.316.0 00-7.287 8.88c-1.822 2.536-3.644 5.009-5.467 7.484-1.13 1.459-2.387 2.916-3.642 4.312a11.513 11.513.0 01-1.886 1.522 2.928 2.928.0 01-1.067.255c0 .064-.062.0-.126.0a.233.233.0 00.064-.19l.565-.761a4.071 4.071.0 00-.691.443 1.7 1.7.0 01-2.2-.19 3.934 3.934.0 01-1.257-2.6 17.782 17.782.0 01.378-5.771 65.937 65.937.0 013.078-9.833c.565-1.33 1.131-2.662 1.633-3.994a1.914 1.914.0 00.251-.634v-.317a.484.484.0 01.064-.635 3.54 3.54.0 011-.7 1.15 1.15.0 011.005.126.323.323.0 00.251.128c.5.0.879.381 1.319.57.25.065.44.256.691.318a3.092 3.092.0 011.131.887 1.421 1.421.0 01.314 1.46c-.314.949-.691 1.9-1.069 2.854a83.339 83.339.0 00-3.2 7.738c-.753 2.03-1.444 4.058-2.137 6.152a3.665 3.665.0 00-.25.886.394.394.0 00.062.256l.188-.128c.44-.508.943-1.014 1.383-1.587 1.193-1.458 2.325-2.98 3.455-4.565 1.948-2.6 3.77-5.265 5.717-7.864 1.005-1.4 2.137-2.793 3.268-4.123 1.57-1.967 3.2-3.869 4.774-5.836.629-.7 1.2-1.457 1.822-2.156a2.852 2.852.0 011.383-1.014 1.761 1.761.0 011.005-.125c0 .062.062.0.124.062.441.19.817.445 1.32.634a7.178 7.178.0 00.69.317 4.8 4.8.0 011.948 1.4 2.918 2.918.0 01.565 2.917c-.377 1.4-.879 2.665-1.32 4 0 .063-.062.063-.124.126v-.19c.062-.191.124-.443.188-.633.0-.065-.064-.128-.064-.193.0.065-.124.065-.124.128-.064.317-.188.572-.252.887-.062.127-.188.255-.188.382a7.444 7.444.0 00-.314.887c-.063.317-.189.57-.251.887.0.255-.064.508-.064.7a.239.239.0 00-.062.191c-.314.7-.691 1.332-1.005 2.029-.062.128-.062.193-.126.255-.062.255-.188.445-.25.7l-.126.506c-.064.066-.126.128-.189.128v-.128c.189-.7.439-1.394.629-2.091.0-.065.0-.065.062-.128.0-.064-.062-.127-.062-.19a.136.136.0 01-.126.126l-.566 1.9a15.306 15.306.0 00-.5 1.586c-.188.888-.376 1.712-.627 2.6a16.237 16.237.0 01-.566 1.585c0 .062.0.128-.062.128-.5.252-.44.7-.5 1.14a5.493 5.493.0 01-.126 1.014c0 .065-.062.128-.062.193.314.188.0.316-.064.506-.062.126-.188.253-.062.445.062.064.0.189.0.189-.188.254.0.634-.252.824-.062.065.0.382.064.508.062.19.062.19-.126.255-.126.063-.251.125-.126.38.064.063.0.255.0.445.0.124-.188.251.064.316l-.064.253a1.1 1.1.0 00-.125.76c.063.128.063.254-.126.318a.486.486.0 00-.062.317l.188.7c0 .064.063.127.063.192.062-.065.126-.128.126-.192.0-.19.0-.443.314-.443a.952.952.0 01.062-.38.82.82.0 01.062-.382.807.807.0 00.064.382c.062.823.126 1.711.251 2.535.063.445.252.572.69.635A3.977 3.977.0 0090.3 72c.126.0.188-.063.25-.063a.389.389.0 01-.062.254L89.354 73.33c-.314.316-.628.7-.941 1.014a1.355 1.355.0 01-.5.316c-.188.19-.376.256-.439.573.0.226-.452.453-.727.453A.364.364.0 0186.653 75.676zM66.234 70.285a1.593 1.593.0 00.376-.317zm19.037-1.332v.064l.126.128a.237.237.0 01.063-.192l-.189-.506h-.064A1.56 1.56.0 0185.271 68.953zm.753-.76a.22.22.0 01.064.13c.062-.067.124-.13.124-.192l-.062-.065C86.088 68.13 86.024 68.13 86.024 68.192zm-.879-.445c0 .127.062.255.062.382.064-.065.064-.128.127-.256a.479.479.0 01-.127-.317A.239.239.0 0085.145 67.748zm-16.586-.062-.056.056c.057-.056.058-.056.119-.056v-.062zm.062-.062a.2.2.0 00.064-.128A.216.216.0 0068.62 67.623zm.7-.958c.057-.057.058-.057.119-.057h-.063zm17.209-.122.063.065c.063.0.125-.065.189-.127a.216.216.0 01-.126-.064zm-.377-.38c0 .063.0.063.062.128a.2.2.0 00.064-.128c0-.063-.064-.063-.126-.128C86.15 66.1 86.088 66.163 86.15 66.163zM85.082 66.1c0 .063.0.063.062.126.0-.063.062-.063.126-.126a.215.215.0 01-.126-.065zm.314-.192a.2.2.0 00.063.127c0-.063.062-.127.125-.19l-.125-.128C85.46 65.784 85.4 65.846 85.4 65.909zm-20.042-.823a.061.061.0 00-.062.062 1.426 1.426.0 01.062.508c.062-.128.062-.317.126-.445v-.381A.481.481.0 0065.354 65.086zm4.46.442v.064l.064-.064v-.063C69.878 65.528 69.878 65.528 69.814 65.528zM86.4 65.4l.062.062c.063.0.126-.062.189-.126h-.126C86.464 65.339 86.464 65.4 86.4 65.4zm-.88-.192h.063v-.063h-.063zm.816-.887.189.445c0 .062.063.126.126.19.126-.064.25-.128.25-.19a.7.7.0 000-.508v-.126h-.124c-.064.19-.189.19-.377.063C86.4 64.26 86.338 64.26 86.338 64.324zm-.5.571v.064a1.373 1.373.0 00.252-.381s-.064.0-.126-.127A1.593 1.593.0 0085.836 64.895zM64.6 64.831l.126.128c0-.064.063-.128.063-.19.0-.128.0-.191-.063-.255zm6.1.122c0-.058.0-.06.062-.122H70.7zm-4.838-2.341a.911.911.0 01-.126.38c0 .065.0.191.062.191.253.065.064.192.064.318l-.126.7h.062v.381c.064-.127.127-.127.19-.254.0-.064.063-.127.063-.19.126-.382.062-.825.188-1.205.126-.191.0-.38.188-.634a.555.555.0 00-.188-.888c-.062.0-.062-.128-.126-.128.0-.062-.062-.062-.125-.128.0.066-.063.128-.063.193a.915.915.0 01-.189.7c-.062.063-.062.19-.126.318l.064.062a.378.378.0 01.174-.068C65.95 62.353 65.9 62.517 65.857 62.611zm5.153 1.9v-.063h-.064C70.945 64.514 70.945 64.514 71.009 64.514zm-5.593-.063.064.063.062-.063c-.062-.063-.062-.063-.062-.127C65.417 64.388 65.417 64.388 65.417 64.451zm19.728-.317c.062.063.062.126.126.19.0-.064.063-.127.063-.19s-.063-.127-.063-.19zm-20.356.19h.063V64.26zm6.345-.571H71.2c0-.063.0-.063-.064-.063zm-5.591-.189h.126A.063.063.0 0065.6 63.5.062.062.0 0165.543 63.563zm19.728-.19a.216.216.0 01.063.126c.063-.064.063-.126.126-.126a.877.877.0 01.188-.256l.126-.189-.064-.064A.49.49.0 0085.271 63.374zm.817-.256h.062v-.062zm.627-1.013-.188.507a71.52 71.52.0 00.126.38c.062-.062.126-.126.126-.189.062-.191.062-.443.124-.634.0-.064-.062-.127-.062-.192C86.779 62.042 86.715 62.042 86.715 62.1zm-14.639.887a1.12 1.12.0 01.252-.317v-.063A1.318 1.318.0 0072.076 62.991zm13.383-.632c.062.0.062.0.062-.064H85.46zM72.706 62.1a1.453 1.453.0 00.188-.318H72.83C72.768 61.914 72.768 62.042 72.706 62.1zm12.816-.635.188.318c.064-.062.126-.128.126-.128a1.1 1.1.0 00-.251-.315C85.522 61.407 85.522 61.407 85.522 61.469zm1.257.065c0 .063.062.063.124.125.0-.062.064-.125.064-.252a.062.062.0 01-.064-.063zm-.5-.19c0 .063.062.063.126.063.0.062.062.0.062-.063-.062-.065-.062-.065-.126-.065zm-13.068-.127v.127a.194.194.0 00.126-.065c.188-.19.313-.445.5-.634l.19-.38A11.422 11.422.0 0173.208 61.217zm-6.6-2.284c0 .065-.062.128-.062.19-.251.254-.062.571-.126.826-.062.0.0.063.0.063a.309.309.0 01.126.507s0 .126.062.126c.126.0.126.0.064.128l-.188.317c-.064.062-.126.128-.126.19.062.0.188.065.25.0.064.0.126-.128.126-.19.126-.508.314-1.014.44-1.521s0-.762-.5-.825A.231.231.0 0166.61 58.933zm24.063-8.308a9.73 9.73.0 01-.44 1.459c0 .062.0.062-.062.062a.823.823.0 00-.252.635c-.062.76-.5 1.4-.565 2.157V55c-.188.57-.376 1.078-.565 1.586v.126a6.775 6.775.0 01-.251 1.079A8.57 8.57.0 0188.223 59c-.124.379.0.822-.376 1.139v.825a.392.392.0 00.062.255c0-.066.064-.128.064-.19l.376-1.459c.126-.508.252-.952.377-1.461a17.574 17.574.0 01.378-1.775 1.588 1.588.0 00.25-.7 5.623 5.623.0 00.188-1.013c.189-.635.441-1.206.629-1.84l.753-2.475A1.141 1.141.0 0090.673 50.625zM85.648 61.151l.062.066c.064-.128.126-.19.188-.318a.214.214.0 00-.124-.065A1.059 1.059.0 0185.648 61.151zm1.255.0h.064v-.062C86.9 61.089 86.9 61.089 86.9 61.151zm-.062-.507a.062.062.0 00.062.065c.064.0.064-.065.126-.129-.062.0-.062-.062-.126-.062C86.9 60.581 86.9 60.581 86.841 60.645zm-.439-4.44a10.506 10.506.0 00-.566 3.172v.064l-.314.7h.063c0 .066-.063.128.0.128l.251.38c0-.126.126-.315.062-.38-.062-.316-.062-.507.126-.7a.862.862.0 00.126-.508c-.376-.128-.062-.128.0-.191a2.623 2.623.0 00.126-.38c-.314-.128-.126-.382-.126-.571l.188-.127h.189a.236.236.0 01-.063-.192.484.484.0 01-.126-.316l.126-.888c.063-.063.126-.191.251-.253l.188-.128-.062-.062h-.314C86.464 56.015 86.464 56.079 86.4 56.205zm.565 3.932h.062a.061.061.0 00-.062-.062zM75.092 58.616c-.314.445-.629.952-.879 1.4.314-.444.691-.889 1.005-1.269v-.19A.216.216.0 0075.092 58.616zm11.875.572a4.385 4.385.0 00.25.632.221.221.0 00.126.066l.126-.127c-.126-.255-.252-.444-.376-.7h-.126zm-13.006.7c.064-.066.064-.066.064-.127C74.025 59.819 73.961 59.819 73.961 59.885zm12.566-.508c0 .064.063.064.126.127.0-.063.062-.127.062-.189a.2.2.0 00-.062-.127zM87.469 59v-.065h-.062A.063.063.0 0087.469 59zm-21.739-.255a.061.061.0 00.062.063.063.063.0 100-.126zM86.9 58.3c.19.063.126.126.0.191-.062.063.0.19-.062.253.062.0.126-.063.188-.063a.933.933.0 01.44-.19c.377.0.315-.319.377-.508l-.188-.507a.193.193.0 00-.063-.126.224.224.0 01-.063.126l-.189.317c-.062.064-.062.064-.126.127.064.0.126.063.19.063s.125-.063.188-.063.063.0.125.063c-.125.126-.251.318-.439.381.0.0-.126-.127-.188-.127-.064-.064-.126.0-.19-.064zm-19.538.126c-.062.065.0.065.062.191a4.568 4.568.0 01.126-.445l-.062-.064A1.067 1.067.0 0067.365 58.425zm-.691.0c.062.065.124.065.188.191a1.679 1.679.0 01.377-.317.219.219.0 01-.126-.064zm8.733-.254.062.064.189-.254-.063-.063zm-8.23-.316c0 .063.063.126.063.189.064-.063.188-.063.188-.189.064-.127.064-.318.126-.445v-.127h-.126c-.062.065-.124.065-.124.127.0-.062-.064-.19.0-.254.124-.064.25-.064.376-.127.062-.063.125-.128.188-.128-.252-.062-.126-.443-.44-.443-.124.0-.188-.064-.251.063a2.454 2.454.0 01-.314 1.206.443.443.0 01.184-.058C67.119 57.671 67.176 57.715 67.176 57.856zm20.041-1.269c-.062.444-.188.888-.25 1.332h.062a3.252 3.252.0 01.188-.444c0-.064-.062-.064-.124-.064a4.944 4.944.0 00.25-.7.229.229.0 00.064-.19A.627.627.0 0087.217 56.587zM75.344 57.792h.062c0-.063.062-.063.062-.128a.062.062.0 00-.062-.064C75.407 57.664 75.344 57.729 75.344 57.792zm1.318-1.521c-.25.442-.564.886-.878 1.329.0.064-.063.064.0.129h.062c.064.0.126-.065.19-.129l.376-.57a2.608 2.608.0 00.439-.7c.064.0.0-.128.0-.19zm11.122.76a.061.061.0 00.062.063 4.02 4.02.0 00.252-.507l-.064-.064h-.062zm-19.855-.508.064.064.125-.191a.22.22.0 01-.063-.125A.327.327.0 0067.929 56.523zm8.294.0c.062-.063.062-.063.062-.127C76.286 56.46 76.224 56.46 76.224 56.523zm-8.042-.508v.064l.063-.064a.061.061.0 01-.063-.062zm8.734-.062c.44-.065.69-.382.564-.761zM67.3 55.381l.376.445c0 .063.125.128.188.128.0-.065.062-.192.0-.319a2.835 2.835.0 01-.252-.443c-.062-.064-.124-.128-.124-.191A2.038 2.038.0 0067.3 55.381zm21.172-1.266a3.508 3.508.0 00-.376 1.331.916.916.0 00.124.38l.19-.38c.188-.445.0-1.013.439-1.331v-.128c0-.064-.063-.064-.126-.064C88.6 53.986 88.475 54.049 88.475 54.114zm-1.319-.128c-.062.0-.188.063-.188.128l-.377 1.394c0 .062.0.062.063.126.0-.064.062-.064.062-.126a.22.22.0 00.064-.128c0-.189.062-.317.314-.317a.882.882.0 01-.126-.381 5.2 5.2.0 01.25-.569c.064-.065.064-.065.064-.128-.043.0-.084-.028-.108-.028S87.155 53.965 87.155 53.986zM67.867 55.256a.061.061.0 00.062.063c0-.063.064-.127.126-.255L67.993 55A.475.475.0 0067.867 55.256zM87.6 54.811v.253c0 .064.063.128.125.192.0.0.126.0.126-.064-.062-.128-.062-.318-.126-.445A.215.215.0 0187.6 54.811zm-9.235-.761a.64.64.0 00-.252.317 5.389 5.389.0 00-.5.761 4.383 4.383.0 00.943-.951c0-.062.0-.127-.064-.127A.134.134.0 0078.4 54C78.376 54 78.36 54.018 78.36 54.049zM68.5 55.064h.062A.061.061.0 0068.5 55zm19.476-.19V55c.062-.127.126-.127.126-.19a.191.191.0 01-.126-.065zM68.62 54.683v.128a.476.476.0 01.126-.189v-.128C68.684 54.556 68.62 54.622 68.62 54.683zm-.627.0c.062.0.062.0.125-.061l-.063-.066C68.055 54.622 67.993 54.622 67.993 54.683zm.188-.507a.228.228.0 01.063.128c.126-.063.188-.19.252-.255-.064-.127-.064-.19-.126-.253zM67.3 54.3h.124l-.062-.063zm1.57-.19a.229.229.0 00.062-.128C68.873 54.049 68.873 54.049 68.873 54.114zm-1.382-.065h.062a1.906 1.906.0 00.251-.634A2.025 2.025.0 0167.491 54.049zm21.172-.318c.063.0.063.065.126.065s.063-.065.189-.065c-.064-.063-.126-.125-.189-.125zM78.8 53.48c-.062.062-.062.127-.062.252.062-.063.188-.063.188-.125a10.974 10.974.0 001.32-1.65c.126-.062.188-.254.25-.381s.064-.255.188-.38.378-.255.5-.444l1.194-1.523c.063-.062.0-.19.0-.255a.193.193.0 00-.126.065c-.44.57-.942 1.142-1.382 1.776-.5.633-1.005 1.268-1.444 1.9v-.063A9.094 9.094.0 0178.8 53.48zm-9.99-.128s-.062.128.0.128c.19.189.252.189.378-.254A2.666 2.666.0 0068.809 53.352zm18.409-.126h.064c0 .063-.064.126.0.126a.136.136.0 00.126.128.193.193.0 00.125-.064c-.063.0-.125.0-.125-.064v-.19c.188.0.251-.127.188-.253-.063-.065.0-.128.0-.192.251-.126-.063-.316.0-.443h-.063C87.407 52.592 87.343 52.909 87.217 53.226zm3.268.126.062.064c0-.064.064-.064.064-.127l-.064-.127A.279.279.0 0190.485 53.352zm-1.633.0c.062-.063.188-.063.188-.19a.8.8.0 00.064-.381l-.19-.317a.327.327.0 01-.125.253c-.063.127-.063.318-.126.445s-.125.254.126.127A.062.062.0 0088.852 53.352zm-20.167-.317.124.127c.064-.064.19-.127.252-.19l-.188-.191C68.809 52.844 68.746 52.972 68.684 53.035zm.565.063.188-.571c.064.0.0-.062.0-.062h-.063A2.3 2.3.0 0069.25 53.1zM88.1 53.035c.062.0.062.0.062-.063C88.1 52.972 88.1 52.972 88.1 53.035zm.124-.318h.064a.48.48.0 01.062-.316A.488.488.0 0088.223 52.718zM68.746 51.259c-.062.063.0.19-.062.253a3.751 3.751.0 00-.126.445l-.377.508a.227.227.0 00.063.127h.126c.062-.127.188-.317.25-.446s.064-.189.252-.062a.957.957.0 00.377-.255A.324.324.0 0169 51.7c.188-.064.314-.192.5-.255l.188-.127c-.064-.063-.126-.125-.126-.188v-.381c-.062.0-.126.0-.126.063-.063.126-.063.253-.125.381.0.062-.063.125-.126.19.0-.065-.063-.128-.126-.19s-.126-.128-.126-.192A.908.908.0 0068.746 51.259zm20.357.571-.629.381c-.062.065-.062.128-.126.192.189-.064.377-.064.565-.127a.715.715.0 00.5-.191c.124-.064.124-.189.124-.318a.231.231.0 01-.188-.063.143.143.0 00-.1-.053C89.191 51.651 89.147 51.74 89.1 51.829zm-9.55.317.062-.062A.061.061.0 0079.554 52.146zm-9.99-.062a.216.216.0 01.126-.064.2.2.0 00-.126-.063h-.126C69.5 52.02 69.5 52.084 69.564 52.084zm18.911-.127v.063c.063.0.063.0.126-.063l-.063-.062A.061.061.0 0088.475 51.957zm2.514-.062v.062c.062-.062.062-.062.062-.128V51.7A.5.5.0 0090.988 51.895zm-3.645.0a.064.064.0 00.064-.066v-.063C87.343 51.829 87.343 51.829 87.343 51.895zm.441-.192h.25l.064-.064h-.314zm.816-.255c-.063.0.062.063.125.063.188-.063.44-.063.5-.125.126-.318.378-.382.566-.508l.189-.126v-.128h-.126c-.126.062-.251.062-.315.128-.188.126-.376.189-.438.316-.064.253-.126.19-.252.065h-.189A.572.572.0 0088.6 51.449zm-18.723-.633a.2.2.0 00.062.126c0-.063.064-.126.126-.189L70 50.687C69.94 50.687 69.94 50.753 69.878 50.816zm19.414-.634c-.064.124-.126.19-.188.316.0.063-.064.063-.126.127h.188c.062-.064.188-.127.252-.191a2.3 2.3.0 00.124-.634c0-.062.0-.062-.062-.127zM88.6 48.6c-.126.507-.314 1.014-.44 1.521a.478.478.0 00.126.318h.126c0-.062-.064-.062-.064-.128s-.062-.124-.062-.19c.126-.127.188-.317.314-.444.062-.19.188-.381.251-.571.062-.062.0-.19.0-.317-.063.127-.126.19-.126.255-.063.0-.063.062-.125.128v-.193c.062-.19.062-.318.125-.508zm1.068-.825a.957.957.0 01-.251.7c-.126.065-.126.255-.19.382a1.785 1.785.0 01-.062.57c-.062.253-.188.445-.252.7-.062.066.0.128.0.256.126-.066.252-.128.252-.19a1.627 1.627.0 00.062-.509l.19-.316c.062.0.062.063.124.063s.127.0.127-.063a6.049 6.049.0 00.314-.635.623.623.0 00-.189-.065.232.232.0 00-.188-.062c.063-.063.125-.128.188-.128.251-.125.315-.315.189-.508a.905.905.0 00-.189-.253c0-.064.0-.064-.063-.064A.225.225.0 0089.669 47.77zm-20.042 2.09c.126.191.0.252-.124.318-.064.0-.064.062-.127.124a.221.221.0 01.127.066c.124.0.25.0.312-.066.126-.251.19-.507.378-.823h-.126a.086.086.0 00-.039-.008C69.877 49.475 69.569 49.749 69.626 49.865zm.755.125v.066l.062-.066a.061.061.0 00-.062-.062zm20.669-.062h-.062zm-3.142.0.064-.063h-.064zM81.5 49.673c0-.063.064-.126.064-.19A.232.232.0 0081.5 49.673zM69.94 48.85c-.376.0-.376.38-.5.633-.063.064.0.127.0.19a.216.216.0 00.126-.063.59.59.0 01.754-.57s0-.19.063-.255l-.253-.063C70.066 48.785 70 48.85 69.94 48.85zm20.357.19v.19c0 .062-.064.19-.064.253l.19-.191a.577.577.0 00.062-.317c0-.063-.062-.125-.126-.19C90.359 48.85 90.3 48.912 90.3 49.04zm-7.225-1.08c-.252.318-.44.635-.691 1.015a8.576 8.576.0 001.759-1.965c.189-.127.441-.255.252-.571zm7.161.382c-.062.0-.062.063-.062.125.062.0.188.128.252.065.062.0.188-.127.313-.19a.063.063.0 01-.063-.065C90.485 48.278 90.359 48.343 90.233 48.343zm-1.319.125v.065c.064-.065.064-.127.126-.19v-.065C88.978 48.343 88.914 48.406 88.914 48.468zm-.565.0h.064v-.125A.215.215.0 0188.349 48.468zM70.192 47.9a2.153 2.153.0 01.189.38.981.981.0 00.188-.38c0-.063-.126-.128-.188-.128S70.192 47.835 70.192 47.9zm-.126.19h.062v-.062A.061.061.0 0070.066 48.088zM89.1 47.96l.062.066a.491.491.0 01.062-.256l-.062-.063C89.1 47.77 89.1 47.835 89.1 47.96zm1.507-.379h.062v-.063C90.611 47.518 90.611 47.518 90.611 47.581zM89.1 47.328c.062.0.062.062.124.062s.126-.062.19-.127a.2.2.0 00-.126-.063zm1.319-3.362v.063c.062.19.0.255-.064.445-.062.125-.314.379.0.506.0.064.0.19-.062.19-.126.063-.314.318-.252.444.314.381.0.572-.062.889-.064.19-.189.381-.252.57a.136.136.0 00.126.128c.062.063.126.0.252.0a.135.135.0 01-.126-.128.218.218.0 00.062-.127 1.288 1.288.0 00.188-.318 3.917 3.917.0 01.19-.822c.062-.193.188-.256.124-.508a5.006 5.006.0 01.126-.952.9.9.0 01.126-.38l-.188-.382C90.547 43.711 90.485 43.839 90.423 43.966zM89.1 47.011h.062c.062-.065.188-.127.252-.19a.215.215.0 01-.126-.065A.867.867.0 0089.1 47.011zm2.073-.318.062.063a1.748 1.748.0 01.314-.381c-.124-.063-.124-.126-.188-.189zm-1.507-1.331a3.544 3.544.0 00-.251.887c-.064.063.062.126.124.318.0-.128.064-.192.064-.255l.188-.887v-.192S89.669 45.3 89.669 45.362zm-4.524.126a2.5 2.5.0 01-.5.635.709.709.0 00.691-.443c.063-.066.0-.192.0-.255C85.271 45.425 85.207 45.488 85.145 45.488zm3.9.507a.063.063.0 00.064.064.062.062.0 01.062-.064l-.062-.063A.062.062.0 0089.04 45.995zm-4.523-.126v.063c.062-.061.122-.063.182-.119A.232.232.0 0184.516 45.868zm7.036-.444c-.124.063-.188.189-.25.255a.234.234.0 01.062.189c.064-.062.064-.062.126-.062a.881.881.0 00.188-.256c.063-.063.0-.189.063-.318C91.679 45.3 91.553 45.362 91.553 45.425zm-2.325-.063v.063a.062.062.0 00.064-.063V45.3A.063.063.0 0189.228 45.362zM85.71 44.98v.128a.088.088.0 00.126.0l.5-.571V44.41h-.126C86.024 44.6 85.9 44.79 85.71 44.98zm4.147-.317c0 .127-.063.253-.063.381h.063c0-.128.062-.191.126-.318V44.6C89.919 44.6 89.919 44.663 89.857 44.663zm1.131-.189-.189.252.125.127a.858.858.0 00.252-.19c0-.064.0-.127.062-.127a.3.3.0 00-.182-.089A.091.091.0 0090.988 44.474zM90.547 42c0 .189.189.317.0.445.189.124.0.253.0.379a.2.2.0 00.064.128.215.215.0 01.125-.065c.378-.253.063-.7.378-.95-.126-.127-.19-.254-.315-.317A.27.27.0 0090.547 42zm4.589 33.042c-.124-.126-.377-.126-.565-.192l-.69-.19a.575.575.0 00-.315-.062 5.472 5.472.0 01-1.005-.062c-.126.0-.25.0-.126-.192a.641.641.0 01-.062-.189c-.564-.129-.628-.572-.628-1.017.0-.7.126-1.393.188-2.092a73.785 73.785.0 012.827-12.113c.881-2.662 1.823-5.264 2.828-7.928.943-2.472 1.948-4.946 2.954-7.421a3.63 3.63.0 00.188-.887 3.021 3.021.0 011.131-2.029.849.849.0 01.941.064 3.9 3.9.0 001.633.571 4.289 4.289.0 012.89 1.584 1.846 1.846.0 01.378 2.093l-.378.888a.236.236.0 01-.062.19h.25a14.566 14.566.0 011.508-.508 4.307 4.307.0 013.079.256 6.916 6.916.0 011.571.7 4.343 4.343.0 011.633 2.029c.063.318.315.635.441 1.014.062.191.062.508.124.76a.23.23.0 01.064.128.235.235.0 00.062-.19c0-.128-.062-.255.0-.317a.48.48.0 01.126-.318c.062.063.188.128.188.19a4.354 4.354.0 01.441 1.142c.188.761.312 1.523.438 2.22s.252 1.394.314 2.093l.189 1.14c.126 1.523.252 2.981.44 4.5a18.106 18.106.0 00.25 1.839 7.9 7.9.0 01-.376-1.141c-.126-.57-.188-1.078-.314-1.585a1.244 1.244.0 00-.063-.508 2.711 2.711.0 00-.063-.316 3.132 3.132.0 01-.251-.7c-.064-.065-.064-.191-.126-.255l-.188.19a.394.394.0 00-.314.508 9.717 9.717.0 01.252 1.332c-.064.635.312 1.079.376 1.649.062.255.188.508.251.824.063.0.063.064.126.127.188.064.376.191.564.253.064.0.064.064.064.129a.331.331.0 01.126.253c.063.0.063.064.063.128v.252a.655.655.0 00.062.193c-.315.252.063.506.126.506.126-.064.236.015.346.094s.22.158.345.1c.315-.128.629-.191.879-.318l.755-.634c.062-.064.188-.127.25-.064.064.0.126.192.126.255a3.218 3.218.0 00.126 1.079 4.61 4.61.0 01.062 1.331.217.217.0 01-.062.126c.062.318.062.38-.314.318a.55.55.0 00-.565.38 1.718 1.718.0 01-.942.824 1.349 1.349.0 01-.5.065c-.062.0-.126-.128-.25-.128-.252.0-.126-.189-.064-.255-.439-.124-.817.192-1.193.255a2.932 2.932.0 01-2.828-1.014 7.388 7.388.0 01-1.885-3.424 26.031 26.031.0 01-.564-4.376c-.127-1.967-.252-3.869-.441-5.836a16.624 16.624.0 00-.564-2.98c-.19-.7-.314-.7-.881-.317a15.548 15.548.0 00-1.633 1.2c-.566.445-1.131.887-1.633 1.333l-1.319 1.523c-.062.062-.188.127-.251.19.063-.063.063-.19.125-.318a10.381 10.381.0 001.069-1.269 3.411 3.411.0 01.376-.508c0-.064-.064-.126-.064-.19-.062.0-.124.0-.124.064L105.5 53.669a5.357 5.357.0 00-.439.635 2.55 2.55.0 00-.315.57c-.251-.128-.188.127-.251.19l-.691.889a.375.375.0 00.064.252c0 .066.062.191.0.255-.126.191-.252.443-.441.508-.44.19-.376.571-.5.951a.061.061.0 01-.062.063H102.8c-.124-.382-.188-.063-.251.063-.126.318-.126.825-.378 1.016-.312.254-.062.508-.188.759-.062.066-.124.193-.188.0.0.0-.124.0-.124.066-.064.064-.064.19-.126.318v.316c-.252.0-.189.126-.126.316a.063.063.0 01-.063.065 7.794 7.794.0 00-.88 1.775c-.377.889-.753 1.9-1.13 2.854-.19.445-.315.953-.5 1.46v.19c0-.062.062-.062.062-.127.441-.887.817-1.84 1.193-2.727.315-.76.691-1.522 1.005-2.282.062-.128.062-.128.189-.065h.063c0-.063.063-.128.063-.19.0-.128-.063-.318.0-.38.062-.19.126-.063.126.062.126-.318.188-.634.314-.95a14.609 14.609.0 01.817-1.331 13.158 13.158.0 01-.629 1.331v.126a3.784 3.784.0 00-.126.445l.188-.38c.44-.7.817-1.4 1.193-2.093.0-.063.064-.063.126-.126-.062.063.0.126-.062.126a1.278 1.278.0 01-.252.507c.062-.062.188-.125.252-.19.5-.951 1.067-1.9 1.633-2.79a23.193 23.193.0 011.508-1.966l.5-.7c.064-.064.188-.064.252-.128l-.064.255c-.376.508-.815.95-1.13 1.457-.755 1.269-1.445 2.474-2.137 3.742a52.616 52.616.0 00-2.766 6.469l-2.073 5.2a8.9 8.9.0 00-.69 2.535.477.477.0 01-.252.445c-.189.127-.251.381-.377.635-.188.634-.753.759-1.319.887a.785.785.0 00-.376.064.845.845.0 01-.943.0zm-1.129-.824.124-.127a1.491 1.491.0 00.126-.508c.064.0.0-.127.0-.127-.314-.062-.188-.252-.25-.445a.215.215.0 01-.064-.125c0 .063-.062.125-.062.191a4.83 4.83.0 00.126.95h-.064A.237.237.0 0194.007 74.218zm1.005-1.777-.189.57a3.748 3.748.0 00.251-.5v-.128zm-.567.508a.223.223.0 01.064-.127C94.445 72.823 94.445 72.887 94.445 72.95zm-.314-.254v.064c.062-.062.064-.064.064-.122C94.195 72.7 94.193 72.7 94.131 72.7zm.378-.127V72.7a.137.137.0 00.126-.127.2.2.0 00-.064-.127h-.126C94.445 72.507 94.445 72.569 94.509 72.569zm1.633-.319a.229.229.0 00-.062.129l.126-.129v-.062A.062.062.0 0096.142 72.25zm.126-.5a.479.479.0 00.126-.254C96.332 71.555 96.332 71.681 96.268 71.745zm.188-.572.064.065c0-.065.062-.128.062-.192v-.064C96.52 71.046 96.456 71.11 96.456 71.173zm.252-.571c-.062.0.0.065.0.065l.126-.191c-.064.0-.064.0-.064-.065A.239.239.0 0096.708 70.6zm-1.885-.318a.061.061.0 00.063-.062A.061.061.0 0094.823 70.285zm2.388-1.332c-.126.318-.189.635-.315 1.015v.127c.063-.063.063-.063.126-.063l.377-1.141a.061.061.0 00-.062-.063zM95.2 69.27l.062-.064A.061.061.0 0095.2 69.27zm4.9-7.926a1.393 1.393.0 00-.25.315c-.188.509-.314 1.015-.5 1.523s-.441.952-.629 1.459a5.929 5.929.0 01-.44 1.395c-.439.762-.377 1.65-.879 2.348a.388.388.0 00.062.253l.19-.127a16.76 16.76.0 01.627-1.587c.188-.506.378-1.014.5-1.458.188-.507.314-1.014.5-1.521a1.937 1.937.0 01.188-.635l.628-1.4.189-.507c-.044-.044-.089-.09-.133-.09A.077.077.0 00100.1 61.344zm18.786 6.4a.224.224.0 01.126-.062.061.061.0 01-.062-.062C118.886 67.623 118.886 67.685 118.886 67.748zm0-.252c-.062.0-.125.062-.188.128h.252a1.3 1.3.0 01.25-.382A1.1 1.1.0 00118.886 67.5zm-17.78-5.136-.564 1.33c-.252.7-.5 1.333-.817 2.029v.128c.062.0.062-.062.126-.128.376-1.014.817-2.029 1.256-2.98a1.156 1.156.0 01.126-.443C101.167 62.3 101.167 62.3 101.105 62.359zm15.708-.128a.509.509.0 00.126.7 1.566 1.566.0 00.5 1.015l.188.128a.239.239.0 01-.063-.193 2.276 2.276.0 01-.251-.7c.023.024.046.047.066.071l-.13-.261c-.062-.126-.124-.253-.188-.38a23.547 23.547.0 01-.879-4.058c0-.063-.062-.128-.062-.191v.191c.124.95.314 1.9.439 2.854.064.252.0.252-.189.252a.575.575.0 00-.062-.315c0-.065-.064-.065-.064-.127a.228.228.0 01-.062.127l.188.315a.426.426.0 01.064.382c0 .19.062.19.189.127A.636.636.0 01116.813 62.231zm-18.661.824a.925.925.0 00-.125.444c-.064.0.0.064.0.128a.062.062.0 01.063-.064l.188-.508c-.062-.065-.062-.065-.062-.127C98.216 62.991 98.216 62.991 98.152 63.056zm19.54.126.188.318.126-.191a1.365 1.365.0 01-.188-.318C117.756 63.056 117.692 63.118 117.692 63.182zm-19.351-.633.063.062.062-.062c0-.065-.062-.065-.062-.128C98.4 62.484 98.341 62.484 98.341 62.549zm.439-.952c-.062.0.0.062.0.128.064-.066.126-.066.126-.128a.2.2.0 00-.062-.128C98.78 61.534 98.78 61.534 98.78 61.6zm.126-.318.062.065a.222.222.0 01.126-.065l-.062-.062A.217.217.0 0098.906 61.279zm1.319-.252a.963.963.0 00.251.19.488.488.0 01.126-.255 2.277 2.277.0 01.252-.571 6.907 6.907.0 01.439-1.015c.126-.254.314-.444.44-.7a5.188 5.188.0 01.438-.824l.19-.381c.377-.635.753-1.332 1.13-1.967.064-.063.126-.063.126-.128.188-.189.44-.38.5-.57a1.441 1.441.0 01.44-.634 9.372 9.372.0 00.627-.824v-.19c-.062.064-.124.064-.188.127l-.313.38c-.44.572-.942 1.142-1.383 1.777-.314.443-.564.95-.879 1.457.0.065-.125.128-.188.128.0-.063-.064-.19.0-.255a3.954 3.954.0 01.314-.76 20.228 20.228.0 013.142-3.805l.753-.571c-.314.318-.628.7-.942 1.078-.063.064-.063.192-.125.255.062.0.125-.063.188-.063a1.638 1.638.0 01.377-.318c.188-.19.188-.446.5-.508.188-.064.188-.318.0-.445a8.513 8.513.0 011.193-1.014c.691-.443 1.446-.76 2.2-1.142.064.0.064-.063.126-.063h-.188c-.69.318-1.382.57-2.073.952a16.413 16.413.0 00-4.9 4.883c-.629.824-1.067 1.775-1.634 2.6l-1.13 2.093v.316h.251a.8.8.0 01-.063.38c0 .065.063.065.063.128h-.126A.39.39.0 00100.226 61.027zM116 60.581c0 .064.062.129.126.192.062.0.062-.063.124-.128-.062-.126-.062-.19-.124-.253C116.058 60.455 116 60.519 116 60.581zm-16.838.192a.062.062.0 00.063-.063l-.063-.065zm.252-.635a.062.062.0 00.062.066c.064-.066.126-.128.126-.191s-.062-.063-.062-.127C99.472 60.012 99.472 60.075 99.41 60.137zm16.4-1.014.188.889c0 .063.062.063.126.125v-.188a3.74 3.74.0 01-.126-.888 11.592 11.592.0 01-.126-1.461.221.221.0 00-.062-.125c-.062-.064-.062-.064-.126-.064.0.0.064.064.0.064.0.063-.062.125-.062.189a.135.135.0 01-.126-.126l.188-.508v-.318h-.062c-.146.147-.208.06-.27-.027-.046-.063-.092-.126-.171-.1a.317.317.0 00.063-.191c.252.0.126-.191.126-.317a3.072 3.072.0 000-.761.688.688.0 01.063.316 2.4 2.4.0 01.063.636c0 .062.126.125.126.189.062-.064.126-.127.126-.189l-.19-.952c0-.063-.125-.063-.188-.127.063-.064.063-.128.063-.253v-.256h-.063c-.063.191-.189.318-.251.508a3.55 3.55.0 000 .824c0 .635-.188 1.334.251 1.9.063.063.0.189.063.253a3.285 3.285.0 00.125.826l.126.063.126-.191zm-13.006.7v.13c.064-.064.126-.064.126-.13l.172-.637A3.871 3.871.0 01102.8 59.819zm12.44-1.139a.2.2.0 01.063.126.062.062.0 00.063-.063.224.224.0 00-.063-.127A.062.062.0 01115.241 58.68zm1.13-2.475c0 .128.064.255.064.382.062.254-.064.571.062.824a.773.773.0 01.063.824.2.2.0 00.064.127.193.193.0 01.126-.063.294.294.0 000-.318 3.145 3.145.0 01-.064-.761c.126-.319-.251-.7.252-.95-.064-.066-.064-.066-.126-.066-.252.066-.188-.19-.252-.317.0-.063-.063-.063-.125-.063C116.436 55.953 116.372 56.079 116.372 56.205zm-15.895 1.966c0 .064.064.064.064.128a.862.862.0 01.188-.255.2.2.0 01-.062-.126zm.754-1.269c-.064.0-.064.0-.064.128.127-.128.19-.128.253-.255.062.0.0-.063.0-.125C101.357 56.713 101.231 56.776 101.231 56.9zm15.77.065h.062L117 56.9zm-18.471-.7v.062a.061.061.0 00.062-.062v-.066zm.188-.382v.065c.062.0.062-.065.126-.128H98.78A.061.061.0 0098.718 55.888zm3.518-.318c-.064.0-.064.0-.126.064a.063.063.0 00.062.065c.064.0.064-.065.19-.065-.045-.045-.058-.09-.084-.09C102.268 55.545 102.255 55.552 102.236 55.571zm-3.392-.125.062.063.126-.317A.929.929.0 0198.844 55.445zm3.643-.19.063.063c.063-.127.127-.191.189-.318.062.0.0-.062.0-.062A1.076 1.076.0 00102.488 55.256zM115.87 51.7c0 .126.126.317.064.381-.252.191-.064.318.0.508s.062.381.124.571c.126.445-.124.887.188 1.332.064.062.0.38.064.57a.239.239.0 01.062.192c0-.064.064-.064.064-.128.0-.254.0-.571.189-.7a.2.2.0 00.062-.128c0-.128-.062-.19-.189-.128-.062.0-.062-.127-.126-.127a1.782 1.782.0 00-.062-.57l-.188-1.078c0-.064.062-.064.124-.127.19.19.126.0.126-.065a5.749 5.749.0 00-.438-.634h-.064zM98.718 55.064l.062.064.126-.189a.062.062.0 00-.062-.065zm16.837-.57c.064.062.064.189.126.252v-.19a.217.217.0 01-.062-.124zm-12.566.062v.066c.064.0.064.0.064-.066v-.062A.062.062.0 01102.99 54.556zm-1.633-5.771a.488.488.0 00-.126.317l-.754 1.84c-.314.953-.691 1.9-1.067 2.855l-.189.825c.063-.066.127-.128.127-.128a3.02 3.02.0 01.564-1.205c0-.063-.126-.127-.062-.127a4.954 4.954.0 01.313-.887l.19-.38c.124-.319.188-.636.314-.89.25-.761.564-1.458.815-2.155.064-.065.0-.128.0-.193zm-1.885 5.771a1.646 1.646.0 01.252-.442l-.062-.065H99.6A1.466 1.466.0 0199.472 54.556zm-.439-.507c0 .065.062.065.125.192a2.821 2.821.0 01.063-.319.2.2.0 01-.126-.063A.235.235.0 0199.032 54.049zm16.335-.823v.254c.063.189.252.38.063.57l.063.127c.062.0.126.0.126-.062V53.86a1.742 1.742.0 00-.064-.571 1.345 1.345.0 00-.188-.317zm-11.623.254c-.063.0.0.062.0.127.126-.127.188-.255.25-.318l-.062-.063A.856.856.0 00103.745 53.48zM100.038 51.2l-.754 2.219v.126c.064-.062.064-.062.126-.126a13.591 13.591.0 01.5-1.459 5.807 5.807.0 01.251-.823l-.063-.065C100.1 51.134 100.038 51.134 100.038 51.2zm14.953.7c0 .189.062.443.062.7v.571c.064.0.064.064.126.064v-.064c0-.445-.062-.887-.062-1.333l-.064-.063A.222.222.0 00114.99 51.895zm.314.443c0 .127.063.189.063.317.063.0.063-.063.063-.128a2.656 2.656.0 01-.063-.317C115.367 52.275 115.3 52.275 115.3 52.338zm-14.576.127c-.062.0.0.062.0.127.0-.065.062-.065.062-.127.064-.127.064-.255.126-.381A2.077 2.077.0 00100.729 52.465zm4.209-.127a.845.845.0 01.188-.254l-.062-.064C105.064 52.146 105 52.21 104.938 52.338zm10.3-.508c0 .066.063.066.063.128.0-.062.0-.062.063-.128a.062.062.0 01-.063-.063A.062.062.0 00115.241 51.829zm-14.136-.508-.126.508a2.725 2.725.0 00.252-.443V51.2C101.167 51.259 101.105 51.322 101.105 51.322zm15.079.255V51.7a.238.238.0 00.062-.192.194.194.0 00-.062-.125zm-9.109-.318a1.139 1.139.0 00-.315.253c.063.0.127.128.127.128.124-.063.188-.191.376-.318a1.077 1.077.0 00-.172-.089C107.08 51.233 107.075 51.24 107.075 51.259zm-1.069-.062-.377.315a.063.063.0 00-.062.065l.062.063a5.944 5.944.0 01.5-.318c0-.125.0-.188-.062-.188A.062.062.0 00106.006 51.2zm2.325.125c-.062.065-.062.127-.126.19a.233.233.0 01.19-.063 3.266 3.266.0 01.5-.444l.062-.063v-.063H108.9zm6.6.0c.062.0.062.0.062.065a.062.062.0 01.062-.065l-.062-.063A.061.061.0 01114.928 51.322zM116 51.134V51.2c.062.0.062-.063.126-.063a.063.063.0 00-.064-.065A.062.062.0 00116 51.134zm-9.738-.065c.062.0.062.0.126.065V51C106.32 51.069 106.32 51.069 106.258 51.069zm9.3-.19a.232.232.0 00.064.19c0-.064.062-.127.126-.19l-.126-.192C115.619 50.753 115.556 50.816 115.556 50.879zm-15.33-.063.063.063c.064-.126.064-.318.126-.445zm6.472.0h.062v-.063H106.7zm-5.341-.129a.064.064.0 00.063.066.062.062.0 00.062-.066 1.175 1.175.0 00.126-.5A3.8 3.8.0 01101.357 50.687zm5.718-.062v-.064h-.064A.063.063.0 00107.075 50.625zm-6.66-.191c.062-.062.188-.128.188-.19a13.525 13.525.0 00.5-1.459A2.612 2.612.0 00100.415 50.434zm7.036-.128h.062a.061.061.0 00-.062-.062h-.062zm7.289-.634a.063.063.0 00.062.065 4.271 4.271.0 00.5.445c.063-.127.189-.193.189-.255-.063-.255-.189-.445-.252-.7h-.063C115.052 49.42 115.052 49.673 114.74 49.673zm-6.472.127h.062v-.062h-.062zm.5-.253.063-.064h-.063zm.377-.127v-.063h-.062C109.085 49.42 109.085 49.42 109.147 49.42zm5.655-.38h.062a.062.062.0 00-.062-.065zm-.252-.255c0 .065.0.065.064.127V48.85a.477.477.0 00-.064-.255zm.126-.19a.64.64.0 00.314.255v-.065c-.062-.19-.062-.318-.126-.38.0-.063-.124-.063-.188-.063zm-13.194-.952c-.125.317-.188.634-.315 1.014a6.162 6.162.0 00.441-.95v-.189C101.608 47.581 101.546 47.581 101.482 47.643zm.566-.506c-.126.316-.314.7-.44 1.078l.064.062c.062.0.124.0.124-.062l.376-1.015c-.062-.063-.062-.063-.062-.128C102.048 47.073 102.048 47.073 102.048 47.138zm12.126.381c-.063.063.061.125.126.189.062-.064.125-.064.125-.126s-.063-.128-.125-.191A.134.134.0 00114.174 47.518zm-.315-.508c.064.127.126.19.126.318a.063.063.0 00.062-.065c0-.126-.062-.191-.124-.318zM102.74 45.3a9.87 9.87.0 01-.5 1.205.376.376.0 01-.064.253c0 .065.064.065.064.128l.063-.063c.251-.571.44-1.079.69-1.588a.422.422.0 00-.148-.062C102.8 45.171 102.771 45.2 102.74 45.3zm-1.257.888c.064.0.064.0.126-.064a.061.061.0 00-.062-.064h-.064zm1.507-.953c0-.125.064-.189.064-.317h-.064zM127.371 72.25a1.479 1.479.0 01-.693-.379 4.74 4.74.0 01-1.632-1.711 5.661 5.661.0 01-.315-.954.943.943.0 01.377-1.014c.062-.062.314-.062.44-.062a14.3 14.3.0 006.094-1.332 5.048 5.048.0 002.513-2.6c.441-1.015.252-1.079-.69-1.015-1.068.065-2.2.254-3.33.254a5.927 5.927.0 01-3.079-.571 6.352 6.352.0 01-.942-.444c-.062.0-.314-.062-.062-.253l-.064-.127a4.744 4.744.0 01-1.256-.952 10.419 10.419.0 01-1.319-1.586 4.115 4.115.0 01-.566-2.282 8.818 8.818.0 011.822-4.946 26.2 26.2.0 014.208-4.567 50.5 50.5.0 015.467-4.186 12.272 12.272.0 011.193-.76l1.507-1.014c.44-.193.817-.572 1.383-.445.0.062.124-.064.188-.064s.189-.064.251.0l.5.509c1.131 1.014 2.325 2.092 3.456 3.169a4.5 4.5.0 011.382 2.284 1.611 1.611.0 01-.315 1.015.684.684.0 01-.816.38h-1.444a1.082 1.082.0 00-.44.062 44.618 44.618.0 00-4.838 3.109c-.628.508-1.382 1.015-2.073 1.523a30.25 30.25.0 00-3.832 3.678c-.126.063-.126.19-.188.317.126.0.188.065.314.065a12.274 12.274.0 014.271.633 4.622 4.622.0 012.89 2.537 1.873 1.873.0 01.252 1.015 3.457 3.457.0 01-.5 1.9c-.126.254-.188.572-.314.824.0.064-.062.064-.062.128a4.582 4.582.0 01-.629.887 7.677 7.677.0 01-1.067.951 4.18 4.18.0 01-.88.572c-.565.318-1.193.634-1.822.95a.194.194.0 01-.062.127c.376.191-.062.128-.062.256a.441.441.0 01-.252.125c-.063.0-.126-.063-.251-.063.062-.062.125-.127.188-.127l.189-.126h-.189a4.51 4.51.0 00-.878.253.216.216.0 00-.126.063.238.238.0 00-.064.192c.064.0.126.0.126-.063a.32.32.0 00.252-.129.967.967.0 01.062.382c0 .063-.188.126-.25.126-.19.0-.5.065-.441-.316-.126.0-.188-.063-.314.0a5.873 5.873.0 01-1.005.253 6.649 6.649.0 00-1.067.253c-.064.0-.126.0-.126.064a.216.216.0 00.126.064 5.355 5.355.0 002.828.0l.312-.128c-.062.064-.124.192-.188.254.126-.062.188.0.314-.062l1.005-.382a4.572 4.572.0 01.879-.253 1.812 1.812.0 00.5-.255.062.062.0 01.064-.063h-.126a1.377 1.377.0 00-.314.192c-.188-.062-.314-.062-.376-.129.126-.125.314-.316-.063-.442-.063.0-.063-.128-.063-.19h.188c.126.062.252.124.376.19a.121.121.0 00.19.0 6.477 6.477.0 001.005-.825c-.064.063-.126.063-.252.128.062-.065.0-.193.062-.255l.19-.128a.238.238.0 01.062.19c.5-.125.691-.57 1.067-.887.064-.063.064-.252.126-.38s.377-.064.252-.317h.125a.365.365.0 00.378-.381c0-.19.0-.381.25-.445a.28.28.0 00.189-.254c.188-.7.44-1.331.566-2.029a7.81 7.81.0 00-.064-1.2v-.255c.064.062.188.127.188.19a2.449 2.449.0 01.314 1.649c-.062.127.064.318.064.507a1.887 1.887.0 01-.126.571.235.235.0 00.062.19c0-.063.064-.063.126-.127l.377-1.268.064-.063a.216.216.0 01.124.063l.19.762a6.2 6.2.0 01-1.069 4.311 12.712 12.712.0 01-4.461 4.124 7.785 7.785.0 01-2.7.7 3.051 3.051.0 00-.753.128 4.677 4.677.0 01-.865.077A9.076 9.076.0 01127.371 72.25zM136.1 67.3c-.755.443-1.445.95-2.137 1.395.0.063.0.063-.064.128.064-.065.126.0.19-.065.565-.316 1.13-.7 1.759-1.015l.376-.38v-.19C136.165 67.241 136.1 67.241 136.1 67.3zm-8.985 1.079a3.386 3.386.0 001.57.379l.064-.063c0-.063-.064-.128-.064-.19a.233.233.0 01-.062-.188c-.062.0.062-.067.062-.067h-.124a.49.49.0 00-.252.129h-.251c-.063.0-.126-.129-.251-.129h-.754C127.056 68.322 127.119 68.322 127.119 68.384zm2.513-.192c-.062.0-.062.0-.062.063h.124l.064-.063V68.13C129.694 68.13 129.694 68.13 129.632 68.192zm4.4-.19c.064.063.064.063.126.063.0-.063.062-.063.062-.126l-.062-.065a.135.135.0 01-.125.131zm.817-.507v.062l-.376.19c-.063.0-.063.066-.063.127h.125c0 .128.064.191.188.065l1.069-.761v-.127h-.126a.869.869.0 01-.377.127v.063c-.064.0-.126.064-.252.064.122.185.068.249-.221.312a.07.07.0 00.033-.059.872.872.0 01.181-.246zm1.633-.634v.127h.063a2.154 2.154.0 00.88-.952c-.44.065-.44.065-.314-.19a.235.235.0 01.062-.19l-.188.128c-.252.252-.5.443-.755.7l-.314.38c.19.0.314-.063.5-.063.062-.065.062-.065.125-.065C136.543 66.8 136.543 66.8 136.48 66.861zm1.445-1.9a1.548 1.548.0 01-.251.445.647.647.0 00-.25.633 3.807 3.807.0 00.565-.824.534.534.0 00.126-.443zm.252-.318a.5.5.0 00.252-.253l-.064-.064A1.375 1.375.0 01138.176 64.641zm-1.7.0a.061.061.0 01.063-.063h-.063zm.315-.507c.062.0.062.0.062-.062A.061.061.0 00136.795 64.134zm.376-.635a.061.061.0 01.062.064c0-.064.0-.064.064-.128v-.062zm-7.225-1.966c.189.0.315-.065.441-.065-.126.0-.252-.062-.441-.062h-.5A4.981 4.981.0 01129.946 61.534zm-1.76-.127a.224.224.0 01.126-.063h-.251C128.124 61.344 128.124 61.407 128.186 61.407zm-1.444-7.927c-.126.317-.188.634-.314 1.014.0.062.0.062.126.062l.062.066a1.521 1.521.0 00-.188.886l.188 1.014a4.4 4.4.0 01.314-2.536.8.8.0 01.063-.38c0-.065.063-.127.126-.191-.063.0-.126-.064-.189-.064S126.742 53.416 126.742 53.48zm.879.38a.2.2.0 00.063.127 3.53 3.53.0 01.377-.507.219.219.0 01-.126-.064A1.91 1.91.0 00127.621 53.86zm.565-.761c.064.064.064.064.126.064V53.1l-.062-.063A.062.062.0 01128.186 53.1zm-1.193.0h.063v-.063h-.063zm.378-.761v.127a.959.959.0 01.062.445c.377-.445.691-.889 1.005-1.333l.879-.951a.709.709.0 00-.062-.319v-.124a.387.387.0 01-.064-.255l-.188.189c-.063.066-.063.066-.127.128-.062.128-.376.19-.124.508a.223.223.0 01-.126.063 4.636 4.636.0 00-.565.506 2.156 2.156.0 00-.314.888c-.063.128-.063.317-.252.128.0-.021-.007-.028-.018-.028S127.412 52.338 127.371 52.338zm1.005.507c.062.0.062.0.062-.063h-.062zm2.89-.19c0-.063.062-.063.062-.128C131.266 52.592 131.266 52.592 131.266 52.655zm-2.389-.509a1.484 1.484.0 00-.188.319.2.2.0 00-.062.127.223.223.0 01.126.063c.124-.19.314-.317.5-.571a.23.23.0 00-.189-.064C129 52.02 128.94 52.084 128.876 52.146zm2.892-.126a.061.061.0 01.062.064c.062-.064.062-.064.062-.127v-.062zm-2.325-.571a.222.222.0 00-.062.128c-.064.063.0.127.062.19h.062l.755-.761a.062.062.0 00-.064-.063h-.062C129.883 51.134 129.694 51.259 129.443 51.449zM132.9 51a.062.062.0 01-.062.064h.126a1.631 1.631.0 01.377-.316l-.063-.066C133.15 50.816 133.024 50.879 132.9 51zm-2.011-1.015-.69.571c0 .064.0.126-.062.126h.188c.064-.062.126-.189.252-.189.188.0.564-.254.564-.443.0.0.0-.066-.062-.066a.137.137.0 00-.095-.047A.139.139.0 00130.887 49.99zm.252-1.712c-.125.318-.69.19-.69.634a.061.061.0 00-.062.063 4.682 4.682.0 00-.755.445 1.217 1.217.0 00-.126.508v.317c.064-.062.188-.062.252-.128.125-.127.377-.252.377-.379.062-.445.564-.508.752-.887a.063.063.0 00.064-.065 2.488 2.488.0 00.565-.318v-.062a.328.328.0 00.126-.253.2.2.0 00.062-.127.3.3.0 00-.188-.066A.971.971.0 00131.139 48.278zm2.89 1.778h.064l.062-.066C134.093 49.99 134.093 50.055 134.029 50.055zm-1.255-1.65-1.005.762a1.679 1.679.0 00-.44.5c-.062.0.0.127.0.192h.064a5.821 5.821.0 00.626-.572l.567-.442a3.525 3.525.0 00.5-.382c.062.0.062-.062.062-.125a.222.222.0 01-.126-.065A.323.323.0 00132.773 48.406zm-3.582.824a.2.2.0 01-.062.127c.126-.065.188-.127.188-.189V49.1C129.317 49.168 129.255 49.168 129.191 49.23zm5.907-2.6c-.628.445-1.2.825-1.759 1.27l-.127.19a.47.47.0 00.253.065c.188-.127.314-.318.438-.382.5-.38.943-.7 1.445-1.014.064.0.064-.128.127-.128a.237.237.0 00-.189-.061A.232.232.0 00135.1 46.628zm-4.712 1.4c.062.0.062-.066.124-.066a.062.062.0 00.064-.062h-.064zm2.01-.319c.063-.126.5-.126.0-.317v-.062c0-.065.063-.065.125-.128h.126l-.126-.128a.218.218.0 01-.062-.127c.062.0.062.0.126-.062a1.615 1.615.0 00.5-.191c.062.0.062-.065.062-.126a.234.234.0 00-.188.061h-.126c.062-.189-.062-.061-.126.0l-.941.762c-.064.063-.064.253-.064.317h.252c.062-.064.126-.126.188-.126C132.207 47.707 132.207 47.9 132.4 47.707zm.565-.57V47.2c0 .063.0.063.062.063a6.55 6.55.0 00.755-.635h-.064A5.213 5.213.0 00132.962 47.138zm-.943-.634.064.064c.062.0.125-.064.251-.128-.126.0-.126-.064-.189-.064zm7.163-2.157a14.955 14.955.0 00-1.759.824 2.083 2.083.0 00-.628.381c-.064.0-.126.063-.189.063.189.193.0.193-.126.255-.126.126-.314.126-.5.254-.126.064-.252.064-.377.127a.643.643.0 00.063.19c.126-.064.314-.064.44-.127l1.444-.887c.188-.127.44-.255.628-.381.44-.191.879-.445 1.257-.635l.062-.064-.062-.062A.484.484.0 01139.181 44.346zm-6.094 1.967v.063c.062-.063.062-.063.062-.126C133.15 46.312 133.15 46.312 133.088 46.312zm1.005-.063v.063c.062-.063.188-.063.251-.126C134.281 46.186 134.217 46.249 134.093 46.249zm-.817-.063c.189.189.439.063.627-.064.064-.064.064-.128.126-.128h-.25v-.126l.314-.381C133.779 45.742 133.527 45.995 133.276 46.186zm-.816.0a.061.061.0 00.062-.064H132.4A.062.062.0 00132.459 46.186zm.376-.38c.062.062.062.062.126.062a.871.871.0 01.25-.189.2.2.0 00-.062-.129A1.106 1.106.0 01132.836 45.806zm1.634-.193c.062.0.062-.063.126-.063h-.189zm.438-.444-.124.192c.25-.192.564-.382.816-.571A6.744 6.744.0 01134.908 45.17zm-.376.063c.126-.063.188-.063.252-.125v-.064A.866.866.0 01134.532 45.233zm-.629-.189h.064V44.98C133.967 45.044 133.967 45.044 133.9 45.044zm2.451-.825h.126v-.063A.223.223.0 00136.354 44.219zm1.131-.19c-.062.064-.062.127-.126.127h.189c.125-.063.188-.19.314-.254C137.736 43.966 137.611 43.966 137.485 44.029zm-.376-.318.062.065c.062-.065.126-.128.188-.128.0-.064.0-.064-.062-.064S137.171 43.648 137.109 43.711zm-.19-.252v.062c.064.0.064-.062.126-.062a.062.062.0 00-.062-.066C136.919 43.394 136.919 43.394 136.919 43.459zm.692-.066v.066a.809.809.0 01.251-.191C137.736 43.331 137.673 43.331 137.611 43.394zm-.754-.57a.224.224.0 00.126-.062A.2.2.0 00136.857 42.824zm1.7-.255.126.193a.062.062.0 01.063-.064c0-.064-.063-.129-.125-.192A.062.062.0 01138.552 42.569zm-.438.0a.229.229.0 01.062.129.844.844.0 01.252-.192.218.218.0 01-.126-.061C138.238 42.445 138.176 42.506 138.114 42.569zm.5-.316s0 .064.062.0h.063a.062.062.0 01-.063-.064zm-93.684 30a1.482 1.482.0 01-.691-.379 4.728 4.728.0 01-1.633-1.711 5.576 5.576.0 01-.314-.954.94.94.0 01.377-1.014c.062-.062.314-.062.44-.062A14.3 14.3.0 0049.206 66.8a5.048 5.048.0 002.513-2.6c.44-1.015.25-1.079-.691-1.015-1.069.065-2.2.254-3.33.254a5.924 5.924.0 01-3.078-.571 6.352 6.352.0 01-.942-.444c-.063.0-.315-.062-.063-.253l-.064-.127a4.754 4.754.0 01-1.256-.952A10.367 10.367.0 0140.975 59.5a4.114 4.114.0 01-.565-2.282 8.816 8.816.0 011.821-4.946 26.177 26.177.0 014.211-4.567 50.205 50.205.0 015.465-4.186 12.493 12.493.0 011.193-.76l1.508-1.014c.44-.193.816-.572 1.382-.445.0.062.126-.064.19-.064s.188-.064.25.0l.5.509c1.131 1.014 2.325 2.092 3.456 3.169A4.5 4.5.0 0161.771 47.2a1.616 1.616.0 01-.314 1.015.685.685.0 01-.817.38H59.2a1.086 1.086.0 00-.441.062 44.784 44.784.0 00-4.837 3.109c-.629.508-1.382 1.015-2.073 1.523a30.379 30.379.0 00-3.833 3.678c-.126.063-.126.19-.188.317.125.0.188.065.314.065a12.279 12.279.0 014.272.633A4.621 4.621.0 0155.3 60.519a1.858 1.858.0 01.252 1.015 3.464 3.464.0 01-.5 1.9c-.126.254-.188.572-.315.824.0.064-.062.064-.062.128a4.54 4.54.0 01-.628.887 7.641 7.641.0 01-1.069.951 4.106 4.106.0 01-.879.572c-.564.318-1.193.634-1.822.95a.193.193.0 01-.063.127c.377.191-.062.128-.062.256a.441.441.0 01-.252.125c-.062.0-.126-.063-.25-.063.062-.062.124-.127.188-.127l.188-.126h-.188a4.59 4.59.0 00-.881.253.216.216.0 00-.124.063.238.238.0 00-.064.192c.064.0.126.0.126-.063a.32.32.0 00.252-.129.954.954.0 01.063.382c0 .063-.189.126-.253.126-.188.0-.5.065-.438-.316-.126.0-.188-.063-.314.0A5.894 5.894.0 0147.2 68.7a6.626 6.626.0 00-1.067.253c-.064.0-.126.0-.126.064a.216.216.0 00.126.064 5.345 5.345.0 002.825.0l.315-.128c-.062.064-.125.192-.189.254.127-.062.189.0.315-.062l1.005-.382a4.536 4.536.0 01.879-.253 1.8 1.8.0 00.5-.255.062.062.0 01.064-.063h-.126a1.4 1.4.0 00-.314.192c-.188-.062-.315-.062-.377-.129.126-.125.314-.316-.064-.442-.062.0-.062-.128-.062-.19h.188c.127.062.252.124.378.19a.12.12.0 00.189.0 6.563 6.563.0 001.005-.825c-.064.063-.126.063-.252.128.063-.065.0-.193.063-.255l.189-.128a.238.238.0 01.062.19c.5-.125.69-.57 1.067-.887.064-.063.064-.252.126-.38s.376-.064.252-.317h.124a.364.364.0 00.378-.381c0-.19.0-.381.251-.445a.282.282.0 00.188-.254c.188-.7.44-1.331.566-2.029a7.81 7.81.0 00-.063-1.2v-.255c.063.062.188.127.188.19a2.449 2.449.0 01.314 1.649c-.062.127.064.318.064.507a1.887 1.887.0 01-.126.571.235.235.0 00.062.19c0-.063.064-.063.126-.127l.376-1.268.064-.063a.22.22.0 01.125.063l.188.762a6.19 6.19.0 01-1.067 4.311 12.725 12.725.0 01-4.46 4.124 7.8 7.8.0 01-2.7.7 3.065 3.065.0 00-.753.128 4.672 4.672.0 01-.865.077A9.084 9.084.0 0144.933 72.25zM53.667 67.3c-.755.443-1.446.95-2.137 1.395.0.063.0.063-.063.128.063-.065.125.0.189-.065.564-.316 1.129-.7 1.758-1.015l.377-.38v-.19C53.729 67.241 53.667 67.241 53.667 67.3zm-8.986 1.079a3.39 3.39.0 001.57.379l.064-.063c0-.063-.064-.128-.064-.19a.233.233.0 01-.062-.188c-.062.0.062-.067.062-.067h-.124a.489.489.0 00-.253.129h-.25c-.064.0-.126-.129-.252-.129h-.753C44.619 68.322 44.681 68.322 44.681 68.384zm2.514-.192c-.063.0-.063.0-.063.063h.125l.064-.063V68.13C47.257 68.13 47.257 68.13 47.2 68.192zm4.4-.19c.064.063.064.063.126.063.0-.063.062-.063.062-.126l-.062-.065A.135.135.0 0151.593 68zm.817-.507v.062l-.377.19c-.064.0-.064.066-.064.127h.126c0 .128.064.191.189.065l1.068-.761v-.127h-.126a.874.874.0 01-.376.127v.063c-.064.0-.126.064-.252.064.122.185.068.249-.221.312a.07.07.0 00.033-.059.891.891.0 01.182-.246zm1.633-.634v.127h.062a2.132 2.132.0 00.879-.952c-.438.065-.438.065-.313-.19a.235.235.0 01.062-.19l-.187.128c-.253.252-.5.443-.755.7l-.313.38c.189.0.313-.063.5-.063.064-.065.064-.065.126-.065C54.105 66.8 54.105 66.8 54.043 66.861zm1.445-1.9a1.618 1.618.0 01-.252.445.652.652.0 00-.252.633 3.747 3.747.0 00.566-.824.534.534.0 00.126-.443zm.25-.318a.485.485.0 00.251-.253l-.062-.064A1.344 1.344.0 0155.739 64.641zm-1.7.0a.061.061.0 01.062-.063h-.062zm.314-.507c.062.0.062.0.062-.062A.061.061.0 0054.357 64.134zm.376-.635a.062.062.0 01.063.064c0-.064.0-.064.064-.128v-.062zm-7.224-1.966c.188.0.314-.065.439-.065-.125.0-.251-.062-.439-.062h-.5A4.981 4.981.0 0147.509 61.534zm-1.76-.127a.224.224.0 01.126-.063h-.25C45.687 61.344 45.687 61.407 45.749 61.407zM44.305 53.48c-.126.317-.188.634-.314 1.014.0.062.0.062.126.062l.062.066a1.521 1.521.0 00-.188.886l.188 1.014a4.4 4.4.0 01.314-2.536.813.813.0 01.062-.38c0-.065.064-.127.126-.191-.062.0-.126-.064-.188-.064S44.305 53.416 44.305 53.48zm.879.38a.2.2.0 00.062.127 3.531 3.531.0 01.378-.507.216.216.0 01-.126-.064A1.857 1.857.0 0045.185 53.86zm.564-.761c.064.064.064.064.126.064V53.1l-.062-.063A.062.062.0 0145.749 53.1zm-1.193.0h.064v-.063h-.064zm.377-.761v.127a.934.934.0 01.064.445c.376-.445.69-.889 1.005-1.333l.878-.951a.709.709.0 00-.062-.319v-.124a.387.387.0 01-.064-.255l-.188.189c-.062.066-.062.066-.124.128-.064.128-.378.19-.126.508a.224.224.0 01-.126.063 4.57 4.57.0 00-.565.506 2.156 2.156.0 00-.314.888c-.064.128-.064.317-.252.128.0-.021-.007-.028-.018-.028S44.975 52.338 44.933 52.338zm1.005.507c.064.0.064.0.064-.063h-.064zm2.891-.19c0-.063.062-.063.062-.128C48.829 52.592 48.829 52.592 48.829 52.655zm-2.387-.509a1.411 1.411.0 00-.19.319.2.2.0 00-.062.127.224.224.0 01.126.063c.126-.19.314-.317.5-.571a.229.229.0 00-.188-.064C46.566 52.02 46.5 52.084 46.442 52.146zm2.89-.126a.061.061.0 01.062.064c.064-.064.064-.064.064-.127v-.062C49.394 51.957 49.394 51.957 49.332 52.02zm-2.325-.571a.22.22.0 00-.064.128c-.063.063.0.127.064.19h.062L47.823 51a.062.062.0 00-.064-.063H47.7C47.447 51.134 47.257 51.259 47.007 51.449zM50.463 51a.063.063.0 01-.064.064h.126a1.647 1.647.0 01.376-.316l-.062-.066C50.713 50.816 50.587 50.879 50.463 51zm-2.011-1.01-.693.571c0 .064.0.126-.062.126h.188c.063-.062.126-.189.252-.189.189.0.565-.254.565-.443.0.0.0-.066-.062-.066a.139.139.0 00-.095-.047A.134.134.0 0048.452 49.99zm.25-1.712c-.126.318-.691.19-.691.634a.062.062.0 00-.063.063 4.747 4.747.0 00-.753.445 1.2 1.2.0 00-.126.508v.317c.063-.062.188-.062.252-.128.126-.127.376-.252.376-.379.062-.445.565-.508.755-.887a.062.062.0 00.062-.065 2.483 2.483.0 00.564-.318v-.062a.329.329.0 00.127-.253.2.2.0 00.062-.127.3.3.0 00-.189-.066A.949.949.0 0048.7 48.278zm2.89 1.778h.064l.062-.066C51.656 49.99 51.656 50.055 51.593 50.055zm-1.256-1.65-1.005.762a1.669 1.669.0 00-.441.5c-.062.0.0.127.0.192h.062a5.613 5.613.0 00.629-.572l.566-.442a3.487 3.487.0 00.5-.382c.062.0.062-.062.062-.125a.222.222.0 01-.126-.065A.326.326.0 0050.337 48.406zm-3.583.824a.2.2.0 01-.062.127c.126-.065.188-.127.188-.189V49.1C46.88 49.168 46.818 49.168 46.754 49.23zm5.908-2.6c-.629.445-1.194.825-1.76 1.27l-.126.19a.464.464.0 00.252.065c.189-.127.314-.318.44-.382.5-.38.942-.7 1.444-1.014.062.0.062-.128.126-.128a.236.236.0 00-.188-.061A.232.232.0 0052.662 46.628zm-4.713 1.4c.063.0.063-.066.126-.066a.061.061.0 00.063-.062h-.063zm2.01-.319c.064-.126.5-.126.0-.317v-.062c0-.065.064-.065.127-.128h.125l-.125-.128a.217.217.0 01-.063-.127c.063.0.063.0.126-.062a1.594 1.594.0 00.5-.191c.062.0.062-.065.062-.126a.234.234.0 00-.188.061H50.4c.064-.189-.062-.061-.126.0l-.941.762c-.064.063-.064.253-.064.317h.252c.062-.064.126-.126.188-.126C49.77 47.707 49.77 47.9 49.958 47.707zm.567-.57V47.2c0 .063.0.063.062.063a6.544 6.544.0 00.754-.635h-.063A5.164 5.164.0 0050.525 47.138zm-.943-.634.064.064c.062.0.124-.064.25-.128-.126.0-.126-.064-.188-.064zm7.162-2.157a15.1 15.1.0 00-1.76.824 2.1 2.1.0 00-.627.381c-.064.0-.126.063-.188.063.188.193.0.193-.126.255-.126.126-.314.126-.5.254-.127.064-.253.064-.377.127a.649.649.0 00.062.19c.126-.064.315-.064.441-.127l1.444-.887c.188-.127.44-.255.628-.381.441-.191.879-.445 1.256-.635l.064-.064L57 44.284A.476.476.0 0156.744 44.346zm-6.093 1.967v.063c.062-.063.062-.063.062-.126C50.713 46.312 50.713 46.312 50.651 46.312zm1.005-.063v.063c.062-.063.188-.063.25-.126C51.845 46.186 51.781 46.249 51.656 46.249zm-.817-.063c.188.189.439.063.628-.064.063-.064.063-.128.125-.128h-.251v-.126l.315-.381C51.341 45.742 51.089 45.995 50.839 46.186zm-.817.0a.062.062.0 00.063-.064h-.127A.063.063.0 0050.022 46.186zm.377-.38c.064.062.064.062.126.062a.87.87.0 01.25-.189.2.2.0 00-.062-.129A1.106 1.106.0 0150.4 45.806zm1.633-.193c.062.0.062-.063.126-.063h-.19zm.44-.444-.126.192c.251-.192.565-.382.817-.571A7.022 7.022.0 0152.473 45.17zm-.378.063c.126-.063.189-.063.252-.125v-.064A.854.854.0 0152.095 45.233zm-.627-.189h.063V44.98C51.53 45.044 51.53 45.044 51.467 45.044zm2.45-.825h.126v-.063A.216.216.0 0053.917 44.219zm1.131-.19c-.064.064-.064.127-.126.127h.188c.126-.063.188-.19.314-.254C55.3 43.966 55.174 43.966 55.049 44.029zm-.377-.318.062.065c.063-.065.127-.128.189-.128.0-.064.0-.064-.062-.064S54.734 43.648 54.671 43.711zm-.188-.252v.062c.063.0.063-.062.125-.062a.062.062.0 00-.062-.066C54.483 43.394 54.483 43.394 54.483 43.459zm.691-.066v.066a.8.8.0 01.25-.191C55.3 43.331 55.237 43.331 55.174 43.394zm-.755-.57a.221.221.0 00.127-.062A.2.2.0 0054.419 42.824zm1.7-.255.126.193A.061.061.0 0156.3 42.7c0-.064-.062-.129-.124-.192A.062.062.0 0156.116 42.569zm-.439.0a.229.229.0 01.062.129.875.875.0 01.251-.192.218.218.0 01-.124-.061C55.8 42.445 55.739 42.506 55.677 42.569zm.5-.316s0 .064.062.0H56.3a.062.062.0 01-.062-.064zm94.187 26.891a.223.223.0 01.064-.128v.064c0 .064.0.064-.064.19zm-21.049-.064-.062-.064h.126v.064zm-82.437.0-.062-.064h.125v.064zm83.066-.064c-.063.0-.126-.064-.188-.064.062-.062.125-.125.188-.125.0.063.062.125.126.189-.043.0-.057.028-.08.028S129.966 69.038 129.946 69.017zm-82.436.0c-.062.0-.126-.064-.188-.064.062-.062.126-.125.188-.125.0.063.062.125.126.189-.043.0-.057.028-.08.028S47.53 69.038 47.509 69.017zm84.7-.507c.063-.063.189-.126.252-.063.126.19.314.063.438.0.064-.063.126.0.19.0-.064.0-.064.063-.126.063a4.763 4.763.0 01-1.005.443C132.018 68.763 132.4 68.763 132.207 68.51zm-1.193.443a.061.061.0 00.063-.062v.062zM49.77 68.51c.064-.063.188-.126.252-.063.126.19.315.063.441.0.062-.063.124.0.188.0-.064.0-.064.063-.126.063a4.8 4.8.0 01-1.005.443C49.582 68.763 49.958 68.763 49.77 68.51zm-1.193.443a.061.061.0 00.064-.062v.062zm127.8-.062c-1.759-.319-2.387-1.586-2.638-3.107l-.188-2.094a37.8 37.8.0 01.753-5.961 36.9 36.9.0 012.011-7.295c.252-.7.5-1.332.817-2.029l.188-.887c.062-.065.062-.128.126-.255.25-.38.5-.888 1.131-.824a4.04 4.04.0 01.691.189 9.332 9.332.0 001.444.445 4.163 4.163.0 012.892 1.778 2.2 2.2.0 01.25 1.266 13.506 13.506.0 01-.817 4.44c-.816 2.284-1.508 4.631-2.325 6.978a20.6 20.6.0 01-1.7 3.805 16.966 16.966.0 00-1.005 1.839.235.235.0 00-.062.19h.25c.064.0.064-.063.126-.127.126.0.188-.063.314-.063.0.127.062.255.0.38a.481.481.0 01-.126.256c-.5.379-1.005.759-1.507 1.077a1.021 1.021.0 01-.314.047A1.034 1.034.0 01176.379 68.891zm.126-3.615a2.359 2.359.0 00.064.7 1.519 1.519.0 00.124.508 4.4 4.4.0 01.127-.446v-.252a2.656 2.656.0 00-.189-.508c0-.064.0-.064-.062-.127A.223.223.0 01176.505 65.275zm1.193-.887c0 .253-.062.571-.062.951a.2.2.0 00.062.126c0-.062.064-.126.064-.19a4.373 4.373.0 00.125-.887c.064-.064.0-.128-.063-.191C177.825 64.26 177.7 64.324 177.7 64.388zm-.878.951a.062.062.0 00.062.064v-.064a.062.062.0 00-.062-.064S176.757 65.339 176.82 65.339zm.25-2.6V64.2a.193.193.0 00.064-.125 9.7 9.7.0 00.126-1.334c0-.064-.064-.127-.064-.189C177.134 62.611 177.071 62.674 177.071 62.738zm.628 1.078c.126.063.189.128.253.128.062-.065.062-.128.124-.255l-.062-.062C177.888 63.689 177.825 63.752 177.7 63.816zm.441-.951c0 .064.062.126.062.253.064-.127.064-.127.064-.189v-.191zm-.252.064v.062c.064.0.064-.062.126-.062-.062-.064-.062-.064-.062-.127C177.952 62.865 177.888 62.865 177.888 62.929zm.44-.952v.383c0-.128.062-.191.126-.318a1.81 1.81.0 00.062-.572h-.062C178.39 61.659 178.39 61.787 178.328 61.977zm-.817-3.741-.188 1.65a.235.235.0 00.062.19c.126.255.19.7.0.887-.25.127-.188.317-.188.507a3.6 3.6.0 00.064.826l.062.064c0-.064.0-.064.062-.128.064-.507.19-1.08.252-1.651.126-.761.251-1.583.315-2.345a.844.844.0 00-.189.255l-.188 1.2c0 .064-.064.064-.064.125-.062-.061-.062-.061-.062-.125v-.254a7.537 7.537.0 01.25-1.141l-.062-.255C177.637 58.108 177.511 58.172 177.511 58.235zm1.069 2.156a.473.473.0 01-.064.253c.064.0.064.065.064.128a.238.238.0 00.062-.192.233.233.0 00.062-.189V60.2C178.642 60.265 178.58 60.33 178.58 60.392zm-1.257.0v.063l.062-.063-.062-.062zm.629-2.156a4.372 4.372.0 00.124-.887v-.065h-.124A2.385 2.385.0 00177.952 58.235zm1.13-.38v.063l.064-.063a.063.063.0 00-.064-.064zm-1.444-.127c-.062.063.0.063.0.127.0-.064.062-.064.062-.127l.178-1.015C177.811 57.073 177.7 57.429 177.637 57.729zm.439-1.016a.23.23.0 00.064.19c0-.127.062-.19.126-.316a.219.219.0 00-.064-.127A.47.47.0 01178.076 56.713zm-.188-.126v.064a.063.063.0 00.064-.064V56.46A.219.219.0 00177.888 56.587zm.566-1.648a1.2 1.2.0 01-.314.632 1.076 1.076.0 00-.126.318.33.33.0 00.126.255c.062-.064.188-.064.188-.128L178.516 55v-.127A.063.063.0 00178.454 54.939zm.062-1.142a.235.235.0 00-.062.19v.255l.25-.192c-.188.0-.124-.127-.124-.253.062.0.0-.065.0-.128C178.58 53.732 178.516 53.732 178.516 53.8zm.376-.7v.191a.2.2.0 01.127-.063v-.254c-.063.0-.063.063-.127.063a.484.484.0 01.127-.254c0-.064.062-.064.062-.127l-.062-.063c-.063.063-.127.063-.127.126a.491.491.0 00-.124.255V53.1c.062.0.062-.063.124-.063zm.064-.761.189.127c0-.063.062-.063.062-.127l-.126-.192C179.019 52.21 179.019 52.275 178.956 52.338zM130.449 68.7c.062.0.062-.063.126-.063s.062.063.188.063l-.126.128C130.575 68.827 130.511 68.763 130.449 68.7zm-82.437.0c.063.0.063-.063.126-.063s.063.063.189.063l-.126.128C48.137 68.827 48.074 68.763 48.011 68.7zm39.018.0c.064-.063.064-.128.188-.253.0.063.064.125.0.125.0.065-.062.128-.124.191A.062.062.0 0187.029 68.7zm45.995-.57h.064l-.064.062zm-82.436.0h.064l-.064.062zm84.226-.513a.064.064.0 01-.029.006zm-82.437.0a.066.066.0 01-.03.006zm81.778-.121a.061.061.0 01.062-.063c.064.0.064.0.127.063a.225.225.0 00-.127.062zm-82.436.0a.061.061.0 01.062-.063c.064.0.064.0.126.063a.225.225.0 00-.126.062zm82.751-.38a.241.241.0 01.062-.193c0-.062.0-.062.064-.062l-.064-.063h.064v.125a.237.237.0 01-.064.193zm-82.437.0a.241.241.0 01.062-.193c0-.062.0-.062.064-.062l-.064-.063h.064v.125a.237.237.0 01-.064.193zm83.443-.572h.062v.065A.063.063.0 00135.475 66.543zm-82.437.0H53.1v.065A.063.063.0 0053.038 66.543zm83.693-.126h.064a.063.063.0 01-.064.064zm-82.437.0h.064a.063.063.0 01-.064.064zm63.273-4.186a6 6 0 01-.251-.824 1.067 1.067.0 01.126-.318c.062.062.188.128.188.19l.189.952c0 .064-.062.128-.062.253C117.692 62.359 117.566 62.3 117.566 62.231zm-29.846.19.064-.062c0 .062.062.062.0.062.0.063.0.063-.064.063zm.188-.38a.063.063.0 00.064-.065V62.1A.062.062.0 0087.908 62.042zm29.281-1.269c-.126-.57-.188-1.142-.314-1.712a.5.5.0 01.126-.255c.062.064.188.064.25.192a.926.926.0 01.064.443l.188 1.394s-.062.065-.126.128C117.315 60.9 117.189 60.9 117.189 60.773zm-16.9-.508a.882.882.0 01.188-.253c0-.127.064-.193.064-.254.062-.128.062-.255.126-.382h.124c.126.127.126.254.0.443a3.867 3.867.0 00-.25.51c-.034.051-.064.07-.09.07C100.381 60.4 100.335 60.265 100.289 60.265zm-33.364-.571h.063l-.063.064zm36.253-1.65c.064.0.064-.063.126-.063.0.063.0.063-.062.126-.188.318-.376.7-.564 1.08C102.866 58.806 102.99 58.425 103.178 58.045zm-2.2.888a1.369 1.369.0 00.252-.317l.126.127c-.063.127-.19.19-.252.318C101.105 59.061 100.979 59 100.979 58.933zm-.25.065c.062.0.062-.065.126-.065.0.0.062.065.0.065.0.063.0.063-.064.063A.061.061.0 01100.729 59zm1.633-.128h.062l-.062.063zm.125-.317V58.49h.063v.063zm-1.13-.254.125-.128.126.128-.126.126A.135.135.0 01101.357 58.3zm14.2-.255a.483.483.0 01.064-.189 2.519 2.519.0 00.126.38c0 .064-.064.064-.126.127C115.619 58.235 115.556 58.172 115.556 58.045zm-13.947-.189v-.127a2.751 2.751.0 01.252-.445l.188-.191c0 .064.124.191.062.256l-.376.57a.061.061.0 01-.062.063C101.608 57.919 101.608 57.919 101.608 57.856zm13.633-.635c0-.128.0-.128.063-.191a2.739 2.739.0 01.063.319.2.2.0 01-.063.126C115.3 57.349 115.241 57.284 115.241 57.221zm-11.183-.508.062-.062v.125zm.188-.38.188-.254h.063a1.362 1.362.0 01-.189.317c0 .064-.062.064-.126.127C104.247 56.4 104.247 56.4 104.247 56.333zm73.893-.445v-.318c.062.064.062.064.126.064a.919.919.0 01-.126.381zm-21.8-.318h.314l-.252.064zm.377-.252h.126a.23.23.0 00-.064.19c-.062.0-.062.062-.125.062zm-51.774.062-.062.065A.063.063.0 01104.938 55.381zm.44-.634a5.3 5.3.0 01-.44.634A3.943 3.943.0 01105.378 54.746zm-.88.318a.911.911.0 01.251-.19.389.389.0 00-.062.254l-.189.191zm1.005-.508v.066l-.063.061C105.44 54.622 105.44 54.622 105.5 54.556zm53.031-.315h.063l-.063.063zm-.942.0h.063V54.3A.062.062.0 00157.592 54.241zm1.571-.445c.062.0.062-.065.126-.065V53.8a.062.062.0 01-.064.063A.061.061.0 00159.163 53.8zm.314-.19c.062.0.062.0.124-.065v.065a.061.061.0 01-.062.062zm.376-.191h.127a.23.23.0 00-.19.064A.062.062.0 01159.854 53.416zm.251-.064h.064c-.064.0-.126.064-.188.064A.215.215.0 00160.1 53.352zm-53.282-.7a.062.062.0 01.064.063zm-38.014-.888c0-.158.048-.121.1-.085.032.022.066.045.091.022.0.063-.064.126-.126.192A.22.22.0 0068.809 51.766zm94.375-.318-.063.063A.062.062.0 01163.184 51.449zm-9.549-.95c-.064.0-.064-.064-.126-.192v-.062c0-.128.062-.189.062-.317.064-.19.126-.19-.125-.19.0-.065-.064-.065.0-.128l.189-.635c.062-.125.062-.19.124-.253s.19-.065.314-.127a.279.279.0 01.064.317l-.252.825a1.779 1.779.0 00-.062.569V50.5c-.043.0-.084.028-.126.028A.084.084.0 01153.635 50.5zm-24.758-.064.064-.062H129l-.063.062zm-82.435.0.062-.062h.062l-.062.062zm68.863-.57V49.8a.062.062.0 01.063.065zm51.836-.127v-.065c.064.0.064.0.126.065zm-78.666-.191c.063.0.063.0.063-.064.0.064.063.127.063.19zm41.283-.064a.063.063.0 11.125.0c-.063.064-.063.064-.125.064C129.758 49.547 129.694 49.483 129.758 49.483zm-82.436.0a.061.061.0 01.062-.063.062.062.0 01.064.063c-.064.064-.064.064-.126.064C47.321 49.547 47.257 49.483 47.321 49.483zm108.7-.191a1.356 1.356.0 00.188-.317.215.215.0 01.126.065l-.188.38C156.083 49.357 156.021 49.357 156.021 49.292zM89.48 49.23a.061.061.0 01.062-.062.061.061.0 00.064.062c-.064.0-.064.0-.126.062zm66.793-.508a.234.234.0 01.062-.19l.062.063c0 .062-.062.127-.062.19zm-1.633-.7h.062v.062A.061.061.0 01154.64 48.026zm1.57-.191a.234.234.0 01.064-.192c.062-.125.062-.315.124-.443a.138.138.0 01.126-.128c.189-.189.251-.38.063-.57a.2.2.0 01-.063-.128l.377-1.013c0-.064.188-.064.252-.129.062.0.062.065.126.065.0.064.0.127-.064.127a.722.722.0 00-.25 1.014v.254a4.474 4.474.0 00-.19.508l-.313.57c-.064.065-.126.128-.188.128C156.273 47.9 156.147 47.835 156.209 47.835zm-1.067-1.4c0-.064.0-.064.062-.064v.064zm-18.347-.888h.124v.063C136.857 45.551 136.857 45.551 136.795 45.551zm-82.437.0h.126v.063C54.419 45.551 54.419 45.551 54.357 45.551zM157.4 43.839c.064-.128.189-.191.252-.318l.189.19-.252.255C157.529 43.966 157.4 43.839 157.4 43.839zm-66.73-1.966.063-.063.063.063a.062.062.0 01-.063.064A.062.062.0 0090.673 41.873zM182.411 34.9c.19-1.078.314-2.092.566-3.108a23.145 23.145.0 011.822-4.5l.188-.381a.709.709.0 011.005-.571 11.444 11.444.0 011.57.7 1.659 1.659.0 011.069 1.457 4.042 4.042.0 01-.566 2.029 6.935 6.935.0 01-2.827 3.045c-.5.317-.942.7-1.445 1.014a7.336 7.336.0 01-1.257.445C182.475 35.024 182.348 35.024 182.411 34.9z" transform="translate(-40.41 -21.587)" fill="#fff"/></svg>