<svg width="10" height="18" viewBox="0 0 10 18" fill="none" xmlns="http://www.w3.org/2000/svg">
<g clip-path="url(#clip0_472_633)">
<path d="M0.00188877 8.99065C0.00208762 8.88607 0.023969 8.78238 0.0661071 8.68667C0.108245 8.59095 0.169765 8.505 0.246763 8.43424L8.59481 0.556942C8.76491 0.419451 8.98052 0.351061 9.19877 0.365398C9.41702 0.379734 9.62186 0.475709 9.77251 0.63427C9.90383 0.774018 9.97695 0.958474 9.97695 1.15024C9.97695 1.342 9.90383 1.5269 9.77251 1.66665L2.01421 8.98709L9.77251 16.3075C9.84723 16.3809 9.9059 16.4686 9.94484 16.5657C9.98377 16.6629 10.0021 16.7673 9.99872 16.8719C9.9953 16.9766 9.97015 17.0793 9.92495 17.1737C9.87975 17.2681 9.81542 17.3521 9.73607 17.4204C9.57773 17.5586 9.37473 17.635 9.16455 17.635C8.95437 17.635 8.75126 17.5586 8.59292 17.4204L0.244874 9.54395C0.16811 9.4728 0.106777 9.38644 0.0646627 9.29063C0.0225481 9.19481 0.000509957 9.09175 0 8.98709L0.00188877 8.99065Z" fill="white"/>
</g>
<defs>
<clipPath id="clip0_472_633">
<rect width="10" height="17.2722" fill="white" transform="translate(0 0.363892)"/>
</clipPath>
</defs>
</svg>
