<svg width="11" height="18" viewBox="0 0 11 18" fill="none" xmlns="http://www.w3.org/2000/svg">
<g clip-path="url(#clip0_472_636)">
<path d="M10.1888 8.99148C10.1886 8.88616 10.1667 8.78237 10.1246 8.68583C10.0825 8.58928 10.0211 8.50211 9.94415 8.43021L1.59589 0.489951C1.42615 0.35156 1.21034 0.282785 0.991797 0.297001C0.773253 0.311216 0.568173 0.407376 0.417792 0.56659C0.286584 0.708253 0.213684 0.894194 0.213684 1.08729C0.213684 1.28038 0.286584 1.46632 0.417792 1.60798L8.17333 8.98517L0.417792 16.3624C0.34304 16.4367 0.284455 16.5254 0.24558 16.6234C0.206704 16.7213 0.188355 16.8264 0.19182 16.9317C0.195285 17.0371 0.220412 17.1404 0.265641 17.2356C0.310871 17.3308 0.375286 17.4157 0.454759 17.4849C0.61294 17.6238 0.816246 17.7004 1.02674 17.7004C1.23722 17.7004 1.44053 17.6238 1.59871 17.4849L9.94696 9.54463C10.0239 9.47271 10.0852 9.38601 10.1273 9.28947C10.1694 9.19293 10.1913 9.08868 10.1916 8.98337L10.1888 8.99148Z" fill="white"/>
</g>
<defs>
<clipPath id="clip0_472_636">
<rect width="10" height="17.4056" fill="white" transform="translate(0.191406 0.297241)"/>
</clipPath>
</defs>
</svg>
