<svg width="21" height="21" viewBox="0 0 21 21" fill="none" xmlns="http://www.w3.org/2000/svg">
<path id="Shape 16 copy" d="M17.3056 16.2557L18.2636 17.2103C18.8716 17.8163 19.4805 18.4216 20.0835 19.0276C20.2724 19.21 20.3824 19.4586 20.3903 19.721C20.3981 19.9834 20.3031 20.2387 20.1255 20.4319C19.9479 20.6252 19.7017 20.7414 19.4396 20.7557C19.1775 20.77 18.9202 20.6814 18.7226 20.5086C18.7036 20.4906 18.6845 20.4705 18.6665 20.4515C17.7999 19.5908 16.9358 18.724 16.0745 17.8514C16.0172 17.7852 15.9638 17.7157 15.9146 17.6434C14.8786 18.4909 13.6736 19.1081 12.3803 19.4529C11.0869 19.7978 9.73503 19.8625 8.41457 19.6434C6.04061 19.2996 3.89592 18.0394 2.44057 16.1326C1.33905 14.7251 0.656906 13.0354 0.472553 11.2576C0.288201 9.47986 0.609063 7.68593 1.39833 6.08234C2.18761 4.47874 3.41328 3.13052 4.93447 2.1922C6.45565 1.25388 8.2107 0.763343 9.99794 0.777648C11.7852 0.791953 13.5321 1.31022 15.0381 2.27277C16.5441 3.23531 17.748 4.60352 18.5115 6.21954C19.275 7.83556 19.5671 9.63392 19.3543 11.4085C19.1415 13.1831 18.4324 14.8616 17.3085 16.2513L17.3056 16.2557ZM2.44948 10.3026C2.45126 11.7812 2.8915 13.226 3.7145 14.4544C4.53749 15.6829 5.70634 16.6398 7.07314 17.2039C8.43994 17.7681 9.94333 17.9141 11.3932 17.6238C12.8431 17.3335 14.1743 16.62 15.2185 15.5731C16.2628 14.5262 16.9732 13.1931 17.2598 11.7425C17.5464 10.2919 17.3964 8.789 16.8288 7.42364C16.2611 6.05828 15.3012 4.89195 14.0707 4.07208C12.8402 3.25221 11.3942 2.81571 9.91555 2.81769H9.89052C7.91129 2.82378 6.01554 3.61569 4.62014 5.01935C3.22473 6.423 2.4439 8.32332 2.44948 10.3026Z" fill="#0E203D"/>
</svg>
