<svg width="20" height="19" viewBox="0 0 20 19" fill="none" xmlns="http://www.w3.org/2000/svg">
<path id="Vector" d="M10.022 5.08098C9.15216 5.08098 8.30184 5.33892 7.57858 5.82219C6.85532 6.30545 6.29161 6.99234 5.95873 7.79598C5.62585 8.59962 5.53876 9.48393 5.70846 10.3371C5.87816 11.1902 6.29703 11.9739 6.91211 12.589C7.52719 13.204 8.31085 13.6229 9.164 13.7926C10.0171 13.9623 10.9014 13.8752 11.7051 13.5423C12.5087 13.2095 13.1956 12.6457 13.6789 11.9225C14.1621 11.1992 14.4201 10.3489 14.4201 9.47905C14.4201 8.31261 13.9567 7.19394 13.1319 6.36914C12.3071 5.54435 11.1885 5.08098 10.022 5.08098ZM10.022 12.4111C9.44211 12.4111 8.87523 12.2391 8.39306 11.917C7.91089 11.5948 7.53508 11.1369 7.31316 10.6011C7.09124 10.0653 7.03318 9.47579 7.14631 8.90703C7.25944 8.33827 7.53869 7.81583 7.94875 7.40578C8.3588 6.99572 8.88124 6.71647 9.45 6.60334C10.0188 6.49021 10.6083 6.54827 11.1441 6.77019C11.6798 6.99211 12.1377 7.36792 12.4599 7.85009C12.7821 8.33226 12.9541 8.89914 12.9541 9.47905C12.9516 10.2559 12.642 11.0003 12.0926 11.5496C11.5433 12.099 10.7989 12.4087 10.022 12.4111ZM14.0536 0.316406H5.99045C4.62961 0.316406 3.3245 0.857 2.36223 1.81926C1.39997 2.78153 0.859375 4.08664 0.859375 5.44749V13.5106C0.859375 14.8715 1.39997 16.1766 2.36223 17.1388C3.3245 18.1011 4.62961 18.6417 5.99045 18.6417H14.0536C15.4144 18.6417 16.7195 18.1011 17.6818 17.1388C18.6441 16.1766 19.1847 14.8715 19.1847 13.5106V5.44749C19.1847 4.08664 18.6441 2.78153 17.6818 1.81926C16.7195 0.857 15.4144 0.316406 14.0536 0.316406ZM17.7186 13.5106C17.7186 13.9919 17.6238 14.4685 17.4396 14.9132C17.2555 15.3578 16.9855 15.7619 16.6452 16.1022C16.3048 16.4425 15.9008 16.7125 15.4561 16.8967C15.0115 17.0809 14.5349 17.1757 14.0536 17.1757H5.99045C5.50915 17.1757 5.03256 17.0809 4.5879 16.8967C4.14323 16.7125 3.7392 16.4425 3.39887 16.1022C3.05854 15.7619 2.78857 15.3578 2.60438 14.9132C2.4202 14.4685 2.3254 13.9919 2.3254 13.5106V5.44749C2.3254 4.47545 2.71154 3.54323 3.39887 2.8559C4.0862 2.16857 5.01842 1.78243 5.99045 1.78243H14.0536C14.5349 1.78243 15.0115 1.87723 15.4561 2.06141C15.9008 2.2456 16.3048 2.51557 16.6452 2.8559C16.9855 3.19623 17.2555 3.60026 17.4396 4.04493C17.6238 4.48959 17.7186 4.96618 17.7186 5.44749V13.5106ZM15.8861 4.71447C15.8861 4.93194 15.8216 5.14452 15.7008 5.32533C15.58 5.50615 15.4083 5.64708 15.2074 5.7303C15.0064 5.81352 14.7854 5.83529 14.5721 5.79286C14.3588 5.75044 14.1629 5.64572 14.0091 5.49195C13.8553 5.33818 13.7506 5.14226 13.7082 4.92898C13.6658 4.71569 13.6875 4.49462 13.7708 4.29371C13.854 4.0928 13.9949 3.92108 14.1757 3.80026C14.3565 3.67944 14.5691 3.61496 14.7866 3.61496C15.0782 3.61496 15.3579 3.7308 15.5641 3.937C15.7703 4.1432 15.8861 4.42286 15.8861 4.71447Z" fill="white"/>
</svg>
