<svg xmlns="http://www.w3.org/2000/svg" xmlns:xlink="http://www.w3.org/1999/xlink" width="15" height="15" viewBox="0 0 15 15"><defs><clipPath id="clip-path"><rect id="Rectangle_82" width="15" height="15" transform="translate(0.136 0)" fill="#00cd92"/></clipPath></defs><g id="Group_174" transform="translate(0.254 0.139)"><g id="Group_180" transform="translate(-0.389 -0.139)" clip-path="url(#clip-path)"><path id="Path_161" d="M1.406 15.564a1.4 1.4.0 01-1-.337 1.4 1.4.0 010-1.978L12.321 1.339a1.4 1.4.0 012.048 1.908L2.388 15.227a1.4 1.4.0 01-.982.337" transform="translate(0.306 -0.829)" fill="#00cd92"/><path id="Path_162" d="M15.061 14.841a1.4 1.4.0 01-.982-.407L2.169 2.523A1.4 1.4.0 014.147.545l11.98 11.911a1.4 1.4.0 01.065 1.983c-.021.022-.043.044-.065.065a1.4 1.4.0 01-1.066.337" transform="translate(-1.453 -0.106)" fill="#00cd92"/></g></g></svg>