<svg xmlns="http://www.w3.org/2000/svg" xmlns:xlink="http://www.w3.org/1999/xlink" width="250" zoomAndPan="magnify" viewBox="0 0 187.5 187.499992" height="250" preserveAspectRatio="xMidYMid meet" version="1.0"><defs><clipPath id="b44044cdaa"><path d="M 117 45.050781 L 187 45.050781 L 187 104 L 117 104 Z M 117 45.050781 " clip-rule="nonzero"/></clipPath><clipPath id="6a8a548c49"><path d="M 29 96 L 70 96 L 70 142.289062 L 29 142.289062 Z M 29 96 " clip-rule="nonzero"/></clipPath></defs><g clip-path="url(#b44044cdaa)"><path fill="#e25a1c" d="M 170.4375 94.074219 C 170.273438 93.730469 170.203125 93.554688 170.113281 93.390625 C 167.785156 88.9375 165.457031 84.488281 163.101562 80.035156 C 162.867188 79.589844 162.894531 79.324219 163.21875 78.941406 C 166.929688 74.589844 170.589844 70.21875 174.308594 65.886719 C 174.4375 65.734375 174.554688 65.574219 174.605469 65.300781 C 173.527344 65.582031 172.449219 65.863281 171.363281 66.148438 C 166.886719 67.339844 162.371094 68.523438 157.9375 69.734375 C 157.519531 69.847656 157.332031 69.722656 157.121094 69.375 C 154.582031 65.113281 152.019531 60.835938 149.449219 56.625 C 149.320312 56.402344 149.175781 56.1875 148.894531 56.003906 C 148.6875 57.140625 148.480469 58.273438 148.277344 59.410156 C 147.5625 63.421875 146.851562 67.410156 146.144531 71.441406 C 146.066406 71.871094 145.960938 72.304688 145.921875 72.738281 C 145.886719 73.152344 145.675781 73.304688 145.300781 73.425781 C 140.019531 75.089844 134.75 76.769531 129.476562 78.449219 C 129.246094 78.519531 129.019531 78.617188 128.769531 78.84375 C 133.085938 80.5625 137.402344 82.28125 141.777344 84.035156 C 141.617188 84.160156 141.511719 84.257812 141.394531 84.335938 C 138.695312 86.085938 135.992188 87.835938 133.304688 89.589844 C 132.980469 89.804688 132.722656 89.832031 132.363281 89.667969 C 129.136719 88.214844 125.886719 86.78125 122.652344 85.339844 C 121.203125 84.6875 119.902344 83.828125 118.886719 82.578125 C 116.59375 79.761719 117.046875 76.5625 120.105469 74.578125 C 121.105469 73.933594 122.246094 73.457031 123.378906 73.085938 C 128.550781 71.394531 133.746094 69.765625 138.902344 68.128906 C 139.335938 67.988281 139.535156 67.792969 139.621094 67.320312 C 140.316406 63.304688 141.027344 59.261719 141.753906 55.292969 C 142.140625 53.144531 142.34375 50.949219 143.382812 48.976562 C 143.78125 48.21875 144.257812 47.476562 144.835938 46.847656 C 146.894531 44.546875 149.765625 44.464844 151.96875 46.648438 C 152.703125 47.386719 153.332031 48.253906 153.878906 49.152344 C 156.277344 53.078125 158.636719 57.03125 161.011719 61 C 161.289062 61.46875 161.539062 61.5625 162.054688 61.425781 C 167.839844 59.867188 173.621094 58.335938 179.4375 56.800781 C 180.632812 56.484375 181.839844 56.367188 183.066406 56.597656 C 185.734375 57.101562 186.902344 59.136719 186 61.730469 C 185.589844 62.910156 184.878906 63.902344 184.082031 64.847656 C 180.042969 69.617188 175.988281 74.410156 171.972656 79.164062 C 171.644531 79.550781 171.636719 79.832031 171.867188 80.269531 C 174.289062 84.847656 176.683594 89.414062 179.117188 94.042969 C 179.695312 95.140625 180.136719 96.28125 180.148438 97.539062 C 180.175781 100.402344 178.085938 102.75 175.253906 103.171875 C 173.664062 103.402344 172.191406 103.0625 170.695312 102.601562 C 167.070312 101.476562 163.445312 100.371094 159.789062 99.269531 C 159.453125 99.167969 159.324219 99.035156 159.261719 98.671875 C 158.84375 96.101562 158.386719 93.539062 157.941406 90.96875 C 157.933594 90.898438 157.953125 90.824219 157.964844 90.667969 C 162.105469 91.816406 166.234375 92.945312 170.492188 94.132812 " fill-opacity="1" fill-rule="evenodd"/></g><path fill="#3c3a3e" d="M 163.242188 131.671875 C 159.972656 131.667969 156.710938 131.648438 153.414062 131.664062 C 152.980469 131.664062 152.738281 131.539062 152.496094 131.171875 C 148.625 125.25 144.703125 119.320312 140.867188 113.425781 C 140.746094 113.238281 140.613281 113.058594 140.394531 112.738281 C 139.5625 119.117188 138.738281 125.371094 137.917969 131.628906 L 129.347656 131.628906 C 129.449219 130.792969 129.539062 129.980469 129.644531 129.175781 C 130.476562 122.738281 131.320312 116.359375 132.160156 109.925781 C 132.964844 103.789062 133.761719 97.652344 134.574219 91.519531 C 134.597656 91.335938 134.722656 91.105469 134.867188 91.007812 C 137.816406 89.078125 140.777344 87.164062 143.738281 85.25 C 143.78125 85.222656 143.84375 85.21875 143.996094 85.175781 C 143.101562 92.035156 142.214844 98.832031 141.320312 105.628906 C 141.355469 105.652344 141.390625 105.675781 141.425781 105.699219 C 146.070312 100.539062 150.714844 95.355469 155.453125 90.121094 C 155.585938 90.914062 155.707031 91.59375 155.824219 92.273438 C 156.15625 94.21875 156.476562 96.171875 156.832031 98.117188 C 156.902344 98.507812 156.796875 98.746094 156.539062 99.023438 C 153.535156 102.175781 150.542969 105.339844 147.546875 108.527344 C 147.417969 108.667969 147.292969 108.808594 147.144531 108.976562 C 147.238281 109.128906 147.320312 109.277344 147.417969 109.410156 C 152.578125 116.691406 157.726562 123.96875 162.878906 131.246094 C 162.972656 131.378906 163.109375 131.484375 163.222656 131.601562 L 163.222656 131.714844 " fill-opacity="1" fill-rule="evenodd"/><g clip-path="url(#6a8a548c49)"><path fill="#3c3a3e" d="M 61.949219 112.421875 C 61.820312 111.753906 61.726562 110.769531 61.429688 109.847656 C 59.988281 105.402344 55.453125 102.988281 50.761719 104.066406 C 45.597656 105.269531 41.890625 109.34375 41.410156 114.652344 C 41.015625 118.5625 43.113281 122.355469 47.007812 123.738281 C 50.148438 124.875 53.179688 124.398438 56 122.707031 C 59.71875 120.472656 61.734375 117.144531 61.992188 112.421875 Z M 39.292969 128.964844 C 39.042969 130.878906 38.796875 132.675781 38.5625 134.480469 C 38.25 136.875 37.933594 139.273438 37.632812 141.699219 C 37.597656 141.980469 37.515625 142.101562 37.214844 142.101562 C 34.859375 142.09375 32.503906 142.09375 30.144531 142.089844 C 30.089844 142.089844 30.035156 142.0625 29.910156 142.023438 C 30.050781 140.894531 30.191406 139.757812 30.335938 138.625 C 30.855469 134.65625 31.375 130.683594 31.902344 126.714844 C 32.507812 122.167969 32.980469 117.632812 33.753906 113.121094 C 35.121094 105.121094 41.90625 98.261719 49.816406 96.519531 C 54.414062 95.519531 58.808594 95.980469 62.824219 98.582031 C 66.828125 101.167969 69.117188 104.957031 69.65625 109.648438 C 70.398438 116.328125 67.945312 121.859375 63.242188 126.492188 C 60.136719 129.507812 56.410156 131.417969 52.152344 132.070312 C 47.738281 132.734375 43.582031 132 39.867188 129.386719 C 39.730469 129.289062 39.582031 129.207031 39.351562 129.058594 " fill-opacity="1" fill-rule="evenodd"/></g><path fill="#3c3a3e" d="M 35.339844 91.066406 C 32.703125 93.039062 30.152344 94.941406 27.605469 96.847656 C 27.195312 96.199219 26.828125 95.550781 26.394531 94.941406 C 25.289062 93.382812 23.910156 92.222656 21.90625 92.085938 C 20.242188 91.964844 18.8125 92.515625 17.679688 93.75 C 16.667969 94.851562 16.535156 96.421875 17.480469 97.667969 C 18.523438 99.039062 19.664062 100.335938 20.832031 101.605469 C 22.769531 103.710938 24.789062 105.734375 26.707031 107.863281 C 28.449219 109.789062 29.847656 111.941406 30.277344 114.601562 C 30.792969 117.726562 30.167969 120.675781 28.695312 123.441406 C 25.96875 128.527344 21.683594 131.503906 15.988281 132.40625 C 13.484375 132.8125 10.992188 132.730469 8.558594 132.011719 C 5.316406 131.054688 3.054688 128.917969 1.605469 125.933594 C 1.09375 124.871094 0.699219 123.746094 0.238281 122.601562 C 3.074219 121.082031 5.835938 119.59375 8.628906 118.097656 C 8.726562 118.328125 8.796875 118.523438 8.886719 118.710938 C 9.363281 119.667969 9.753906 120.683594 10.339844 121.566406 C 12.097656 124.183594 14.925781 124.976562 17.773438 123.683594 C 18.511719 123.351562 19.222656 122.886719 19.828125 122.34375 C 21.675781 120.695312 22.023438 118.398438 20.65625 116.328125 C 19.871094 115.136719 18.886719 114.066406 17.929688 113 C 15.640625 110.449219 13.253906 107.980469 11.035156 105.363281 C 9.496094 103.570312 8.449219 101.488281 8.113281 99.105469 C 7.75 96.484375 8.269531 94.015625 9.628906 91.828125 C 13.003906 86.347656 17.898438 83.527344 24.371094 83.707031 C 28.070312 83.839844 31.027344 85.578125 33.304688 88.464844 C 33.980469 89.320312 34.617188 90.203125 35.304688 91.128906 " fill-opacity="1" fill-rule="evenodd"/><path fill="#3c3a3e" d="M 97.914062 120.242188 C 97.480469 123.542969 97.074219 126.679688 96.652344 129.808594 C 96.628906 129.964844 96.507812 130.183594 96.371094 130.242188 C 89.960938 133.214844 81.570312 132.800781 76.355469 126.820312 C 73.535156 123.609375 72.355469 119.785156 72.53125 115.574219 C 72.9375 105.765625 81.039062 97.164062 90.75 95.960938 C 96.414062 95.265625 101.359375 96.796875 105.195312 101.21875 C 107.808594 104.226562 109.019531 107.835938 108.839844 111.808594 C 108.722656 114.429688 108.3125 117.035156 107.988281 119.625 C 107.527344 123.320312 107.023438 127.027344 106.539062 130.695312 C 106.519531 130.824219 106.492188 130.957031 106.464844 131.121094 L 98.851562 131.121094 C 98.953125 130.273438 99.046875 129.445312 99.152344 128.613281 C 99.707031 124.347656 100.316406 120.074219 100.800781 115.800781 C 101.105469 113.144531 100.914062 110.503906 99.699219 108.042969 C 98.410156 105.425781 96.253906 104.035156 93.40625 103.734375 C 87.519531 103.109375 81.898438 107.210938 80.699219 113 C 79.871094 116.835938 81.175781 120.519531 84.222656 122.5625 C 87.191406 124.542969 90.335938 124.546875 93.574219 123.265625 C 95.214844 122.617188 96.605469 121.582031 97.9375 120.191406 " fill-opacity="1" fill-rule="evenodd"/><path fill="#3c3a3e" d="M 130.277344 96.960938 C 129.929688 99.621094 129.582031 102.238281 129.234375 104.902344 C 127.617188 104.902344 126.035156 104.894531 124.453125 104.90625 C 123.167969 104.914062 122 105.746094 121.613281 106.949219 C 121.460938 107.421875 121.40625 107.925781 121.339844 108.417969 C 120.535156 114.554688 119.738281 120.628906 118.941406 126.707031 C 118.742188 128.246094 118.546875 129.785156 118.34375 131.347656 L 110.375 131.347656 C 110.519531 130.175781 110.660156 129.039062 110.808594 127.902344 C 111.328125 123.945312 111.847656 119.960938 112.367188 116.050781 C 112.820312 112.628906 113.222656 109.195312 113.757812 105.765625 C 114.472656 101.195312 119.003906 97.105469 123.585938 96.921875 C 125.78125 96.828125 127.980469 96.90625 130.242188 96.90625 " fill-opacity="1" fill-rule="evenodd"/><path fill="#3c3a3e" d="M 172.832031 131.671875 L 172.832031 128.304688 L 172.816406 128.304688 L 171.496094 131.671875 L 171.078125 131.671875 L 169.757812 128.304688 L 169.738281 128.304688 L 169.738281 131.671875 L 169.078125 131.671875 L 169.078125 127.636719 L 170.101562 127.636719 L 171.300781 130.703125 L 172.484375 127.636719 L 173.5 127.636719 L 173.5 131.671875 Z M 166.996094 128.175781 L 166.996094 131.671875 L 166.335938 131.671875 L 166.335938 128.175781 L 165.078125 128.175781 L 165.078125 127.636719 L 168.261719 127.636719 L 168.261719 128.175781 L 167 128.175781 " fill-opacity="1" fill-rule="nonzero"/><path fill="#3c3a3e" d="M 45.949219 85.414062 L 47.917969 85.414062 L 47.453125 82.417969 Z M 48.230469 87.351562 L 44.953125 87.351562 L 43.910156 89.402344 L 41.585938 89.402344 L 46.707031 79.777344 L 48.949219 79.777344 L 50.695312 89.402344 L 48.542969 89.402344 L 48.234375 87.351562 " fill-opacity="1" fill-rule="nonzero"/><path fill="#3c3a3e" d="M 59.972656 81.742188 L 58.804688 81.742188 L 58.410156 83.964844 L 59.578125 83.964844 C 60.285156 83.964844 60.84375 83.5 60.84375 82.621094 C 60.84375 82.042969 60.492188 81.742188 59.96875 81.742188 Z M 57.144531 79.808594 L 60.210938 79.808594 C 61.820312 79.808594 62.941406 80.769531 62.941406 82.417969 C 62.941406 84.5 61.476562 85.894531 59.390625 85.894531 L 58.066406 85.894531 L 57.441406 89.414062 L 55.441406 89.414062 L 57.132812 79.789062 " fill-opacity="1" fill-rule="nonzero"/><path fill="#3c3a3e" d="M 69.742188 85.414062 L 71.714844 85.414062 L 71.25 82.417969 Z M 72.019531 87.351562 L 68.742188 87.351562 L 67.699219 89.402344 L 65.371094 89.402344 L 70.496094 79.777344 L 72.738281 79.777344 L 74.484375 89.402344 L 72.332031 89.402344 L 72.023438 87.351562 " fill-opacity="1" fill-rule="nonzero"/><path fill="#3c3a3e" d="M 84.726562 89.082031 C 84.050781 89.394531 83.304688 89.578125 82.558594 89.578125 C 80.019531 89.578125 78.433594 87.671875 78.433594 85.285156 C 78.433594 82.226562 80.992188 79.660156 84.039062 79.660156 C 84.796875 79.660156 85.488281 79.84375 86.050781 80.152344 L 85.769531 82.457031 C 85.347656 81.988281 84.667969 81.664062 83.828125 81.664062 C 82.082031 81.664062 80.53125 83.246094 80.53125 85.078125 C 80.53125 86.472656 81.40625 87.570312 82.785156 87.570312 C 83.628906 87.570312 84.445312 87.242188 84.996094 86.792969 L 84.730469 89.078125 " fill-opacity="1" fill-rule="nonzero"/><path fill="#3c3a3e" d="M 97.3125 85.535156 L 93.148438 85.535156 L 92.46875 89.402344 L 90.472656 89.402344 L 92.164062 79.777344 L 94.167969 79.777344 L 93.496094 83.578125 L 97.660156 83.578125 L 98.339844 79.777344 L 100.339844 79.777344 L 98.648438 89.402344 L 96.648438 89.402344 L 97.320312 85.535156 " fill-opacity="1" fill-rule="nonzero"/><path fill="#3c3a3e" d="M 104.503906 89.382812 L 106.195312 79.757812 L 111.507812 79.757812 L 111.167969 81.695312 L 107.859375 81.695312 L 107.523438 83.5625 L 110.5625 83.5625 L 110.222656 85.496094 L 107.183594 85.496094 L 106.847656 87.433594 L 110.15625 87.433594 L 109.820312 89.371094 L 104.507812 89.371094 " fill-opacity="1" fill-rule="nonzero"/></svg>