<svg xmlns="http://www.w3.org/2000/svg" xmlns:xlink="http://www.w3.org/1999/xlink" width="250" zoomAndPan="magnify" viewBox="0 0 187.5 187.499992" height="250" preserveAspectRatio="xMidYMid meet" version="1.0"><defs><clipPath id="735f66b94d"><path d="M 1 110 L 170 110 L 170 149.722656 L 1 149.722656 Z M 1 110 " clip-rule="nonzero"/></clipPath></defs><path fill="#252f3e" d="M 53.152344 78.457031 C 53.152344 80.738281 53.398438 82.589844 53.828125 83.945312 C 54.320312 85.300781 54.933594 86.78125 55.796875 88.382812 C 56.105469 88.875 56.226562 89.371094 56.226562 89.800781 C 56.226562 90.417969 55.859375 91.035156 55.058594 91.652344 L 51.183594 94.238281 C 50.628906 94.609375 50.078125 94.796875 49.585938 94.796875 C 48.96875 94.796875 48.355469 94.488281 47.738281 93.933594 C 46.878906 93.007812 46.140625 92.019531 45.523438 91.035156 C 44.910156 89.988281 44.292969 88.816406 43.617188 87.398438 C 38.820312 93.070312 32.792969 95.90625 25.535156 95.90625 C 20.367188 95.90625 16.246094 94.425781 13.234375 91.464844 C 10.21875 88.507812 8.683594 84.5625 8.683594 79.628906 C 8.683594 74.390625 10.527344 70.136719 14.277344 66.929688 C 18.03125 63.722656 23.011719 62.121094 29.347656 62.121094 C 31.441406 62.121094 33.59375 62.304688 35.867188 62.613281 C 38.144531 62.921875 40.480469 63.414062 42.941406 63.96875 L 42.941406 59.46875 C 42.941406 54.785156 41.957031 51.515625 40.050781 49.605469 C 38.082031 47.695312 34.761719 46.769531 30.023438 46.769531 C 27.871094 46.769531 25.65625 47.015625 23.382812 47.570312 C 21.105469 48.125 18.890625 48.804688 16.738281 49.667969 C 15.753906 50.101562 15.015625 50.347656 14.585938 50.46875 C 14.15625 50.59375 13.847656 50.65625 13.601562 50.65625 C 12.742188 50.65625 12.3125 50.039062 12.3125 48.742188 L 12.3125 45.722656 C 12.3125 44.734375 12.433594 43.996094 12.742188 43.566406 C 13.050781 43.132812 13.601562 42.703125 14.464844 42.269531 C 16.617188 41.160156 19.199219 40.234375 22.214844 39.496094 C 25.226562 38.695312 28.425781 38.324219 31.808594 38.324219 C 39.128906 38.324219 44.480469 39.988281 47.921875 43.316406 C 51.304688 46.648438 53.027344 51.703125 53.027344 58.484375 L 53.027344 78.457031 Z M 28.179688 87.828125 C 30.210938 87.828125 32.300781 87.457031 34.515625 86.71875 C 36.730469 85.980469 38.699219 84.621094 40.359375 82.773438 C 41.34375 81.601562 42.082031 80.308594 42.449219 78.828125 C 42.820312 77.347656 43.066406 75.5625 43.066406 73.464844 L 43.066406 70.875 C 41.28125 70.445312 39.375 70.074219 37.40625 69.828125 C 35.4375 69.582031 33.53125 69.457031 31.625 69.457031 C 27.503906 69.457031 24.488281 70.257812 22.460938 71.921875 C 20.429688 73.585938 19.445312 75.929688 19.445312 79.011719 C 19.445312 81.910156 20.183594 84.066406 21.722656 85.546875 C 23.199219 87.089844 25.351562 87.828125 28.179688 87.828125 Z M 77.570312 94.488281 C 76.464844 94.488281 75.726562 94.300781 75.234375 93.871094 C 74.742188 93.5 74.308594 92.636719 73.941406 91.464844 L 59.488281 43.8125 C 59.117188 42.578125 58.933594 41.777344 58.933594 41.34375 C 58.933594 40.359375 59.425781 39.804688 60.410156 39.804688 L 66.4375 39.804688 C 67.605469 39.804688 68.40625 39.988281 68.835938 40.421875 C 69.328125 40.789062 69.695312 41.652344 70.066406 42.824219 L 80.398438 83.636719 L 89.996094 42.824219 C 90.300781 41.59375 90.671875 40.789062 91.164062 40.421875 C 91.65625 40.050781 92.515625 39.804688 93.625 39.804688 L 98.542969 39.804688 C 99.714844 39.804688 100.511719 39.988281 101.003906 40.421875 C 101.496094 40.789062 101.925781 41.652344 102.171875 42.824219 L 111.890625 84.128906 L 122.53125 42.824219 C 122.902344 41.59375 123.332031 40.789062 123.761719 40.421875 C 124.253906 40.050781 125.054688 39.804688 126.160156 39.804688 L 131.882812 39.804688 C 132.867188 39.804688 133.417969 40.296875 133.417969 41.34375 C 133.417969 41.652344 133.359375 41.960938 133.296875 42.332031 C 133.234375 42.703125 133.113281 43.195312 132.867188 43.875 L 118.042969 91.527344 C 117.671875 92.761719 117.242188 93.5625 116.75 93.933594 C 116.257812 94.300781 115.457031 94.546875 114.414062 94.546875 L 109.125 94.546875 C 107.953125 94.546875 107.15625 94.363281 106.664062 93.933594 C 106.171875 93.5 105.742188 92.699219 105.496094 91.464844 L 95.960938 51.703125 L 86.488281 91.40625 C 86.179688 92.636719 85.8125 93.4375 85.320312 93.871094 C 84.828125 94.300781 83.96875 94.488281 82.859375 94.488281 Z M 156.605469 96.152344 C 153.410156 96.152344 150.210938 95.78125 147.136719 95.042969 C 144.058594 94.300781 141.660156 93.5 140.0625 92.574219 C 139.078125 92.019531 138.402344 91.40625 138.15625 90.847656 C 137.910156 90.292969 137.785156 89.679688 137.785156 89.125 L 137.785156 85.980469 C 137.785156 84.683594 138.277344 84.066406 139.199219 84.066406 C 139.570312 84.066406 139.9375 84.128906 140.308594 84.253906 C 140.675781 84.375 141.230469 84.621094 141.84375 84.871094 C 143.9375 85.792969 146.210938 86.535156 148.613281 87.027344 C 151.070312 87.519531 153.46875 87.765625 155.929688 87.765625 C 159.804688 87.765625 162.820312 87.089844 164.910156 85.734375 C 167.003906 84.375 168.109375 82.402344 168.109375 79.875 C 168.109375 78.148438 167.554688 76.730469 166.449219 75.5625 C 165.339844 74.390625 163.25 73.339844 160.234375 72.355469 L 151.316406 69.582031 C 146.828125 68.164062 143.507812 66.066406 141.476562 63.292969 C 139.445312 60.578125 138.402344 57.558594 138.402344 54.351562 C 138.402344 51.765625 138.953125 49.484375 140.0625 47.511719 C 141.167969 45.539062 142.644531 43.8125 144.492188 42.457031 C 146.335938 41.039062 148.425781 39.988281 150.886719 39.25 C 153.347656 38.507812 155.929688 38.203125 158.636719 38.203125 C 159.992188 38.203125 161.40625 38.261719 162.757812 38.449219 C 164.171875 38.632812 165.464844 38.878906 166.757812 39.125 C 167.984375 39.433594 169.15625 39.742188 170.261719 40.113281 C 171.371094 40.484375 172.230469 40.851562 172.84375 41.222656 C 173.707031 41.714844 174.320312 42.207031 174.691406 42.761719 C 175.058594 43.257812 175.246094 43.933594 175.246094 44.796875 L 175.246094 47.695312 C 175.246094 48.988281 174.753906 49.667969 173.828125 49.667969 C 173.335938 49.667969 172.539062 49.421875 171.492188 48.929688 C 167.984375 47.324219 164.050781 46.523438 159.683594 46.523438 C 156.175781 46.523438 153.410156 47.078125 151.503906 48.25 C 149.59375 49.421875 148.613281 51.210938 148.613281 53.738281 C 148.613281 55.464844 149.226562 56.941406 150.457031 58.113281 C 151.6875 59.285156 153.960938 60.457031 157.222656 61.503906 L 165.957031 64.277344 C 170.386719 65.695312 173.582031 67.667969 175.488281 70.195312 C 177.398438 72.726562 178.320312 75.621094 178.320312 78.828125 C 178.320312 81.480469 177.765625 83.882812 176.71875 85.980469 C 175.613281 88.074219 174.136719 89.925781 172.230469 91.40625 C 170.324219 92.945312 168.046875 94.054688 165.402344 94.855469 C 162.636719 95.71875 159.746094 96.152344 156.605469 96.152344 Z M 156.605469 96.152344 " fill-opacity="1" fill-rule="nonzero"/><g clip-path="url(#735f66b94d)"><path fill="#ff9900" d="M 168.230469 126.113281 C 147.996094 141.09375 118.597656 149.046875 93.316406 149.046875 C 57.886719 149.046875 25.964844 135.914062 1.855469 114.089844 C -0.0507812 112.363281 1.671875 110.023438 3.945312 111.378906 C 30.023438 126.542969 62.191406 135.730469 95.46875 135.730469 C 117.917969 135.730469 142.582031 131.042969 165.28125 121.425781 C 168.664062 119.886719 171.554688 123.648438 168.230469 126.113281 Z M 168.230469 126.113281 " fill-opacity="1" fill-rule="evenodd"/></g><path fill="#ff9900" d="M 176.660156 116.496094 C 174.074219 113.167969 159.558594 114.890625 152.976562 115.695312 C 151.011719 115.941406 150.703125 114.214844 152.488281 112.917969 C 164.050781 104.78125 183.054688 107.125 185.269531 109.835938 C 187.484375 112.613281 184.65625 131.660156 173.828125 140.785156 C 172.167969 142.203125 170.570312 141.464844 171.308594 139.613281 C 173.769531 133.511719 179.242188 119.761719 176.660156 116.496094 Z M 176.660156 116.496094 " fill-opacity="1" fill-rule="evenodd"/></svg>