<svg xmlns="http://www.w3.org/2000/svg" xmlns:xlink="http://www.w3.org/1999/xlink" width="250" zoomAndPan="magnify" viewBox="0 0 187.5 187.499992" height="250" preserveAspectRatio="xMidYMid meet" version="1.0"><defs><clipPath id="df3cdcfb1e"><path d="M 9 71.273438 L 79 71.273438 L 79 115.40625 L 9 115.40625 Z M 9 71.273438 " clip-rule="nonzero"/></clipPath><clipPath id="d04c2519f8"><path d="M 37 72 L 45 72 L 45 79 L 37 79 Z M 37 72 " clip-rule="nonzero"/></clipPath><clipPath id="03285e7f97"><path d="M 23.304688 71.882812 L 23.304688 85.882812 L 16.558594 85.882812 L 16.558594 92.882812 L 10.914062 92.882812 C 10.890625 93.085938 10.871094 93.289062 10.851562 93.492188 C 10.496094 97.308594 11.167969 100.824219 12.707031 103.832031 L 13.226562 104.753906 C 13.535156 105.308594 13.898438 105.828125 14.28125 106.332031 C 14.660156 106.839844 14.796875 107.121094 15.035156 107.457031 C 19.109375 112 25.183594 114.191406 32.191406 114.191406 C 47.71875 114.191406 60.894531 107.359375 66.726562 92.019531 C 70.863281 92.441406 74.832031 91.386719 76.640625 87.882812 C 73.761719 86.230469 70.058594 86.761719 67.925781 87.824219 L 73.574219 71.882812 L 51.503906 85.882812 L 44.453125 85.882812 L 44.453125 71.882812 Z M 23.304688 71.882812 " clip-rule="nonzero"/></clipPath><clipPath id="1a558a22ab"><path d="M 38 71.882812 L 44 71.882812 L 44 72 L 38 72 Z M 38 71.882812 " clip-rule="nonzero"/></clipPath><clipPath id="0de5c67c78"><path d="M 23.304688 71.882812 L 23.304688 85.882812 L 16.558594 85.882812 L 16.558594 92.882812 L 10.914062 92.882812 C 10.890625 93.085938 10.871094 93.289062 10.851562 93.492188 C 10.496094 97.308594 11.167969 100.824219 12.707031 103.832031 L 13.226562 104.753906 C 13.535156 105.308594 13.898438 105.828125 14.28125 106.332031 C 14.660156 106.839844 14.796875 107.121094 15.035156 107.457031 C 19.109375 112 25.183594 114.191406 32.191406 114.191406 C 47.71875 114.191406 60.894531 107.359375 66.726562 92.019531 C 70.863281 92.441406 74.832031 91.386719 76.640625 87.882812 C 73.761719 86.230469 70.058594 86.761719 67.925781 87.824219 L 73.574219 71.882812 L 51.503906 85.882812 L 44.453125 85.882812 L 44.453125 71.882812 Z M 23.304688 71.882812 " clip-rule="nonzero"/></clipPath><clipPath id="7a3edc51d5"><path d="M 38 72 L 44 72 L 44 78 L 38 78 Z M 38 72 " clip-rule="nonzero"/></clipPath><clipPath id="33d2ef372d"><path d="M 23.304688 71.882812 L 23.304688 85.882812 L 16.558594 85.882812 L 16.558594 92.882812 L 10.914062 92.882812 C 10.890625 93.085938 10.871094 93.289062 10.851562 93.492188 C 10.496094 97.308594 11.167969 100.824219 12.707031 103.832031 L 13.226562 104.753906 C 13.535156 105.308594 13.898438 105.828125 14.28125 106.332031 C 14.660156 106.839844 14.796875 107.121094 15.035156 107.457031 C 19.109375 112 25.183594 114.191406 32.191406 114.191406 C 47.71875 114.191406 60.894531 107.359375 66.726562 92.019531 C 70.863281 92.441406 74.832031 91.386719 76.640625 87.882812 C 73.761719 86.230469 70.058594 86.761719 67.925781 87.824219 L 73.574219 71.882812 L 51.503906 85.882812 L 44.453125 85.882812 L 44.453125 71.882812 Z M 23.304688 71.882812 " clip-rule="nonzero"/></clipPath><clipPath id="57475ba586"><path d="M 38 72 L 44 72 L 44 79 L 38 79 Z M 38 72 " clip-rule="nonzero"/></clipPath><clipPath id="f092c4cdb5"><path d="M 23.304688 71.882812 L 23.304688 85.882812 L 16.558594 85.882812 L 16.558594 92.882812 L 10.914062 92.882812 C 10.890625 93.085938 10.871094 93.289062 10.851562 93.492188 C 10.496094 97.308594 11.167969 100.824219 12.707031 103.832031 L 13.226562 104.753906 C 13.535156 105.308594 13.898438 105.828125 14.28125 106.332031 C 14.660156 106.839844 14.796875 107.121094 15.035156 107.457031 C 19.109375 112 25.183594 114.191406 32.191406 114.191406 C 47.71875 114.191406 60.894531 107.359375 66.726562 92.019531 C 70.863281 92.441406 74.832031 91.386719 76.640625 87.882812 C 73.761719 86.230469 70.058594 86.761719 67.925781 87.824219 L 73.574219 71.882812 L 51.503906 85.882812 L 44.453125 85.882812 L 44.453125 71.882812 Z M 23.304688 71.882812 " clip-rule="nonzero"/></clipPath><clipPath id="dec2c2639e"><path d="M 44 72 L 52 72 L 52 79 L 44 79 Z M 44 72 " clip-rule="nonzero"/></clipPath><clipPath id="5ced4a76ed"><path d="M 23.304688 71.882812 L 23.304688 85.882812 L 16.558594 85.882812 L 16.558594 92.882812 L 10.914062 92.882812 C 10.890625 93.085938 10.871094 93.289062 10.851562 93.492188 C 10.496094 97.308594 11.167969 100.824219 12.707031 103.832031 L 13.226562 104.753906 C 13.535156 105.308594 13.898438 105.828125 14.28125 106.332031 C 14.660156 106.839844 14.796875 107.121094 15.035156 107.457031 C 19.109375 112 25.183594 114.191406 32.191406 114.191406 C 47.71875 114.191406 60.894531 107.359375 66.726562 92.019531 C 70.863281 92.441406 74.832031 91.386719 76.640625 87.882812 C 73.761719 86.230469 70.058594 86.761719 67.925781 87.824219 L 73.574219 71.882812 L 51.503906 85.882812 L 44.453125 85.882812 L 44.453125 71.882812 Z M 23.304688 71.882812 " clip-rule="nonzero"/></clipPath><clipPath id="81595a8eca"><path d="M 45 72 L 51 72 L 51 78 L 45 78 Z M 45 72 " clip-rule="nonzero"/></clipPath><clipPath id="be6b4ccc4a"><path d="M 23.304688 71.882812 L 23.304688 85.882812 L 16.558594 85.882812 L 16.558594 92.882812 L 10.914062 92.882812 C 10.890625 93.085938 10.871094 93.289062 10.851562 93.492188 C 10.496094 97.308594 11.167969 100.824219 12.707031 103.832031 L 13.226562 104.753906 C 13.535156 105.308594 13.898438 105.828125 14.28125 106.332031 C 14.660156 106.839844 14.796875 107.121094 15.035156 107.457031 C 19.109375 112 25.183594 114.191406 32.191406 114.191406 C 47.71875 114.191406 60.894531 107.359375 66.726562 92.019531 C 70.863281 92.441406 74.832031 91.386719 76.640625 87.882812 C 73.761719 86.230469 70.058594 86.761719 67.925781 87.824219 L 73.574219 71.882812 L 51.503906 85.882812 L 44.453125 85.882812 L 44.453125 71.882812 Z M 23.304688 71.882812 " clip-rule="nonzero"/></clipPath><clipPath id="ec0774bb1d"><path d="M 45 72 L 51 72 L 51 79 L 45 79 Z M 45 72 " clip-rule="nonzero"/></clipPath><clipPath id="27a88773ea"><path d="M 23.304688 71.882812 L 23.304688 85.882812 L 16.558594 85.882812 L 16.558594 92.882812 L 10.914062 92.882812 C 10.890625 93.085938 10.871094 93.289062 10.851562 93.492188 C 10.496094 97.308594 11.167969 100.824219 12.707031 103.832031 L 13.226562 104.753906 C 13.535156 105.308594 13.898438 105.828125 14.28125 106.332031 C 14.660156 106.839844 14.796875 107.121094 15.035156 107.457031 C 19.109375 112 25.183594 114.191406 32.191406 114.191406 C 47.71875 114.191406 60.894531 107.359375 66.726562 92.019531 C 70.863281 92.441406 74.832031 91.386719 76.640625 87.882812 C 73.761719 86.230469 70.058594 86.761719 67.925781 87.824219 L 73.574219 71.882812 L 51.503906 85.882812 L 44.453125 85.882812 L 44.453125 71.882812 Z M 23.304688 71.882812 " clip-rule="nonzero"/></clipPath><clipPath id="385b380186"><path d="M 45 71.882812 L 51 71.882812 L 51 72 L 45 72 Z M 45 71.882812 " clip-rule="nonzero"/></clipPath><clipPath id="3c19200274"><path d="M 23.304688 71.882812 L 23.304688 85.882812 L 16.558594 85.882812 L 16.558594 92.882812 L 10.914062 92.882812 C 10.890625 93.085938 10.871094 93.289062 10.851562 93.492188 C 10.496094 97.308594 11.167969 100.824219 12.707031 103.832031 L 13.226562 104.753906 C 13.535156 105.308594 13.898438 105.828125 14.28125 106.332031 C 14.660156 106.839844 14.796875 107.121094 15.035156 107.457031 C 19.109375 112 25.183594 114.191406 32.191406 114.191406 C 47.71875 114.191406 60.894531 107.359375 66.726562 92.019531 C 70.863281 92.441406 74.832031 91.386719 76.640625 87.882812 C 73.761719 86.230469 70.058594 86.761719 67.925781 87.824219 L 73.574219 71.882812 L 51.503906 85.882812 L 44.453125 85.882812 L 44.453125 71.882812 Z M 23.304688 71.882812 " clip-rule="nonzero"/></clipPath><clipPath id="82fc377ce2"><path d="M 10.734375 79 L 17 79 L 17 86 L 10.734375 86 Z M 10.734375 79 " clip-rule="nonzero"/></clipPath><clipPath id="71e19c87e6"><path d="M 23.304688 71.882812 L 23.304688 85.882812 L 16.558594 85.882812 L 16.558594 92.882812 L 10.914062 92.882812 C 10.890625 93.085938 10.871094 93.289062 10.851562 93.492188 C 10.496094 97.308594 11.167969 100.824219 12.707031 103.832031 L 13.226562 104.753906 C 13.535156 105.308594 13.898438 105.828125 14.28125 106.332031 C 14.660156 106.839844 14.796875 107.121094 15.035156 107.457031 C 19.109375 112 25.183594 114.191406 32.191406 114.191406 C 47.71875 114.191406 60.894531 107.359375 66.726562 92.019531 C 70.863281 92.441406 74.832031 91.386719 76.640625 87.882812 C 73.761719 86.230469 70.058594 86.761719 67.925781 87.824219 L 73.574219 71.882812 L 51.503906 85.882812 L 44.453125 85.882812 L 44.453125 71.882812 Z M 23.304688 71.882812 " clip-rule="nonzero"/></clipPath><clipPath id="eec3687b8e"><path d="M 10.734375 86 L 17 86 L 17 93 L 10.734375 93 Z M 10.734375 86 " clip-rule="nonzero"/></clipPath><clipPath id="9a9d8c6f90"><path d="M 23.304688 71.882812 L 23.304688 85.882812 L 16.558594 85.882812 L 16.558594 92.882812 L 10.914062 92.882812 C 10.890625 93.085938 10.871094 93.289062 10.851562 93.492188 C 10.496094 97.308594 11.167969 100.824219 12.707031 103.832031 L 13.226562 104.753906 C 13.535156 105.308594 13.898438 105.828125 14.28125 106.332031 C 14.660156 106.839844 14.796875 107.121094 15.035156 107.457031 C 19.109375 112 25.183594 114.191406 32.191406 114.191406 C 47.71875 114.191406 60.894531 107.359375 66.726562 92.019531 C 70.863281 92.441406 74.832031 91.386719 76.640625 87.882812 C 73.761719 86.230469 70.058594 86.761719 67.925781 87.824219 L 73.574219 71.882812 L 51.503906 85.882812 L 44.453125 85.882812 L 44.453125 71.882812 Z M 23.304688 71.882812 " clip-rule="nonzero"/></clipPath><clipPath id="751de9c57d"><path d="M 10.734375 79 L 16 79 L 16 85 L 10.734375 85 Z M 10.734375 79 " clip-rule="nonzero"/></clipPath><clipPath id="0b22b15b74"><path d="M 23.304688 71.882812 L 23.304688 85.882812 L 16.558594 85.882812 L 16.558594 92.882812 L 10.914062 92.882812 C 10.890625 93.085938 10.871094 93.289062 10.851562 93.492188 C 10.496094 97.308594 11.167969 100.824219 12.707031 103.832031 L 13.226562 104.753906 C 13.535156 105.308594 13.898438 105.828125 14.28125 106.332031 C 14.660156 106.839844 14.796875 107.121094 15.035156 107.457031 C 19.109375 112 25.183594 114.191406 32.191406 114.191406 C 47.71875 114.191406 60.894531 107.359375 66.726562 92.019531 C 70.863281 92.441406 74.832031 91.386719 76.640625 87.882812 C 73.761719 86.230469 70.058594 86.761719 67.925781 87.824219 L 73.574219 71.882812 L 51.503906 85.882812 L 44.453125 85.882812 L 44.453125 71.882812 Z M 23.304688 71.882812 " clip-rule="nonzero"/></clipPath><clipPath id="678dfcf416"><path d="M 10.734375 79 L 16 79 L 16 86 L 10.734375 86 Z M 10.734375 79 " clip-rule="nonzero"/></clipPath><clipPath id="e8acbd39dc"><path d="M 23.304688 71.882812 L 23.304688 85.882812 L 16.558594 85.882812 L 16.558594 92.882812 L 10.914062 92.882812 C 10.890625 93.085938 10.871094 93.289062 10.851562 93.492188 C 10.496094 97.308594 11.167969 100.824219 12.707031 103.832031 L 13.226562 104.753906 C 13.535156 105.308594 13.898438 105.828125 14.28125 106.332031 C 14.660156 106.839844 14.796875 107.121094 15.035156 107.457031 C 19.109375 112 25.183594 114.191406 32.191406 114.191406 C 47.71875 114.191406 60.894531 107.359375 66.726562 92.019531 C 70.863281 92.441406 74.832031 91.386719 76.640625 87.882812 C 73.761719 86.230469 70.058594 86.761719 67.925781 87.824219 L 73.574219 71.882812 L 51.503906 85.882812 L 44.453125 85.882812 L 44.453125 71.882812 Z M 23.304688 71.882812 " clip-rule="nonzero"/></clipPath><clipPath id="3e6b92375b"><path d="M 10.734375 86 L 16 86 L 16 92 L 10.734375 92 Z M 10.734375 86 " clip-rule="nonzero"/></clipPath><clipPath id="e011bc08bd"><path d="M 23.304688 71.882812 L 23.304688 85.882812 L 16.558594 85.882812 L 16.558594 92.882812 L 10.914062 92.882812 C 10.890625 93.085938 10.871094 93.289062 10.851562 93.492188 C 10.496094 97.308594 11.167969 100.824219 12.707031 103.832031 L 13.226562 104.753906 C 13.535156 105.308594 13.898438 105.828125 14.28125 106.332031 C 14.660156 106.839844 14.796875 107.121094 15.035156 107.457031 C 19.109375 112 25.183594 114.191406 32.191406 114.191406 C 47.71875 114.191406 60.894531 107.359375 66.726562 92.019531 C 70.863281 92.441406 74.832031 91.386719 76.640625 87.882812 C 73.761719 86.230469 70.058594 86.761719 67.925781 87.824219 L 73.574219 71.882812 L 51.503906 85.882812 L 44.453125 85.882812 L 44.453125 71.882812 Z M 23.304688 71.882812 " clip-rule="nonzero"/></clipPath><clipPath id="97a4393b5f"><path d="M 10.734375 86 L 16 86 L 16 93 L 10.734375 93 Z M 10.734375 86 " clip-rule="nonzero"/></clipPath><clipPath id="9f7f6be949"><path d="M 23.304688 71.882812 L 23.304688 85.882812 L 16.558594 85.882812 L 16.558594 92.882812 L 10.914062 92.882812 C 10.890625 93.085938 10.871094 93.289062 10.851562 93.492188 C 10.496094 97.308594 11.167969 100.824219 12.707031 103.832031 L 13.226562 104.753906 C 13.535156 105.308594 13.898438 105.828125 14.28125 106.332031 C 14.660156 106.839844 14.796875 107.121094 15.035156 107.457031 C 19.109375 112 25.183594 114.191406 32.191406 114.191406 C 47.71875 114.191406 60.894531 107.359375 66.726562 92.019531 C 70.863281 92.441406 74.832031 91.386719 76.640625 87.882812 C 73.761719 86.230469 70.058594 86.761719 67.925781 87.824219 L 73.574219 71.882812 L 51.503906 85.882812 L 44.453125 85.882812 L 44.453125 71.882812 Z M 23.304688 71.882812 " clip-rule="nonzero"/></clipPath><clipPath id="d142482ab9"><path d="M 16 86 L 24 86 L 24 93 L 16 93 Z M 16 86 " clip-rule="nonzero"/></clipPath><clipPath id="156827cce5"><path d="M 23.304688 71.882812 L 23.304688 85.882812 L 16.558594 85.882812 L 16.558594 92.882812 L 10.914062 92.882812 C 10.890625 93.085938 10.871094 93.289062 10.851562 93.492188 C 10.496094 97.308594 11.167969 100.824219 12.707031 103.832031 L 13.226562 104.753906 C 13.535156 105.308594 13.898438 105.828125 14.28125 106.332031 C 14.660156 106.839844 14.796875 107.121094 15.035156 107.457031 C 19.109375 112 25.183594 114.191406 32.191406 114.191406 C 47.71875 114.191406 60.894531 107.359375 66.726562 92.019531 C 70.863281 92.441406 74.832031 91.386719 76.640625 87.882812 C 73.761719 86.230469 70.058594 86.761719 67.925781 87.824219 L 73.574219 71.882812 L 51.503906 85.882812 L 44.453125 85.882812 L 44.453125 71.882812 Z M 23.304688 71.882812 " clip-rule="nonzero"/></clipPath><clipPath id="e2ad80890e"><path d="M 16 79 L 24 79 L 24 86 L 16 86 Z M 16 79 " clip-rule="nonzero"/></clipPath><clipPath id="2e2550f92e"><path d="M 23.304688 71.882812 L 23.304688 85.882812 L 16.558594 85.882812 L 16.558594 92.882812 L 10.914062 92.882812 C 10.890625 93.085938 10.871094 93.289062 10.851562 93.492188 C 10.496094 97.308594 11.167969 100.824219 12.707031 103.832031 L 13.226562 104.753906 C 13.535156 105.308594 13.898438 105.828125 14.28125 106.332031 C 14.660156 106.839844 14.796875 107.121094 15.035156 107.457031 C 19.109375 112 25.183594 114.191406 32.191406 114.191406 C 47.71875 114.191406 60.894531 107.359375 66.726562 92.019531 C 70.863281 92.441406 74.832031 91.386719 76.640625 87.882812 C 73.761719 86.230469 70.058594 86.761719 67.925781 87.824219 L 73.574219 71.882812 L 51.503906 85.882812 L 44.453125 85.882812 L 44.453125 71.882812 Z M 23.304688 71.882812 " clip-rule="nonzero"/></clipPath><clipPath id="bce8e9715c"><path d="M 17 86 L 23 86 L 23 92 L 17 92 Z M 17 86 " clip-rule="nonzero"/></clipPath><clipPath id="5247037630"><path d="M 23.304688 71.882812 L 23.304688 85.882812 L 16.558594 85.882812 L 16.558594 92.882812 L 10.914062 92.882812 C 10.890625 93.085938 10.871094 93.289062 10.851562 93.492188 C 10.496094 97.308594 11.167969 100.824219 12.707031 103.832031 L 13.226562 104.753906 C 13.535156 105.308594 13.898438 105.828125 14.28125 106.332031 C 14.660156 106.839844 14.796875 107.121094 15.035156 107.457031 C 19.109375 112 25.183594 114.191406 32.191406 114.191406 C 47.71875 114.191406 60.894531 107.359375 66.726562 92.019531 C 70.863281 92.441406 74.832031 91.386719 76.640625 87.882812 C 73.761719 86.230469 70.058594 86.761719 67.925781 87.824219 L 73.574219 71.882812 L 51.503906 85.882812 L 44.453125 85.882812 L 44.453125 71.882812 Z M 23.304688 71.882812 " clip-rule="nonzero"/></clipPath><clipPath id="0e0a287618"><path d="M 17 86 L 23 86 L 23 93 L 17 93 Z M 17 86 " clip-rule="nonzero"/></clipPath><clipPath id="b9069fda2f"><path d="M 23.304688 71.882812 L 23.304688 85.882812 L 16.558594 85.882812 L 16.558594 92.882812 L 10.914062 92.882812 C 10.890625 93.085938 10.871094 93.289062 10.851562 93.492188 C 10.496094 97.308594 11.167969 100.824219 12.707031 103.832031 L 13.226562 104.753906 C 13.535156 105.308594 13.898438 105.828125 14.28125 106.332031 C 14.660156 106.839844 14.796875 107.121094 15.035156 107.457031 C 19.109375 112 25.183594 114.191406 32.191406 114.191406 C 47.71875 114.191406 60.894531 107.359375 66.726562 92.019531 C 70.863281 92.441406 74.832031 91.386719 76.640625 87.882812 C 73.761719 86.230469 70.058594 86.761719 67.925781 87.824219 L 73.574219 71.882812 L 51.503906 85.882812 L 44.453125 85.882812 L 44.453125 71.882812 Z M 23.304688 71.882812 " clip-rule="nonzero"/></clipPath><clipPath id="4a59929810"><path d="M 17 79 L 23 79 L 23 85 L 17 85 Z M 17 79 " clip-rule="nonzero"/></clipPath><clipPath id="eea4945a77"><path d="M 23.304688 71.882812 L 23.304688 85.882812 L 16.558594 85.882812 L 16.558594 92.882812 L 10.914062 92.882812 C 10.890625 93.085938 10.871094 93.289062 10.851562 93.492188 C 10.496094 97.308594 11.167969 100.824219 12.707031 103.832031 L 13.226562 104.753906 C 13.535156 105.308594 13.898438 105.828125 14.28125 106.332031 C 14.660156 106.839844 14.796875 107.121094 15.035156 107.457031 C 19.109375 112 25.183594 114.191406 32.191406 114.191406 C 47.71875 114.191406 60.894531 107.359375 66.726562 92.019531 C 70.863281 92.441406 74.832031 91.386719 76.640625 87.882812 C 73.761719 86.230469 70.058594 86.761719 67.925781 87.824219 L 73.574219 71.882812 L 51.503906 85.882812 L 44.453125 85.882812 L 44.453125 71.882812 Z M 23.304688 71.882812 " clip-rule="nonzero"/></clipPath><clipPath id="36f79c417a"><path d="M 17 79 L 23 79 L 23 86 L 17 86 Z M 17 79 " clip-rule="nonzero"/></clipPath><clipPath id="80c14b756c"><path d="M 23.304688 71.882812 L 23.304688 85.882812 L 16.558594 85.882812 L 16.558594 92.882812 L 10.914062 92.882812 C 10.890625 93.085938 10.871094 93.289062 10.851562 93.492188 C 10.496094 97.308594 11.167969 100.824219 12.707031 103.832031 L 13.226562 104.753906 C 13.535156 105.308594 13.898438 105.828125 14.28125 106.332031 C 14.660156 106.839844 14.796875 107.121094 15.035156 107.457031 C 19.109375 112 25.183594 114.191406 32.191406 114.191406 C 47.71875 114.191406 60.894531 107.359375 66.726562 92.019531 C 70.863281 92.441406 74.832031 91.386719 76.640625 87.882812 C 73.761719 86.230469 70.058594 86.761719 67.925781 87.824219 L 73.574219 71.882812 L 51.503906 85.882812 L 44.453125 85.882812 L 44.453125 71.882812 Z M 23.304688 71.882812 " clip-rule="nonzero"/></clipPath><clipPath id="6ec843dc4b"><path d="M 23 79 L 31 79 L 31 86 L 23 86 Z M 23 79 " clip-rule="nonzero"/></clipPath><clipPath id="cc0eb5b5fc"><path d="M 23.304688 71.882812 L 23.304688 85.882812 L 16.558594 85.882812 L 16.558594 92.882812 L 10.914062 92.882812 C 10.890625 93.085938 10.871094 93.289062 10.851562 93.492188 C 10.496094 97.308594 11.167969 100.824219 12.707031 103.832031 L 13.226562 104.753906 C 13.535156 105.308594 13.898438 105.828125 14.28125 106.332031 C 14.660156 106.839844 14.796875 107.121094 15.035156 107.457031 C 19.109375 112 25.183594 114.191406 32.191406 114.191406 C 47.71875 114.191406 60.894531 107.359375 66.726562 92.019531 C 70.863281 92.441406 74.832031 91.386719 76.640625 87.882812 C 73.761719 86.230469 70.058594 86.761719 67.925781 87.824219 L 73.574219 71.882812 L 51.503906 85.882812 L 44.453125 85.882812 L 44.453125 71.882812 Z M 23.304688 71.882812 " clip-rule="nonzero"/></clipPath><clipPath id="10caa9185f"><path d="M 23 86 L 31 86 L 31 93 L 23 93 Z M 23 86 " clip-rule="nonzero"/></clipPath><clipPath id="0d5f8ee376"><path d="M 23.304688 71.882812 L 23.304688 85.882812 L 16.558594 85.882812 L 16.558594 92.882812 L 10.914062 92.882812 C 10.890625 93.085938 10.871094 93.289062 10.851562 93.492188 C 10.496094 97.308594 11.167969 100.824219 12.707031 103.832031 L 13.226562 104.753906 C 13.535156 105.308594 13.898438 105.828125 14.28125 106.332031 C 14.660156 106.839844 14.796875 107.121094 15.035156 107.457031 C 19.109375 112 25.183594 114.191406 32.191406 114.191406 C 47.71875 114.191406 60.894531 107.359375 66.726562 92.019531 C 70.863281 92.441406 74.832031 91.386719 76.640625 87.882812 C 73.761719 86.230469 70.058594 86.761719 67.925781 87.824219 L 73.574219 71.882812 L 51.503906 85.882812 L 44.453125 85.882812 L 44.453125 71.882812 Z M 23.304688 71.882812 " clip-rule="nonzero"/></clipPath><clipPath id="7dc28e338c"><path d="M 24 79 L 30 79 L 30 85 L 24 85 Z M 24 79 " clip-rule="nonzero"/></clipPath><clipPath id="2b881b6b94"><path d="M 23.304688 71.882812 L 23.304688 85.882812 L 16.558594 85.882812 L 16.558594 92.882812 L 10.914062 92.882812 C 10.890625 93.085938 10.871094 93.289062 10.851562 93.492188 C 10.496094 97.308594 11.167969 100.824219 12.707031 103.832031 L 13.226562 104.753906 C 13.535156 105.308594 13.898438 105.828125 14.28125 106.332031 C 14.660156 106.839844 14.796875 107.121094 15.035156 107.457031 C 19.109375 112 25.183594 114.191406 32.191406 114.191406 C 47.71875 114.191406 60.894531 107.359375 66.726562 92.019531 C 70.863281 92.441406 74.832031 91.386719 76.640625 87.882812 C 73.761719 86.230469 70.058594 86.761719 67.925781 87.824219 L 73.574219 71.882812 L 51.503906 85.882812 L 44.453125 85.882812 L 44.453125 71.882812 Z M 23.304688 71.882812 " clip-rule="nonzero"/></clipPath><clipPath id="50b64c5e46"><path d="M 24 79 L 30 79 L 30 86 L 24 86 Z M 24 79 " clip-rule="nonzero"/></clipPath><clipPath id="b0101f440e"><path d="M 23.304688 71.882812 L 23.304688 85.882812 L 16.558594 85.882812 L 16.558594 92.882812 L 10.914062 92.882812 C 10.890625 93.085938 10.871094 93.289062 10.851562 93.492188 C 10.496094 97.308594 11.167969 100.824219 12.707031 103.832031 L 13.226562 104.753906 C 13.535156 105.308594 13.898438 105.828125 14.28125 106.332031 C 14.660156 106.839844 14.796875 107.121094 15.035156 107.457031 C 19.109375 112 25.183594 114.191406 32.191406 114.191406 C 47.71875 114.191406 60.894531 107.359375 66.726562 92.019531 C 70.863281 92.441406 74.832031 91.386719 76.640625 87.882812 C 73.761719 86.230469 70.058594 86.761719 67.925781 87.824219 L 73.574219 71.882812 L 51.503906 85.882812 L 44.453125 85.882812 L 44.453125 71.882812 Z M 23.304688 71.882812 " clip-rule="nonzero"/></clipPath><clipPath id="d637d054a0"><path d="M 24 86 L 30 86 L 30 92 L 24 92 Z M 24 86 " clip-rule="nonzero"/></clipPath><clipPath id="0b2d74ea59"><path d="M 23.304688 71.882812 L 23.304688 85.882812 L 16.558594 85.882812 L 16.558594 92.882812 L 10.914062 92.882812 C 10.890625 93.085938 10.871094 93.289062 10.851562 93.492188 C 10.496094 97.308594 11.167969 100.824219 12.707031 103.832031 L 13.226562 104.753906 C 13.535156 105.308594 13.898438 105.828125 14.28125 106.332031 C 14.660156 106.839844 14.796875 107.121094 15.035156 107.457031 C 19.109375 112 25.183594 114.191406 32.191406 114.191406 C 47.71875 114.191406 60.894531 107.359375 66.726562 92.019531 C 70.863281 92.441406 74.832031 91.386719 76.640625 87.882812 C 73.761719 86.230469 70.058594 86.761719 67.925781 87.824219 L 73.574219 71.882812 L 51.503906 85.882812 L 44.453125 85.882812 L 44.453125 71.882812 Z M 23.304688 71.882812 " clip-rule="nonzero"/></clipPath><clipPath id="2674e559d6"><path d="M 24 86 L 30 86 L 30 93 L 24 93 Z M 24 86 " clip-rule="nonzero"/></clipPath><clipPath id="0d94885974"><path d="M 23.304688 71.882812 L 23.304688 85.882812 L 16.558594 85.882812 L 16.558594 92.882812 L 10.914062 92.882812 C 10.890625 93.085938 10.871094 93.289062 10.851562 93.492188 C 10.496094 97.308594 11.167969 100.824219 12.707031 103.832031 L 13.226562 104.753906 C 13.535156 105.308594 13.898438 105.828125 14.28125 106.332031 C 14.660156 106.839844 14.796875 107.121094 15.035156 107.457031 C 19.109375 112 25.183594 114.191406 32.191406 114.191406 C 47.71875 114.191406 60.894531 107.359375 66.726562 92.019531 C 70.863281 92.441406 74.832031 91.386719 76.640625 87.882812 C 73.761719 86.230469 70.058594 86.761719 67.925781 87.824219 L 73.574219 71.882812 L 51.503906 85.882812 L 44.453125 85.882812 L 44.453125 71.882812 Z M 23.304688 71.882812 " clip-rule="nonzero"/></clipPath><clipPath id="d90c0fa7b8"><path d="M 30 86 L 38 86 L 38 93 L 30 93 Z M 30 86 " clip-rule="nonzero"/></clipPath><clipPath id="98d7c4062c"><path d="M 23.304688 71.882812 L 23.304688 85.882812 L 16.558594 85.882812 L 16.558594 92.882812 L 10.914062 92.882812 C 10.890625 93.085938 10.871094 93.289062 10.851562 93.492188 C 10.496094 97.308594 11.167969 100.824219 12.707031 103.832031 L 13.226562 104.753906 C 13.535156 105.308594 13.898438 105.828125 14.28125 106.332031 C 14.660156 106.839844 14.796875 107.121094 15.035156 107.457031 C 19.109375 112 25.183594 114.191406 32.191406 114.191406 C 47.71875 114.191406 60.894531 107.359375 66.726562 92.019531 C 70.863281 92.441406 74.832031 91.386719 76.640625 87.882812 C 73.761719 86.230469 70.058594 86.761719 67.925781 87.824219 L 73.574219 71.882812 L 51.503906 85.882812 L 44.453125 85.882812 L 44.453125 71.882812 Z M 23.304688 71.882812 " clip-rule="nonzero"/></clipPath><clipPath id="b76cf8a2ee"><path d="M 30 79 L 38 79 L 38 86 L 30 86 Z M 30 79 " clip-rule="nonzero"/></clipPath><clipPath id="ff5ccda3fc"><path d="M 23.304688 71.882812 L 23.304688 85.882812 L 16.558594 85.882812 L 16.558594 92.882812 L 10.914062 92.882812 C 10.890625 93.085938 10.871094 93.289062 10.851562 93.492188 C 10.496094 97.308594 11.167969 100.824219 12.707031 103.832031 L 13.226562 104.753906 C 13.535156 105.308594 13.898438 105.828125 14.28125 106.332031 C 14.660156 106.839844 14.796875 107.121094 15.035156 107.457031 C 19.109375 112 25.183594 114.191406 32.191406 114.191406 C 47.71875 114.191406 60.894531 107.359375 66.726562 92.019531 C 70.863281 92.441406 74.832031 91.386719 76.640625 87.882812 C 73.761719 86.230469 70.058594 86.761719 67.925781 87.824219 L 73.574219 71.882812 L 51.503906 85.882812 L 44.453125 85.882812 L 44.453125 71.882812 Z M 23.304688 71.882812 " clip-rule="nonzero"/></clipPath><clipPath id="2485ba549f"><path d="M 31 86 L 37 86 L 37 92 L 31 92 Z M 31 86 " clip-rule="nonzero"/></clipPath><clipPath id="25fced578a"><path d="M 23.304688 71.882812 L 23.304688 85.882812 L 16.558594 85.882812 L 16.558594 92.882812 L 10.914062 92.882812 C 10.890625 93.085938 10.871094 93.289062 10.851562 93.492188 C 10.496094 97.308594 11.167969 100.824219 12.707031 103.832031 L 13.226562 104.753906 C 13.535156 105.308594 13.898438 105.828125 14.28125 106.332031 C 14.660156 106.839844 14.796875 107.121094 15.035156 107.457031 C 19.109375 112 25.183594 114.191406 32.191406 114.191406 C 47.71875 114.191406 60.894531 107.359375 66.726562 92.019531 C 70.863281 92.441406 74.832031 91.386719 76.640625 87.882812 C 73.761719 86.230469 70.058594 86.761719 67.925781 87.824219 L 73.574219 71.882812 L 51.503906 85.882812 L 44.453125 85.882812 L 44.453125 71.882812 Z M 23.304688 71.882812 " clip-rule="nonzero"/></clipPath><clipPath id="7c74c64854"><path d="M 31 86 L 37 86 L 37 93 L 31 93 Z M 31 86 " clip-rule="nonzero"/></clipPath><clipPath id="1f611a272b"><path d="M 23.304688 71.882812 L 23.304688 85.882812 L 16.558594 85.882812 L 16.558594 92.882812 L 10.914062 92.882812 C 10.890625 93.085938 10.871094 93.289062 10.851562 93.492188 C 10.496094 97.308594 11.167969 100.824219 12.707031 103.832031 L 13.226562 104.753906 C 13.535156 105.308594 13.898438 105.828125 14.28125 106.332031 C 14.660156 106.839844 14.796875 107.121094 15.035156 107.457031 C 19.109375 112 25.183594 114.191406 32.191406 114.191406 C 47.71875 114.191406 60.894531 107.359375 66.726562 92.019531 C 70.863281 92.441406 74.832031 91.386719 76.640625 87.882812 C 73.761719 86.230469 70.058594 86.761719 67.925781 87.824219 L 73.574219 71.882812 L 51.503906 85.882812 L 44.453125 85.882812 L 44.453125 71.882812 Z M 23.304688 71.882812 " clip-rule="nonzero"/></clipPath><clipPath id="e2de847a02"><path d="M 31 79 L 37 79 L 37 85 L 31 85 Z M 31 79 " clip-rule="nonzero"/></clipPath><clipPath id="515f5ee918"><path d="M 23.304688 71.882812 L 23.304688 85.882812 L 16.558594 85.882812 L 16.558594 92.882812 L 10.914062 92.882812 C 10.890625 93.085938 10.871094 93.289062 10.851562 93.492188 C 10.496094 97.308594 11.167969 100.824219 12.707031 103.832031 L 13.226562 104.753906 C 13.535156 105.308594 13.898438 105.828125 14.28125 106.332031 C 14.660156 106.839844 14.796875 107.121094 15.035156 107.457031 C 19.109375 112 25.183594 114.191406 32.191406 114.191406 C 47.71875 114.191406 60.894531 107.359375 66.726562 92.019531 C 70.863281 92.441406 74.832031 91.386719 76.640625 87.882812 C 73.761719 86.230469 70.058594 86.761719 67.925781 87.824219 L 73.574219 71.882812 L 51.503906 85.882812 L 44.453125 85.882812 L 44.453125 71.882812 Z M 23.304688 71.882812 " clip-rule="nonzero"/></clipPath><clipPath id="af44c63bb1"><path d="M 31 79 L 37 79 L 37 86 L 31 86 Z M 31 79 " clip-rule="nonzero"/></clipPath><clipPath id="806f80ad9d"><path d="M 23.304688 71.882812 L 23.304688 85.882812 L 16.558594 85.882812 L 16.558594 92.882812 L 10.914062 92.882812 C 10.890625 93.085938 10.871094 93.289062 10.851562 93.492188 C 10.496094 97.308594 11.167969 100.824219 12.707031 103.832031 L 13.226562 104.753906 C 13.535156 105.308594 13.898438 105.828125 14.28125 106.332031 C 14.660156 106.839844 14.796875 107.121094 15.035156 107.457031 C 19.109375 112 25.183594 114.191406 32.191406 114.191406 C 47.71875 114.191406 60.894531 107.359375 66.726562 92.019531 C 70.863281 92.441406 74.832031 91.386719 76.640625 87.882812 C 73.761719 86.230469 70.058594 86.761719 67.925781 87.824219 L 73.574219 71.882812 L 51.503906 85.882812 L 44.453125 85.882812 L 44.453125 71.882812 Z M 23.304688 71.882812 " clip-rule="nonzero"/></clipPath><clipPath id="b3623106ed"><path d="M 37 79 L 45 79 L 45 86 L 37 86 Z M 37 79 " clip-rule="nonzero"/></clipPath><clipPath id="a276239c15"><path d="M 23.304688 71.882812 L 23.304688 85.882812 L 16.558594 85.882812 L 16.558594 92.882812 L 10.914062 92.882812 C 10.890625 93.085938 10.871094 93.289062 10.851562 93.492188 C 10.496094 97.308594 11.167969 100.824219 12.707031 103.832031 L 13.226562 104.753906 C 13.535156 105.308594 13.898438 105.828125 14.28125 106.332031 C 14.660156 106.839844 14.796875 107.121094 15.035156 107.457031 C 19.109375 112 25.183594 114.191406 32.191406 114.191406 C 47.71875 114.191406 60.894531 107.359375 66.726562 92.019531 C 70.863281 92.441406 74.832031 91.386719 76.640625 87.882812 C 73.761719 86.230469 70.058594 86.761719 67.925781 87.824219 L 73.574219 71.882812 L 51.503906 85.882812 L 44.453125 85.882812 L 44.453125 71.882812 Z M 23.304688 71.882812 " clip-rule="nonzero"/></clipPath><clipPath id="e90446c774"><path d="M 37 86 L 45 86 L 45 93 L 37 93 Z M 37 86 " clip-rule="nonzero"/></clipPath><clipPath id="9cb0835467"><path d="M 23.304688 71.882812 L 23.304688 85.882812 L 16.558594 85.882812 L 16.558594 92.882812 L 10.914062 92.882812 C 10.890625 93.085938 10.871094 93.289062 10.851562 93.492188 C 10.496094 97.308594 11.167969 100.824219 12.707031 103.832031 L 13.226562 104.753906 C 13.535156 105.308594 13.898438 105.828125 14.28125 106.332031 C 14.660156 106.839844 14.796875 107.121094 15.035156 107.457031 C 19.109375 112 25.183594 114.191406 32.191406 114.191406 C 47.71875 114.191406 60.894531 107.359375 66.726562 92.019531 C 70.863281 92.441406 74.832031 91.386719 76.640625 87.882812 C 73.761719 86.230469 70.058594 86.761719 67.925781 87.824219 L 73.574219 71.882812 L 51.503906 85.882812 L 44.453125 85.882812 L 44.453125 71.882812 Z M 23.304688 71.882812 " clip-rule="nonzero"/></clipPath><clipPath id="af1ba76870"><path d="M 38 79 L 44 79 L 44 85 L 38 85 Z M 38 79 " clip-rule="nonzero"/></clipPath><clipPath id="8d288bd601"><path d="M 23.304688 71.882812 L 23.304688 85.882812 L 16.558594 85.882812 L 16.558594 92.882812 L 10.914062 92.882812 C 10.890625 93.085938 10.871094 93.289062 10.851562 93.492188 C 10.496094 97.308594 11.167969 100.824219 12.707031 103.832031 L 13.226562 104.753906 C 13.535156 105.308594 13.898438 105.828125 14.28125 106.332031 C 14.660156 106.839844 14.796875 107.121094 15.035156 107.457031 C 19.109375 112 25.183594 114.191406 32.191406 114.191406 C 47.71875 114.191406 60.894531 107.359375 66.726562 92.019531 C 70.863281 92.441406 74.832031 91.386719 76.640625 87.882812 C 73.761719 86.230469 70.058594 86.761719 67.925781 87.824219 L 73.574219 71.882812 L 51.503906 85.882812 L 44.453125 85.882812 L 44.453125 71.882812 Z M 23.304688 71.882812 " clip-rule="nonzero"/></clipPath><clipPath id="22846665a6"><path d="M 38 79 L 44 79 L 44 86 L 38 86 Z M 38 79 " clip-rule="nonzero"/></clipPath><clipPath id="4e23cb1f87"><path d="M 23.304688 71.882812 L 23.304688 85.882812 L 16.558594 85.882812 L 16.558594 92.882812 L 10.914062 92.882812 C 10.890625 93.085938 10.871094 93.289062 10.851562 93.492188 C 10.496094 97.308594 11.167969 100.824219 12.707031 103.832031 L 13.226562 104.753906 C 13.535156 105.308594 13.898438 105.828125 14.28125 106.332031 C 14.660156 106.839844 14.796875 107.121094 15.035156 107.457031 C 19.109375 112 25.183594 114.191406 32.191406 114.191406 C 47.71875 114.191406 60.894531 107.359375 66.726562 92.019531 C 70.863281 92.441406 74.832031 91.386719 76.640625 87.882812 C 73.761719 86.230469 70.058594 86.761719 67.925781 87.824219 L 73.574219 71.882812 L 51.503906 85.882812 L 44.453125 85.882812 L 44.453125 71.882812 Z M 23.304688 71.882812 " clip-rule="nonzero"/></clipPath><clipPath id="617755fd71"><path d="M 38 86 L 44 86 L 44 92 L 38 92 Z M 38 86 " clip-rule="nonzero"/></clipPath><clipPath id="8c719592e6"><path d="M 23.304688 71.882812 L 23.304688 85.882812 L 16.558594 85.882812 L 16.558594 92.882812 L 10.914062 92.882812 C 10.890625 93.085938 10.871094 93.289062 10.851562 93.492188 C 10.496094 97.308594 11.167969 100.824219 12.707031 103.832031 L 13.226562 104.753906 C 13.535156 105.308594 13.898438 105.828125 14.28125 106.332031 C 14.660156 106.839844 14.796875 107.121094 15.035156 107.457031 C 19.109375 112 25.183594 114.191406 32.191406 114.191406 C 47.71875 114.191406 60.894531 107.359375 66.726562 92.019531 C 70.863281 92.441406 74.832031 91.386719 76.640625 87.882812 C 73.761719 86.230469 70.058594 86.761719 67.925781 87.824219 L 73.574219 71.882812 L 51.503906 85.882812 L 44.453125 85.882812 L 44.453125 71.882812 Z M 23.304688 71.882812 " clip-rule="nonzero"/></clipPath><clipPath id="21c88d7d15"><path d="M 38 86 L 44 86 L 44 93 L 38 93 Z M 38 86 " clip-rule="nonzero"/></clipPath><clipPath id="49e06f6cbc"><path d="M 23.304688 71.882812 L 23.304688 85.882812 L 16.558594 85.882812 L 16.558594 92.882812 L 10.914062 92.882812 C 10.890625 93.085938 10.871094 93.289062 10.851562 93.492188 C 10.496094 97.308594 11.167969 100.824219 12.707031 103.832031 L 13.226562 104.753906 C 13.535156 105.308594 13.898438 105.828125 14.28125 106.332031 C 14.660156 106.839844 14.796875 107.121094 15.035156 107.457031 C 19.109375 112 25.183594 114.191406 32.191406 114.191406 C 47.71875 114.191406 60.894531 107.359375 66.726562 92.019531 C 70.863281 92.441406 74.832031 91.386719 76.640625 87.882812 C 73.761719 86.230469 70.058594 86.761719 67.925781 87.824219 L 73.574219 71.882812 L 51.503906 85.882812 L 44.453125 85.882812 L 44.453125 71.882812 Z M 23.304688 71.882812 " clip-rule="nonzero"/></clipPath><clipPath id="5c153771b8"><path d="M 44 86 L 52 86 L 52 93 L 44 93 Z M 44 86 " clip-rule="nonzero"/></clipPath><clipPath id="fc0b0c0a08"><path d="M 23.304688 71.882812 L 23.304688 85.882812 L 16.558594 85.882812 L 16.558594 92.882812 L 10.914062 92.882812 C 10.890625 93.085938 10.871094 93.289062 10.851562 93.492188 C 10.496094 97.308594 11.167969 100.824219 12.707031 103.832031 L 13.226562 104.753906 C 13.535156 105.308594 13.898438 105.828125 14.28125 106.332031 C 14.660156 106.839844 14.796875 107.121094 15.035156 107.457031 C 19.109375 112 25.183594 114.191406 32.191406 114.191406 C 47.71875 114.191406 60.894531 107.359375 66.726562 92.019531 C 70.863281 92.441406 74.832031 91.386719 76.640625 87.882812 C 73.761719 86.230469 70.058594 86.761719 67.925781 87.824219 L 73.574219 71.882812 L 51.503906 85.882812 L 44.453125 85.882812 L 44.453125 71.882812 Z M 23.304688 71.882812 " clip-rule="nonzero"/></clipPath><clipPath id="b2d5bdc45f"><path d="M 44 79 L 52 79 L 52 86 L 44 86 Z M 44 79 " clip-rule="nonzero"/></clipPath><clipPath id="95e9c04ddf"><path d="M 23.304688 71.882812 L 23.304688 85.882812 L 16.558594 85.882812 L 16.558594 92.882812 L 10.914062 92.882812 C 10.890625 93.085938 10.871094 93.289062 10.851562 93.492188 C 10.496094 97.308594 11.167969 100.824219 12.707031 103.832031 L 13.226562 104.753906 C 13.535156 105.308594 13.898438 105.828125 14.28125 106.332031 C 14.660156 106.839844 14.796875 107.121094 15.035156 107.457031 C 19.109375 112 25.183594 114.191406 32.191406 114.191406 C 47.71875 114.191406 60.894531 107.359375 66.726562 92.019531 C 70.863281 92.441406 74.832031 91.386719 76.640625 87.882812 C 73.761719 86.230469 70.058594 86.761719 67.925781 87.824219 L 73.574219 71.882812 L 51.503906 85.882812 L 44.453125 85.882812 L 44.453125 71.882812 Z M 23.304688 71.882812 " clip-rule="nonzero"/></clipPath><clipPath id="369059222a"><path d="M 45 86 L 51 86 L 51 92 L 45 92 Z M 45 86 " clip-rule="nonzero"/></clipPath><clipPath id="925772dea8"><path d="M 23.304688 71.882812 L 23.304688 85.882812 L 16.558594 85.882812 L 16.558594 92.882812 L 10.914062 92.882812 C 10.890625 93.085938 10.871094 93.289062 10.851562 93.492188 C 10.496094 97.308594 11.167969 100.824219 12.707031 103.832031 L 13.226562 104.753906 C 13.535156 105.308594 13.898438 105.828125 14.28125 106.332031 C 14.660156 106.839844 14.796875 107.121094 15.035156 107.457031 C 19.109375 112 25.183594 114.191406 32.191406 114.191406 C 47.71875 114.191406 60.894531 107.359375 66.726562 92.019531 C 70.863281 92.441406 74.832031 91.386719 76.640625 87.882812 C 73.761719 86.230469 70.058594 86.761719 67.925781 87.824219 L 73.574219 71.882812 L 51.503906 85.882812 L 44.453125 85.882812 L 44.453125 71.882812 Z M 23.304688 71.882812 " clip-rule="nonzero"/></clipPath><clipPath id="7fb4f97a69"><path d="M 45 86 L 51 86 L 51 93 L 45 93 Z M 45 86 " clip-rule="nonzero"/></clipPath><clipPath id="e628d1b524"><path d="M 23.304688 71.882812 L 23.304688 85.882812 L 16.558594 85.882812 L 16.558594 92.882812 L 10.914062 92.882812 C 10.890625 93.085938 10.871094 93.289062 10.851562 93.492188 C 10.496094 97.308594 11.167969 100.824219 12.707031 103.832031 L 13.226562 104.753906 C 13.535156 105.308594 13.898438 105.828125 14.28125 106.332031 C 14.660156 106.839844 14.796875 107.121094 15.035156 107.457031 C 19.109375 112 25.183594 114.191406 32.191406 114.191406 C 47.71875 114.191406 60.894531 107.359375 66.726562 92.019531 C 70.863281 92.441406 74.832031 91.386719 76.640625 87.882812 C 73.761719 86.230469 70.058594 86.761719 67.925781 87.824219 L 73.574219 71.882812 L 51.503906 85.882812 L 44.453125 85.882812 L 44.453125 71.882812 Z M 23.304688 71.882812 " clip-rule="nonzero"/></clipPath><clipPath id="b3e7a30b38"><path d="M 45 79 L 51 79 L 51 85 L 45 85 Z M 45 79 " clip-rule="nonzero"/></clipPath><clipPath id="8e0f0b1c39"><path d="M 23.304688 71.882812 L 23.304688 85.882812 L 16.558594 85.882812 L 16.558594 92.882812 L 10.914062 92.882812 C 10.890625 93.085938 10.871094 93.289062 10.851562 93.492188 C 10.496094 97.308594 11.167969 100.824219 12.707031 103.832031 L 13.226562 104.753906 C 13.535156 105.308594 13.898438 105.828125 14.28125 106.332031 C 14.660156 106.839844 14.796875 107.121094 15.035156 107.457031 C 19.109375 112 25.183594 114.191406 32.191406 114.191406 C 47.71875 114.191406 60.894531 107.359375 66.726562 92.019531 C 70.863281 92.441406 74.832031 91.386719 76.640625 87.882812 C 73.761719 86.230469 70.058594 86.761719 67.925781 87.824219 L 73.574219 71.882812 L 51.503906 85.882812 L 44.453125 85.882812 L 44.453125 71.882812 Z M 23.304688 71.882812 " clip-rule="nonzero"/></clipPath><clipPath id="bc6edb6604"><path d="M 45 79 L 51 79 L 51 86 L 45 86 Z M 45 79 " clip-rule="nonzero"/></clipPath><clipPath id="770eba692f"><path d="M 23.304688 71.882812 L 23.304688 85.882812 L 16.558594 85.882812 L 16.558594 92.882812 L 10.914062 92.882812 C 10.890625 93.085938 10.871094 93.289062 10.851562 93.492188 C 10.496094 97.308594 11.167969 100.824219 12.707031 103.832031 L 13.226562 104.753906 C 13.535156 105.308594 13.898438 105.828125 14.28125 106.332031 C 14.660156 106.839844 14.796875 107.121094 15.035156 107.457031 C 19.109375 112 25.183594 114.191406 32.191406 114.191406 C 47.71875 114.191406 60.894531 107.359375 66.726562 92.019531 C 70.863281 92.441406 74.832031 91.386719 76.640625 87.882812 C 73.761719 86.230469 70.058594 86.761719 67.925781 87.824219 L 73.574219 71.882812 L 51.503906 85.882812 L 44.453125 85.882812 L 44.453125 71.882812 Z M 23.304688 71.882812 " clip-rule="nonzero"/></clipPath><clipPath id="db8ecdcebd"><path d="M 10.734375 80 L 76.640625 80 L 76.640625 114.191406 L 10.734375 114.191406 Z M 10.734375 80 " clip-rule="nonzero"/></clipPath><clipPath id="174de1a051"><path d="M 23.304688 71.882812 L 23.304688 85.882812 L 16.558594 85.882812 L 16.558594 92.882812 L 10.914062 92.882812 C 10.890625 93.085938 10.871094 93.289062 10.851562 93.492188 C 10.496094 97.308594 11.167969 100.824219 12.707031 103.832031 L 13.226562 104.753906 C 13.535156 105.308594 13.898438 105.828125 14.28125 106.332031 C 14.660156 106.839844 14.796875 107.121094 15.035156 107.457031 C 19.109375 112 25.183594 114.191406 32.191406 114.191406 C 47.71875 114.191406 60.894531 107.359375 66.726562 92.019531 C 70.863281 92.441406 74.832031 91.386719 76.640625 87.882812 C 73.761719 86.230469 70.058594 86.761719 67.925781 87.824219 L 73.574219 71.882812 L 51.503906 85.882812 L 44.453125 85.882812 L 44.453125 71.882812 Z M 23.304688 71.882812 " clip-rule="nonzero"/></clipPath><clipPath id="2927156d9e"><path d="M 10.734375 98 L 76.640625 98 L 76.640625 114.191406 L 10.734375 114.191406 Z M 10.734375 98 " clip-rule="nonzero"/></clipPath><clipPath id="e517ee63db"><path d="M 23.304688 71.882812 L 23.304688 85.882812 L 16.558594 85.882812 L 16.558594 92.882812 L 10.914062 92.882812 C 10.890625 93.085938 10.871094 93.289062 10.851562 93.492188 C 10.496094 97.308594 11.167969 100.824219 12.707031 103.832031 L 13.226562 104.753906 C 13.535156 105.308594 13.898438 105.828125 14.28125 106.332031 C 14.660156 106.839844 14.796875 107.121094 15.035156 107.457031 C 19.109375 112 25.183594 114.191406 32.191406 114.191406 C 47.71875 114.191406 60.894531 107.359375 66.726562 92.019531 C 70.863281 92.441406 74.832031 91.386719 76.640625 87.882812 C 73.761719 86.230469 70.058594 86.761719 67.925781 87.824219 L 73.574219 71.882812 L 51.503906 85.882812 L 44.453125 85.882812 L 44.453125 71.882812 Z M 23.304688 71.882812 " clip-rule="nonzero"/></clipPath><clipPath id="a4082514c0"><path d="M 13 106 L 35 106 L 35 114.191406 L 13 114.191406 Z M 13 106 " clip-rule="nonzero"/></clipPath><clipPath id="373ca7e2a3"><path d="M 23.304688 71.882812 L 23.304688 85.882812 L 16.558594 85.882812 L 16.558594 92.882812 L 10.914062 92.882812 C 10.890625 93.085938 10.871094 93.289062 10.851562 93.492188 C 10.496094 97.308594 11.167969 100.824219 12.707031 103.832031 L 13.226562 104.753906 C 13.535156 105.308594 13.898438 105.828125 14.28125 106.332031 C 14.660156 106.839844 14.796875 107.121094 15.035156 107.457031 C 19.109375 112 25.183594 114.191406 32.191406 114.191406 C 47.71875 114.191406 60.894531 107.359375 66.726562 92.019531 C 70.863281 92.441406 74.832031 91.386719 76.640625 87.882812 C 73.761719 86.230469 70.058594 86.761719 67.925781 87.824219 L 73.574219 71.882812 L 51.503906 85.882812 L 44.453125 85.882812 L 44.453125 71.882812 Z M 23.304688 71.882812 " clip-rule="nonzero"/></clipPath><clipPath id="4fcca2bd7f"><path d="M 10.734375 86 L 76.640625 86 L 76.640625 114.191406 L 10.734375 114.191406 Z M 10.734375 86 " clip-rule="nonzero"/></clipPath><clipPath id="142319229d"><path d="M 23.304688 71.882812 L 23.304688 85.882812 L 16.558594 85.882812 L 16.558594 92.882812 L 10.914062 92.882812 C 10.890625 93.085938 10.871094 93.289062 10.851562 93.492188 C 10.496094 97.308594 11.167969 100.824219 12.707031 103.832031 L 13.226562 104.753906 C 13.535156 105.308594 13.898438 105.828125 14.28125 106.332031 C 14.660156 106.839844 14.796875 107.121094 15.035156 107.457031 C 19.109375 112 25.183594 114.191406 32.191406 114.191406 C 47.71875 114.191406 60.894531 107.359375 66.726562 92.019531 C 70.863281 92.441406 74.832031 91.386719 76.640625 87.882812 C 73.761719 86.230469 70.058594 86.761719 67.925781 87.824219 L 73.574219 71.882812 L 51.503906 85.882812 L 44.453125 85.882812 L 44.453125 71.882812 Z M 23.304688 71.882812 " clip-rule="nonzero"/></clipPath></defs><path stroke-linecap="round" transform="matrix(0.306537, 0, 0, 0.304361, 0.00685534, 71.275089)" fill="none" stroke-linejoin="round" d="M 467.817131 113.244224 L 467.778902 87.678346 L 467.65147 42.026826 M 493.507334 61.701771 L 467.778902 87.678346 L 493.634766 113.321229 M 321.283578 88.024871 C 321.411009 82.544635 319.818115 76.936057 316.594096 72.405557 C 311.942844 65.872911 304.411639 61.419417 296.154074 61.316743 C 295.606118 61.316743 295.058162 61.316743 294.497463 61.36808 C 291.235215 61.560594 288.074913 62.022628 285.271418 63.177713 C 266.870301 70.839776 263.620796 96.392819 279.14196 107.956502 C 292.58599 117.967237 312.146735 113.873103 318.913351 98.600315 C 320.353327 95.366077 321.283578 91.297612 321.283578 88.024871 L 321.283578 41.808643 M 445.440149 64.371301 C 441.629945 61.90712 437.182584 61.021555 432.786195 61.021555 C 432.301955 61.021555 431.817715 61.047223 431.384448 61.072892 C 418.679521 61.611931 406.892101 70.595924 406.892101 88.024871 C 406.892101 108.623884 428.975991 119.738367 445.478378 110.02282 M 519.618062 107.776822 C 532.616081 96.649505 558.675835 74.317865 558.675835 74.317865 C 558.675835 74.317865 557.720099 72.508232 557.108427 71.686838 C 551.845504 64.627986 543.817315 61.111395 535.355859 61.111395 C 514.44434 61.111395 498.770258 88.14038 519.618062 107.776822 C 521.058038 109.137255 523.033227 110.2025 525.237793 111.126568 C 532.883687 114.309468 543.358562 114.052783 549.016523 109.855975 M 364.024124 61.1884 C 363.425195 61.201234 362.83901 61.265406 362.240082 61.27824 C 346.387596 61.573428 334.956984 78.039805 338.423123 93.312593 C 341.800059 108.187519 358.047583 117.004666 372.103285 112.140476 C 388.465497 107.853828 395.130168 87.254815 386.146243 73.34246 C 381.240128 65.731734 372.906104 61.021555 364.024124 61.1884 Z M 604.742345 61.701771 C 598.332538 61.714606 592.075648 63.973438 587.437139 68.298589 C 580.135311 74.330699 578.542416 81.954259 578.644361 91.579966 L 578.848252 113.449572 " stroke="#394d54" stroke-width="10.5" stroke-opacity="1" stroke-miterlimit="4"/><g clip-path="url(#df3cdcfb1e)"><path fill="#394d54" d="M 45.21875 85.195312 L 52.226562 85.195312 L 52.226562 92.308594 L 55.769531 92.308594 C 57.40625 92.308594 59.089844 92.019531 60.640625 91.496094 C 61.402344 91.242188 62.257812 90.882812 63.007812 90.433594 C 62.019531 89.152344 61.511719 87.535156 61.363281 85.9375 C 61.164062 83.765625 61.605469 80.9375 63.085938 79.238281 L 63.820312 78.394531 L 64.699219 79.09375 C 66.910156 80.859375 68.769531 83.320312 69.097656 86.128906 C 71.757812 85.351562 74.882812 85.535156 77.230469 86.882812 L 78.191406 87.433594 L 77.683594 88.414062 C 75.699219 92.257812 71.554688 93.449219 67.496094 93.238281 C 61.429688 108.246094 48.21875 115.351562 32.199219 115.351562 C 23.921875 115.351562 16.328125 112.28125 12.003906 104.988281 C 11.75 104.539062 11.535156 104.0625 11.304688 103.597656 C 9.839844 100.390625 9.355469 96.875 9.683594 93.359375 L 9.785156 92.308594 L 15.777344 92.308594 L 15.777344 85.195312 L 22.789062 85.195312 L 22.789062 78.234375 L 36.804688 78.234375 L 36.804688 71.273438 L 45.21875 71.273438 L 45.21875 85.195312 " fill-opacity="1" fill-rule="nonzero"/></g><g clip-path="url(#d04c2519f8)"><g clip-path="url(#03285e7f97)"><path fill="#20c2ef" d="M 37.972656 72.433594 L 44.050781 72.433594 L 44.050781 78.464844 L 37.972656 78.464844 Z M 37.972656 72.433594 " fill-opacity="1" fill-rule="nonzero"/></g></g><g clip-path="url(#1a558a22ab)"><g clip-path="url(#0de5c67c78)"><path stroke-linecap="butt" transform="matrix(0.306537, 0, 0, 0.304361, 0.00685534, 64.315582)" fill="none" stroke-linejoin="miter" d="M 126.287801 21.97499 L 126.287801 5.457277 M 129.269699 21.97499 L 129.269699 5.457277 M 132.264341 21.97499 L 132.264341 5.457277 M 135.271726 21.97499 L 135.271726 5.457277 M 138.266368 21.97499 L 138.266368 5.457277 M 141.248266 21.97499 L 141.248266 5.457277 " stroke="#394d54" stroke-width="1.56" stroke-opacity="1" stroke-miterlimit="4"/></g></g><g clip-path="url(#7a3edc51d5)"><g clip-path="url(#33d2ef372d)"><path fill="#000000" d="M 38.71875 77.964844 L 38.71875 72.9375 M 39.632812 77.964844 L 39.632812 72.9375 M 40.550781 77.964844 L 40.550781 72.9375 M 41.472656 77.964844 L 41.472656 72.9375 M 42.390625 77.964844 L 42.390625 72.9375 M 43.304688 77.964844 L 43.304688 72.9375 " fill-opacity="1" fill-rule="nonzero"/></g></g><g clip-path="url(#57475ba586)"><g clip-path="url(#f092c4cdb5)"><path stroke-linecap="butt" transform="matrix(0.306537, 0, 0, 0.304361, 0.00685534, 71.275089)" fill="none" stroke-linejoin="miter" d="M 126.287801 21.979687 L 126.287801 5.461974 M 129.269699 21.979687 L 129.269699 5.461974 M 132.264341 21.979687 L 132.264341 5.461974 M 135.271726 21.979687 L 135.271726 5.461974 M 138.266368 21.979687 L 138.266368 5.461974 M 141.248266 21.979687 L 141.248266 5.461974 " stroke="#394d54" stroke-width="1.56" stroke-opacity="1" stroke-miterlimit="4"/></g></g><g clip-path="url(#dec2c2639e)"><g clip-path="url(#5ced4a76ed)"><path fill="#00acd3" d="M 44.984375 78.464844 L 51.058594 78.464844 L 51.058594 72.433594 L 44.984375 72.433594 Z M 44.984375 78.464844 " fill-opacity="1" fill-rule="nonzero"/></g></g><g clip-path="url(#81595a8eca)"><g clip-path="url(#be6b4ccc4a)"><path fill="#000000" d="M 45.730469 72.9375 L 45.730469 77.964844 M 46.640625 72.9375 L 46.640625 77.964844 M 47.5625 72.9375 L 47.5625 77.964844 M 48.480469 72.9375 L 48.480469 77.964844 M 49.402344 72.9375 L 49.402344 77.964844 M 50.3125 72.9375 L 50.3125 77.964844 " fill-opacity="1" fill-rule="nonzero"/></g></g><g clip-path="url(#ec0774bb1d)"><g clip-path="url(#27a88773ea)"><path stroke-linecap="butt" transform="matrix(0.306537, 0, 0, -0.304361, 7.016132, 79.626342)" fill="none" stroke-linejoin="miter" d="M 126.295767 21.97669 L 126.295767 5.458976 M 129.264922 21.97669 L 129.264922 5.458976 M 132.272307 21.97669 L 132.272307 5.458976 M 135.266949 21.97669 L 135.266949 5.458976 M 138.274334 21.97669 L 138.274334 5.458976 M 141.243489 21.97669 L 141.243489 5.458976 " stroke="#394d54" stroke-width="1.56" stroke-opacity="1" stroke-miterlimit="4"/></g></g><g clip-path="url(#385b380186)"><g clip-path="url(#3c19200274)"><path stroke-linecap="butt" transform="matrix(0.306537, 0, 0, -0.304361, 7.016132, 72.666827)" fill="none" stroke-linejoin="miter" d="M 126.295767 21.981363 L 126.295767 5.46365 M 129.264922 21.981363 L 129.264922 5.46365 M 132.272307 21.981363 L 132.272307 5.46365 M 135.266949 21.981363 L 135.266949 5.46365 M 138.274334 21.981363 L 138.274334 5.46365 M 141.243489 21.981363 L 141.243489 5.46365 " stroke="#394d54" stroke-width="1.56" stroke-opacity="1" stroke-miterlimit="4"/></g></g><g clip-path="url(#82fc377ce2)"><g clip-path="url(#71e19c87e6)"><path fill="#00acd3" d="M 9.9375 79.394531 L 16.011719 79.394531 L 16.011719 85.425781 L 9.9375 85.425781 Z M 9.9375 79.394531 " fill-opacity="1" fill-rule="nonzero"/></g></g><g clip-path="url(#eec3687b8e)"><g clip-path="url(#9a9d8c6f90)"><path fill="#20c2ef" d="M 9.9375 86.355469 L 16.011719 86.355469 L 16.011719 92.386719 L 9.9375 92.386719 Z M 9.9375 86.355469 " fill-opacity="1" fill-rule="nonzero"/></g></g><g clip-path="url(#751de9c57d)"><g clip-path="url(#0b22b15b74)"><path fill="#000000" d="M 10.683594 84.921875 L 10.683594 79.898438 M 11.59375 84.921875 L 11.59375 79.898438 M 12.515625 84.921875 L 12.515625 79.898438 M 13.433594 84.921875 L 13.433594 79.898438 M 14.355469 84.921875 L 14.355469 79.898438 M 15.265625 84.921875 L 15.265625 79.898438 " fill-opacity="1" fill-rule="nonzero"/></g></g><g clip-path="url(#678dfcf416)"><g clip-path="url(#e8acbd39dc)"><path stroke-linecap="butt" transform="matrix(0.306537, 0, 0, 0.304361, -28.030251, 78.2346)" fill="none" stroke-linejoin="miter" d="M 126.294163 21.971542 L 126.294163 5.466663 M 129.263318 21.971542 L 129.263318 5.466663 M 132.270703 21.971542 L 132.270703 5.466663 M 135.265345 21.971542 L 135.265345 5.466663 M 138.27273 21.971542 L 138.27273 5.466663 M 141.241885 21.971542 L 141.241885 5.466663 " stroke="#394d54" stroke-width="1.56" stroke-opacity="1" stroke-miterlimit="4"/></g></g><g clip-path="url(#3e6b92375b)"><g clip-path="url(#e011bc08bd)"><path fill="#000000" d="M 10.683594 91.882812 L 10.683594 86.855469 M 11.59375 91.882812 L 11.59375 86.855469 M 12.515625 91.882812 L 12.515625 86.855469 M 13.433594 91.882812 L 13.433594 86.855469 M 14.355469 91.882812 L 14.355469 86.855469 M 15.265625 91.882812 L 15.265625 86.855469 " fill-opacity="1" fill-rule="nonzero"/></g></g><g clip-path="url(#97a4393b5f)"><g clip-path="url(#9f7f6be949)"><path stroke-linecap="butt" transform="matrix(0.306537, 0, 0, 0.304361, -28.030251, 85.194117)" fill="none" stroke-linejoin="miter" d="M 126.294163 21.976207 L 126.294163 5.458494 M 129.263318 21.976207 L 129.263318 5.458494 M 132.270703 21.976207 L 132.270703 5.458494 M 135.265345 21.976207 L 135.265345 5.458494 M 138.27273 21.976207 L 138.27273 5.458494 M 141.241885 21.976207 L 141.241885 5.458494 " stroke="#394d54" stroke-width="1.56" stroke-opacity="1" stroke-miterlimit="4"/></g></g><g clip-path="url(#d142482ab9)"><g clip-path="url(#156827cce5)"><path fill="#00acd3" d="M 16.945312 92.386719 L 23.019531 92.386719 L 23.019531 86.355469 L 16.945312 86.355469 Z M 16.945312 92.386719 " fill-opacity="1" fill-rule="nonzero"/></g></g><g clip-path="url(#e2ad80890e)"><g clip-path="url(#2e2550f92e)"><path fill="#20c2ef" d="M 16.945312 85.425781 L 23.019531 85.425781 L 23.019531 79.394531 L 16.945312 79.394531 Z M 16.945312 85.425781 " fill-opacity="1" fill-rule="nonzero"/></g></g><g clip-path="url(#bce8e9715c)"><g clip-path="url(#5247037630)"><path fill="#000000" d="M 17.691406 86.855469 L 17.691406 91.882812 M 18.601562 86.855469 L 18.601562 91.882812 M 19.523438 86.855469 L 19.523438 91.882812 M 20.445312 86.855469 L 20.445312 91.882812 M 21.363281 86.855469 L 21.363281 91.882812 M 22.277344 86.855469 L 22.277344 91.882812 " fill-opacity="1" fill-rule="nonzero"/></g></g><g clip-path="url(#0e0a287618)"><g clip-path="url(#b9069fda2f)"><path stroke-linecap="butt" transform="matrix(0.306537, 0, 0, -0.304361, -21.020974, 93.545363)" fill="none" stroke-linejoin="miter" d="M 126.289386 21.980146 L 126.289386 5.462432 M 129.258542 21.980146 L 129.258542 5.462432 M 132.265927 21.980146 L 132.265927 5.462432 M 135.273312 21.980146 L 135.273312 5.462432 M 138.267953 21.980146 L 138.267953 5.462432 M 141.249852 21.980146 L 141.249852 5.462432 " stroke="#394d54" stroke-width="1.56" stroke-opacity="1" stroke-miterlimit="4"/></g></g><g clip-path="url(#4a59929810)"><g clip-path="url(#eea4945a77)"><path fill="#000000" d="M 17.691406 79.898438 L 17.691406 84.921875 M 18.601562 79.898438 L 18.601562 84.921875 M 19.523438 79.898438 L 19.523438 84.921875 M 20.445312 79.898438 L 20.445312 84.921875 M 21.363281 79.898438 L 21.363281 84.921875 M 22.277344 79.898438 L 22.277344 84.921875 " fill-opacity="1" fill-rule="nonzero"/></g></g><g clip-path="url(#36f79c417a)"><g clip-path="url(#80c14b756c)"><path stroke-linecap="butt" transform="matrix(0.306537, 0, 0, -0.304361, -21.020974, 86.585852)" fill="none" stroke-linejoin="miter" d="M 126.289386 21.972 L 126.289386 5.467122 M 129.258542 21.972 L 129.258542 5.467122 M 132.265927 21.972 L 132.265927 5.467122 M 135.273312 21.972 L 135.273312 5.467122 M 138.267953 21.972 L 138.267953 5.467122 M 141.249852 21.972 L 141.249852 5.467122 " stroke="#394d54" stroke-width="1.56" stroke-opacity="1" stroke-miterlimit="4"/></g></g><g clip-path="url(#6ec843dc4b)"><g clip-path="url(#cc0eb5b5fc)"><path fill="#00acd3" d="M 23.957031 79.394531 L 30.03125 79.394531 L 30.03125 85.425781 L 23.957031 85.425781 Z M 23.957031 79.394531 " fill-opacity="1" fill-rule="nonzero"/></g></g><g clip-path="url(#10caa9185f)"><g clip-path="url(#0d5f8ee376)"><path fill="#20c2ef" d="M 23.957031 86.355469 L 30.03125 86.355469 L 30.03125 92.386719 L 23.957031 92.386719 Z M 23.957031 86.355469 " fill-opacity="1" fill-rule="nonzero"/></g></g><g clip-path="url(#7dc28e338c)"><g clip-path="url(#2b881b6b94)"><path fill="#000000" d="M 24.703125 84.921875 L 24.703125 79.898438 M 25.613281 84.921875 L 25.613281 79.898438 M 26.53125 84.921875 L 26.53125 79.898438 M 27.453125 84.921875 L 27.453125 79.898438 M 28.375 84.921875 L 28.375 79.898438 M 29.285156 84.921875 L 29.285156 79.898438 " fill-opacity="1" fill-rule="nonzero"/></g></g><g clip-path="url(#50b64c5e46)"><g clip-path="url(#b0101f440e)"><path stroke-linecap="butt" transform="matrix(0.306537, 0, 0, 0.304361, -14.011699, 78.2346)" fill="none" stroke-linejoin="miter" d="M 126.297356 21.971542 L 126.297356 5.466663 M 129.266511 21.971542 L 129.266511 5.466663 M 132.261153 21.971542 L 132.261153 5.466663 M 135.268538 21.971542 L 135.268538 5.466663 M 138.275923 21.971542 L 138.275923 5.466663 M 141.245078 21.971542 L 141.245078 5.466663 " stroke="#394d54" stroke-width="1.56" stroke-opacity="1" stroke-miterlimit="4"/></g></g><g clip-path="url(#d637d054a0)"><g clip-path="url(#0b2d74ea59)"><path fill="#000000" d="M 24.703125 91.882812 L 24.703125 86.855469 M 25.613281 91.882812 L 25.613281 86.855469 M 26.53125 91.882812 L 26.53125 86.855469 M 27.453125 91.882812 L 27.453125 86.855469 M 28.375 91.882812 L 28.375 86.855469 M 29.285156 91.882812 L 29.285156 86.855469 " fill-opacity="1" fill-rule="nonzero"/></g></g><g clip-path="url(#2674e559d6)"><g clip-path="url(#0d94885974)"><path stroke-linecap="butt" transform="matrix(0.306537, 0, 0, 0.304361, -14.011699, 85.194117)" fill="none" stroke-linejoin="miter" d="M 126.297356 21.976207 L 126.297356 5.458494 M 129.266511 21.976207 L 129.266511 5.458494 M 132.261153 21.976207 L 132.261153 5.458494 M 135.268538 21.976207 L 135.268538 5.458494 M 138.275923 21.976207 L 138.275923 5.458494 M 141.245078 21.976207 L 141.245078 5.458494 " stroke="#394d54" stroke-width="1.56" stroke-opacity="1" stroke-miterlimit="4"/></g></g><g clip-path="url(#d90c0fa7b8)"><g clip-path="url(#98d7c4062c)"><path fill="#00acd3" d="M 30.964844 92.386719 L 37.039062 92.386719 L 37.039062 86.355469 L 30.964844 86.355469 Z M 30.964844 92.386719 " fill-opacity="1" fill-rule="nonzero"/></g></g><g clip-path="url(#b76cf8a2ee)"><g clip-path="url(#ff5ccda3fc)"><path fill="#20c2ef" d="M 30.964844 85.425781 L 37.039062 85.425781 L 37.039062 79.394531 L 30.964844 79.394531 Z M 30.964844 85.425781 " fill-opacity="1" fill-rule="nonzero"/></g></g><g clip-path="url(#2485ba549f)"><g clip-path="url(#25fced578a)"><path fill="#000000" d="M 31.710938 86.855469 L 31.710938 91.882812 M 32.621094 86.855469 L 32.621094 91.882812 M 33.542969 86.855469 L 33.542969 91.882812 M 34.460938 86.855469 L 34.460938 91.882812 M 35.382812 86.855469 L 35.382812 91.882812 M 36.292969 86.855469 L 36.292969 91.882812 " fill-opacity="1" fill-rule="nonzero"/></g></g><g clip-path="url(#7c74c64854)"><g clip-path="url(#1f611a272b)"><path stroke-linecap="butt" transform="matrix(0.306537, 0, 0, -0.304361, -7.002421, 93.545363)" fill="none" stroke-linejoin="miter" d="M 126.292578 21.980146 L 126.292578 5.462432 M 129.261733 21.980146 L 129.261733 5.462432 M 132.269118 21.980146 L 132.269118 5.462432 M 135.26376 21.980146 L 135.26376 5.462432 M 138.271145 21.980146 L 138.271145 5.462432 M 141.2403 21.980146 L 141.2403 5.462432 " stroke="#394d54" stroke-width="1.56" stroke-opacity="1" stroke-miterlimit="4"/></g></g><g clip-path="url(#e2de847a02)"><g clip-path="url(#515f5ee918)"><path fill="#000000" d="M 31.710938 79.898438 L 31.710938 84.921875 M 32.621094 79.898438 L 32.621094 84.921875 M 33.542969 79.898438 L 33.542969 84.921875 M 34.460938 79.898438 L 34.460938 84.921875 M 35.382812 79.898438 L 35.382812 84.921875 M 36.292969 79.898438 L 36.292969 84.921875 " fill-opacity="1" fill-rule="nonzero"/></g></g><g clip-path="url(#af44c63bb1)"><g clip-path="url(#806f80ad9d)"><path stroke-linecap="butt" transform="matrix(0.306537, 0, 0, -0.304361, -7.002421, 86.585852)" fill="none" stroke-linejoin="miter" d="M 126.292578 21.972 L 126.292578 5.467122 M 129.261733 21.972 L 129.261733 5.467122 M 132.269118 21.972 L 132.269118 5.467122 M 135.26376 21.972 L 135.26376 5.467122 M 138.271145 21.972 L 138.271145 5.467122 M 141.2403 21.972 L 141.2403 5.467122 " stroke="#394d54" stroke-width="1.56" stroke-opacity="1" stroke-miterlimit="4"/></g></g><g clip-path="url(#b3623106ed)"><g clip-path="url(#a276239c15)"><path fill="#00acd3" d="M 37.972656 79.394531 L 44.050781 79.394531 L 44.050781 85.425781 L 37.972656 85.425781 Z M 37.972656 79.394531 " fill-opacity="1" fill-rule="nonzero"/></g></g><g clip-path="url(#e90446c774)"><g clip-path="url(#9cb0835467)"><path fill="#20c2ef" d="M 37.972656 86.355469 L 44.050781 86.355469 L 44.050781 92.386719 L 37.972656 92.386719 Z M 37.972656 86.355469 " fill-opacity="1" fill-rule="nonzero"/></g></g><g clip-path="url(#af1ba76870)"><g clip-path="url(#8d288bd601)"><path fill="#000000" d="M 38.71875 84.921875 L 38.71875 79.898438 M 39.632812 84.921875 L 39.632812 79.898438 M 40.550781 84.921875 L 40.550781 79.898438 M 41.472656 84.921875 L 41.472656 79.898438 M 42.390625 84.921875 L 42.390625 79.898438 M 43.304688 84.921875 L 43.304688 79.898438 " fill-opacity="1" fill-rule="nonzero"/></g></g><g clip-path="url(#22846665a6)"><g clip-path="url(#4e23cb1f87)"><path stroke-linecap="butt" transform="matrix(0.306537, 0, 0, 0.304361, 0.00685534, 78.2346)" fill="none" stroke-linejoin="miter" d="M 126.287801 21.971542 L 126.287801 5.466663 M 129.269699 21.971542 L 129.269699 5.466663 M 132.264341 21.971542 L 132.264341 5.466663 M 135.271726 21.971542 L 135.271726 5.466663 M 138.266368 21.971542 L 138.266368 5.466663 M 141.248266 21.971542 L 141.248266 5.466663 " stroke="#394d54" stroke-width="1.56" stroke-opacity="1" stroke-miterlimit="4"/></g></g><g clip-path="url(#617755fd71)"><g clip-path="url(#8c719592e6)"><path fill="#000000" d="M 38.71875 91.882812 L 38.71875 86.855469 M 39.632812 91.882812 L 39.632812 86.855469 M 40.550781 91.882812 L 40.550781 86.855469 M 41.472656 91.882812 L 41.472656 86.855469 M 42.390625 91.882812 L 42.390625 86.855469 M 43.304688 91.882812 L 43.304688 86.855469 " fill-opacity="1" fill-rule="nonzero"/></g></g><g clip-path="url(#21c88d7d15)"><g clip-path="url(#49e06f6cbc)"><path stroke-linecap="butt" transform="matrix(0.306537, 0, 0, 0.304361, 0.00685534, 85.194117)" fill="none" stroke-linejoin="miter" d="M 126.287801 21.976207 L 126.287801 5.458494 M 129.269699 21.976207 L 129.269699 5.458494 M 132.264341 21.976207 L 132.264341 5.458494 M 135.271726 21.976207 L 135.271726 5.458494 M 138.266368 21.976207 L 138.266368 5.458494 M 141.248266 21.976207 L 141.248266 5.458494 " stroke="#394d54" stroke-width="1.56" stroke-opacity="1" stroke-miterlimit="4"/></g></g><g clip-path="url(#5c153771b8)"><g clip-path="url(#fc0b0c0a08)"><path fill="#00acd3" d="M 44.984375 92.386719 L 51.058594 92.386719 L 51.058594 86.355469 L 44.984375 86.355469 Z M 44.984375 92.386719 " fill-opacity="1" fill-rule="nonzero"/></g></g><g clip-path="url(#b2d5bdc45f)"><g clip-path="url(#95e9c04ddf)"><path fill="#20c2ef" d="M 44.984375 85.425781 L 51.058594 85.425781 L 51.058594 79.394531 L 44.984375 79.394531 Z M 44.984375 85.425781 " fill-opacity="1" fill-rule="nonzero"/></g></g><g clip-path="url(#369059222a)"><g clip-path="url(#925772dea8)"><path fill="#000000" d="M 45.730469 86.855469 L 45.730469 91.882812 M 46.640625 86.855469 L 46.640625 91.882812 M 47.5625 86.855469 L 47.5625 91.882812 M 48.480469 86.855469 L 48.480469 91.882812 M 49.402344 86.855469 L 49.402344 91.882812 M 50.3125 86.855469 L 50.3125 91.882812 " fill-opacity="1" fill-rule="nonzero"/></g></g><g clip-path="url(#7fb4f97a69)"><g clip-path="url(#e628d1b524)"><path stroke-linecap="butt" transform="matrix(0.306537, 0, 0, -0.304361, 7.016132, 93.545363)" fill="none" stroke-linejoin="miter" d="M 126.295767 21.980146 L 126.295767 5.462432 M 129.264922 21.980146 L 129.264922 5.462432 M 132.272307 21.980146 L 132.272307 5.462432 M 135.266949 21.980146 L 135.266949 5.462432 M 138.274334 21.980146 L 138.274334 5.462432 M 141.243489 21.980146 L 141.243489 5.462432 " stroke="#394d54" stroke-width="1.56" stroke-opacity="1" stroke-miterlimit="4"/></g></g><g clip-path="url(#b3e7a30b38)"><g clip-path="url(#8e0f0b1c39)"><path fill="#000000" d="M 45.730469 79.898438 L 45.730469 84.921875 M 46.640625 79.898438 L 46.640625 84.921875 M 47.5625 79.898438 L 47.5625 84.921875 M 48.480469 79.898438 L 48.480469 84.921875 M 49.402344 79.898438 L 49.402344 84.921875 M 50.3125 79.898438 L 50.3125 84.921875 " fill-opacity="1" fill-rule="nonzero"/></g></g><g clip-path="url(#bc6edb6604)"><g clip-path="url(#770eba692f)"><path stroke-linecap="butt" transform="matrix(0.306537, 0, 0, -0.304361, 7.016132, 86.585852)" fill="none" stroke-linejoin="miter" d="M 126.295767 21.972 L 126.295767 5.467122 M 129.264922 21.972 L 129.264922 5.467122 M 132.272307 21.972 L 132.272307 5.467122 M 135.266949 21.972 L 135.266949 5.467122 M 138.274334 21.972 L 138.274334 5.467122 M 141.243489 21.972 L 141.243489 5.467122 " stroke="#394d54" stroke-width="1.56" stroke-opacity="1" stroke-miterlimit="4"/></g></g><g clip-path="url(#db8ecdcebd)"><g clip-path="url(#174de1a051)"><path fill="#17b5eb" d="M 67.925781 87.824219 C 68.394531 84.199219 65.664062 81.351562 63.96875 80 C 62.015625 82.242188 61.710938 88.117188 64.777344 90.59375 C 63.066406 92.101562 59.460938 93.46875 55.769531 93.46875 L 10.429688 93.46875 C 10.070312 97.292969 10.429688 115.710938 10.429688 115.710938 L 76.949219 115.710938 L 76.644531 87.886719 C 73.765625 86.234375 70.058594 86.761719 67.925781 87.824219 " fill-opacity="1" fill-rule="nonzero"/></g></g><g clip-path="url(#2927156d9e)"><g clip-path="url(#e517ee63db)"><path fill="#000000" d="M 10.429688 98.363281 L 10.429688 115.710938 L 76.949219 115.710938 L 76.949219 98.363281 " fill-opacity="0.17" fill-rule="nonzero"/></g></g><g clip-path="url(#a4082514c0)"><g clip-path="url(#373ca7e2a3)"><path fill="#d4edf1" d="M 34.105469 114.15625 C 29.953125 112.199219 27.675781 109.542969 26.410156 106.640625 L 13.800781 107.191406 L 20.238281 115.710938 L 34.105469 114.15625 " fill-opacity="1" fill-rule="nonzero"/></g></g><g clip-path="url(#4fcca2bd7f)"><g clip-path="url(#142319229d)"><path fill="#000000" d="M 68.210938 87.691406 L 68.210938 87.699219 C 61.816406 95.886719 52.644531 103.035156 42.796875 106.789062 C 34.015625 110.140625 26.355469 110.15625 21.070312 107.464844 C 20.503906 107.144531 19.945312 106.792969 19.386719 106.457031 C 15.511719 103.769531 13.332031 99.324219 13.511719 93.464844 L 10.429688 93.464844 L 10.429688 115.710938 L 76.949219 115.710938 L 76.949219 86.492188 L 69.285156 86.492188 Z M 68.210938 87.691406 " fill-opacity="0.085" fill-rule="nonzero"/></g></g><path stroke-linecap="round" transform="matrix(0.306537, 0, 0, 0.304361, 0.00685534, 71.275089)" fill="none" stroke-linejoin="miter" d="M 45.623622 117.030335 C 59.794012 117.800392 74.907395 117.941569 88.096562 113.808932 " stroke="#394d54" stroke-width="3.4" stroke-opacity="1" stroke-miterlimit="4"/><path fill="#d4edf1" d="M 31.324219 103.828125 C 31.324219 104.75 30.574219 105.492188 29.648438 105.492188 C 28.722656 105.492188 27.972656 104.75 27.972656 103.828125 C 27.972656 102.910156 28.722656 102.164062 29.648438 102.164062 C 30.574219 102.164062 31.324219 102.910156 31.324219 103.828125 Z M 31.324219 103.828125 " fill-opacity="1" fill-rule="nonzero"/><path fill="#394d54" d="M 30.085938 102.71875 C 29.9375 102.800781 29.839844 102.960938 29.839844 103.140625 C 29.839844 103.40625 30.058594 103.625 30.328125 103.625 C 30.515625 103.625 30.675781 103.523438 30.757812 103.371094 C 30.816406 103.511719 30.851562 103.667969 30.851562 103.828125 C 30.851562 104.488281 30.3125 105.019531 29.648438 105.019531 C 28.988281 105.019531 28.449219 104.488281 28.449219 103.828125 C 28.449219 103.171875 28.988281 102.636719 29.648438 102.636719 C 29.804688 102.636719 29.949219 102.664062 30.085938 102.71875 Z M 30.085938 102.71875 " fill-opacity="1" fill-rule="nonzero"/><path fill="#394d54" d="M 0.0078125 98.71875 L 77.96875 98.71875 C 76.269531 98.289062 72.597656 97.710938 73.203125 95.503906 C 70.117188 99.050781 62.671875 97.992188 60.792969 96.242188 C 58.703125 99.253906 46.523438 98.109375 45.671875 95.761719 C 43.050781 98.820312 34.925781 98.820312 32.300781 95.761719 C 31.453125 98.109375 19.273438 99.253906 17.179688 96.242188 C 15.300781 97.992188 7.859375 99.050781 4.773438 95.503906 C 5.378906 97.710938 1.703125 98.289062 0.0078125 98.71875 " fill-opacity="1" fill-rule="nonzero"/></svg>