<svg xmlns="http://www.w3.org/2000/svg" xmlns:xlink="http://www.w3.org/1999/xlink" width="250" zoomAndPan="magnify" viewBox="0 0 187.5 187.499992" height="250" preserveAspectRatio="xMidYMid meet" version="1.0"><path fill="#326ce5" d="M 92.871094 5.320312 C 91.246094 5.402344 89.703125 5.792969 88.238281 6.492188 L 25.039062 36.726562 C 24.21875 37.117188 23.457031 37.59375 22.746094 38.15625 C 22.035156 38.714844 21.398438 39.347656 20.832031 40.054688 C 20.265625 40.757812 19.789062 41.515625 19.394531 42.328125 C 19 43.140625 18.703125 43.988281 18.5 44.867188 L 2.90625 112.773438 C 2.542969 114.351562 2.503906 115.941406 2.789062 117.535156 C 3.074219 119.132812 3.660156 120.613281 4.546875 121.972656 C 4.761719 122.300781 4.992188 122.621094 5.234375 122.925781 L 48.980469 177.375 C 49.546875 178.082031 50.183594 178.714844 50.894531 179.277344 C 51.605469 179.835938 52.367188 180.3125 53.1875 180.703125 C 54.003906 181.09375 54.855469 181.390625 55.738281 181.589844 C 56.625 181.792969 57.519531 181.890625 58.429688 181.890625 L 128.582031 181.875 C 129.488281 181.875 130.382812 181.777344 131.269531 181.578125 C 132.152344 181.378906 133.003906 181.082031 133.824219 180.691406 C 134.640625 180.300781 135.40625 179.828125 136.113281 179.265625 C 136.824219 178.703125 137.464844 178.070312 138.03125 177.367188 L 181.757812 122.910156 C 182.324219 122.207031 182.804688 121.449219 183.199219 120.636719 C 183.59375 119.824219 183.890625 118.976562 184.09375 118.097656 C 184.296875 117.21875 184.398438 116.328125 184.398438 115.425781 C 184.398438 114.523438 184.296875 113.632812 184.09375 112.753906 L 168.476562 44.847656 C 168.277344 43.96875 167.976562 43.125 167.585938 42.3125 C 167.191406 41.5 166.710938 40.742188 166.144531 40.039062 C 165.578125 39.332031 164.941406 38.699219 164.230469 38.136719 C 163.519531 37.578125 162.757812 37.101562 161.9375 36.707031 L 98.730469 6.492188 C 96.878906 5.609375 94.925781 5.214844 92.871094 5.320312 Z M 92.871094 5.320312 " fill-opacity="1" fill-rule="nonzero"/><path stroke-linecap="butt" transform="matrix(0.258654, 0, 0, 0.258937, -1.619258, -42.53415)" fill-opacity="1" fill="#ffffff" fill-rule="nonzero" stroke-linejoin="miter" d="M 367.731452 274.057845 C 359.651775 274.057845 353.112523 281.329147 353.112523 290.305133 C 353.112523 290.440904 353.142727 290.576675 353.142727 290.712447 C 353.127625 291.934387 353.067216 293.397699 353.112523 294.468783 C 353.293749 299.643175 354.426414 303.610712 355.106013 308.37779 C 356.344393 318.575716 357.371343 327.038788 356.737051 334.898433 C 356.11786 337.870314 353.928041 340.585738 351.979858 342.471449 L 351.632507 348.656582 C 342.858129 349.380695 334.023343 350.708236 325.203659 352.714633 C 287.221628 361.343648 254.525366 380.894702 229.636942 407.309745 C 228.021007 406.20849 225.196895 404.187008 224.351172 403.553409 C 221.753594 403.915465 219.110709 404.715007 215.667408 402.70861 C 209.128156 398.303588 203.162787 392.224055 195.959038 384.907496 C 192.651656 381.39253 190.250407 378.058592 186.323835 374.679398 C 185.432805 373.910027 184.073607 372.884201 183.076862 372.084659 C 180.011115 369.640777 176.386588 368.373579 172.882877 368.252894 C 168.397524 368.086951 164.063193 369.851977 161.239082 373.397114 C 156.194947 379.718018 157.810883 389.37286 164.833405 394.969651 C 164.893814 395.029994 164.969325 395.060165 165.044836 395.120508 C 166.011377 395.904964 167.189348 396.900619 168.080378 397.56439 C 172.248585 400.64187 176.054339 402.210782 180.207444 404.654664 C 188.951617 410.055341 196.200673 414.535791 201.954611 419.936468 C 204.204839 422.335093 204.597496 426.544 204.884438 428.369369 L 209.581221 432.563191 C 184.481366 470.322673 172.867775 516.967627 179.739276 564.502636 L 173.607783 566.282748 C 171.991848 568.364573 169.711416 571.638168 167.325268 572.618738 C 159.804373 574.987191 151.332039 575.862161 141.10785 576.933245 C 136.305351 577.340559 132.167348 577.099188 127.077907 578.064672 C 125.960345 578.275871 124.389716 578.683185 123.166438 578.969813 C 123.121131 578.969813 123.090927 578.984899 123.04562 578.999985 C 122.985211 579.01507 122.894598 579.045242 122.834189 579.060327 C 114.210834 581.142153 108.668326 589.06214 110.450386 596.876527 C 112.232445 604.675829 120.659473 609.427822 129.328135 607.557196 C 129.388544 607.54211 129.479157 607.54211 129.539566 607.527025 C 129.645281 607.511939 129.735894 607.451596 129.826507 607.43651 C 131.034683 607.164968 132.544903 606.87834 133.602057 606.591712 C 138.615987 605.249085 142.240515 603.287946 146.740971 601.553091 C 156.406378 598.083383 164.425646 595.18693 172.233483 594.055503 C 175.495558 593.799047 178.923757 596.076986 180.645408 597.027384 L 187.018536 595.941215 C 201.682771 641.42457 232.430849 678.173311 271.364318 701.254417 L 268.706331 707.620578 C 269.65777 710.094632 270.714924 713.443655 270.00512 715.887537 C 267.165907 723.249353 262.302999 731.018484 256.760492 739.67767 C 254.087403 743.690463 251.338802 746.798116 248.92245 751.36908 C 248.348567 752.470335 247.608559 754.144847 247.049778 755.306445 C 243.28933 763.347118 246.03793 772.609731 253.271884 776.094526 C 260.536042 779.594406 269.552055 775.898412 273.448422 767.842653 C 273.463524 767.827568 273.478626 767.827568 273.478626 767.812482 C 273.493729 767.797396 273.478626 767.782311 273.478626 767.782311 C 274.037408 766.635798 274.822722 765.127229 275.29089 764.056145 C 277.374994 759.319238 278.054593 755.246102 279.519506 750.660052 C 283.385669 740.929782 285.515079 730.731856 290.831053 724.38078 C 292.295967 722.645926 294.667012 721.96707 297.143772 721.303299 L 300.451154 715.31428 C 334.385796 728.333231 372.382929 731.833111 410.334755 723.219182 C 418.988316 721.242957 427.339832 718.708561 435.419508 715.646166 C 436.355845 717.305591 438.077495 720.473586 438.545664 721.273128 C 441.052629 722.087755 443.786127 722.510155 446.021252 725.813921 C 449.993131 732.617567 452.726629 740.673325 456.049112 750.403596 C 457.498924 754.989645 458.223829 759.062782 460.29283 763.814774 C 460.760999 764.885858 461.546313 766.409513 462.105094 767.556025 C 466.001462 775.641955 475.047679 779.353035 482.326939 775.838069 C 489.54579 772.36836 492.309493 763.105747 488.549045 755.065074 C 487.990264 753.903476 487.220052 752.213878 486.646168 751.127709 C 484.214714 746.541659 481.481216 743.464178 478.793024 739.46647 C 473.26562 730.807284 468.659449 723.61141 465.820235 716.249593 C 464.642264 712.447999 466.031666 710.094632 466.9529 707.620578 C 466.394119 706.986979 465.216147 703.396585 464.521446 701.722074 C 504.965136 677.82634 534.807081 639.689716 548.821922 595.654586 C 550.724799 595.9563 554.001976 596.529556 555.074233 596.740756 C 557.279154 595.29253 559.302848 593.406819 563.259625 593.708532 C 571.067462 594.839959 579.086729 597.751497 588.767239 601.221206 C 593.267694 602.940975 596.892222 604.932286 601.89105 606.274912 C 602.948204 606.56154 604.458424 606.833083 605.6666 607.08954 C 605.772315 607.119711 605.847826 607.164968 605.953542 607.180054 C 606.013951 607.195139 606.104564 607.195139 606.164973 607.210225 C 614.848737 609.080851 623.260662 604.343944 625.042722 596.529556 C 626.824781 588.715169 621.297376 580.795182 612.67402 578.713356 C 611.420538 578.426728 609.638478 577.943986 608.4152 577.717701 C 603.325759 576.752217 599.187756 576.993588 594.385257 576.586274 C 584.161068 575.51519 575.703837 574.655306 568.167839 572.271767 C 565.102093 571.095083 562.927376 567.444346 561.85512 565.935777 L 555.95016 564.216008 C 559.015907 542.055129 558.185286 519.004195 552.884414 495.938175 C 547.538235 472.645869 538.084259 451.359961 525.489024 432.593362 C 526.999244 431.220564 529.85356 428.686168 530.669079 427.931884 C 530.910714 425.306974 530.699283 422.561378 533.417679 419.64984 C 539.171617 414.249163 546.420672 409.768713 555.164846 404.368036 C 559.317951 401.924154 563.153909 400.355242 567.322116 397.277761 C 568.273555 396.58382 569.557242 395.482564 570.538885 394.683023 C 577.561407 389.086232 579.177343 379.43139 574.133208 373.125572 C 569.104176 366.804667 559.348155 366.216326 552.325632 371.813117 C 551.328887 372.597572 549.969689 373.638485 549.07866 374.407855 C 545.152088 377.78705 542.720634 381.120987 539.428354 384.620867 C 532.209503 391.952513 526.244134 398.062217 519.704882 402.467239 C 516.865669 404.111579 512.712564 403.538323 510.824789 403.432723 L 505.26718 407.40026 C 473.552561 374.136313 430.360272 352.880575 383.8606 348.747096 C 383.72468 346.801042 383.558556 343.270991 383.51325 342.214993 C 381.610373 340.389624 379.314838 338.835798 378.740955 334.898433 C 378.09156 327.038788 379.163816 318.575716 380.387094 308.37779 C 381.066693 303.610712 382.199358 299.643175 382.395687 294.468783 C 382.440994 293.2921 382.365483 291.587417 382.365483 290.305133 C 382.35038 281.329147 375.811128 274.057845 367.731452 274.057845 Z M 349.427586 387.502234 L 345.078153 464.212968 L 344.761007 464.378911 C 344.474065 471.2429 338.825842 476.719006 331.893933 476.719006 C 329.054719 476.719006 326.426937 475.798778 324.297527 474.244952 L 324.176709 474.305295 L 261.260947 429.711995 C 280.591762 410.704026 305.329164 396.659248 333.827014 390.187487 C 339.037273 388.995718 344.23243 388.120748 349.427586 387.502234 Z M 386.080624 387.502234 C 419.350768 391.590456 450.12905 406.661061 473.703583 429.742167 L 411.195581 474.063924 L 410.98415 473.97341 C 405.441643 478.016375 397.618704 477.005634 393.299475 471.589871 C 391.517415 469.372275 390.596181 466.76245 390.490466 464.122454 L 390.414955 464.092283 Z M 238.456626 458.374806 L 295.89029 509.741581 L 295.829881 510.058381 C 301.009935 514.569002 301.780148 522.38339 297.445816 527.814238 C 295.678859 530.031834 293.307814 531.525318 290.770644 532.21926 L 290.695133 532.460631 L 217.071912 553.716368 C 213.326567 519.456766 221.406243 486.147562 238.456626 458.374806 Z M 496.61362 458.404978 C 505.146362 472.238556 511.610103 487.686302 515.446062 504.431418 C 519.251816 520.98042 520.203255 537.499251 518.632626 553.459911 L 444.646952 532.158917 L 444.571441 531.842117 C 437.956678 530.031834 433.879084 523.288531 435.419508 516.530142 C 436.053801 513.754375 437.518714 511.416093 439.512204 509.681238 L 439.482 509.530382 Z M 355.951736 513.709118 L 379.480963 513.709118 L 394.114994 531.992974 L 388.859428 554.802538 L 367.731452 564.970293 L 346.543066 554.772366 L 341.302603 531.962803 Z M 431.387221 576.28456 C 432.383966 576.224218 433.380711 576.314732 434.362354 576.49576 L 434.483172 576.344903 L 510.643563 589.212997 C 499.49814 620.530889 478.173834 647.65496 449.675984 665.803045 L 420.105878 594.402474 L 420.196492 594.281789 C 417.493198 587.960884 420.211594 580.568896 426.448802 577.566844 C 428.049635 576.782388 429.725979 576.359989 431.387221 576.28456 Z M 303.486696 576.586274 C 309.301043 576.676788 314.511302 580.704668 315.855397 586.618258 C 316.48969 589.394025 316.187646 592.139621 315.145594 594.553331 L 315.357025 594.839959 L 286.104065 665.531503 C 258.753982 647.986845 236.976611 621.707573 225.332815 589.469453 L 300.828709 576.646617 L 300.949527 576.812559 C 301.79525 576.661703 302.656075 576.586274 303.486696 576.586274 Z M 367.263283 607.557196 C 369.286978 607.481767 371.340877 607.904167 373.289061 608.83948 C 375.856435 610.076506 377.834823 612.007475 379.073203 614.345756 L 379.360145 614.345756 L 416.571964 681.597763 C 411.754362 683.211932 406.785739 684.599815 401.696298 685.746328 C 373.243754 692.203003 344.866722 690.256949 319.177881 681.492163 L 356.299087 614.375928 L 356.359496 614.375928 C 358.579519 610.212277 362.808135 607.723139 367.263283 607.557196 Z M 367.263283 607.557196 " stroke="#ffffff" stroke-width="0.25" stroke-opacity="1" stroke-miterlimit="4"/></svg>