<svg xmlns="http://www.w3.org/2000/svg" xmlns:xlink="http://www.w3.org/1999/xlink" width="250" zoomAndPan="magnify" viewBox="0 0 187.5 187.499992" height="250" preserveAspectRatio="xMidYMid meet" version="1.0"><defs><clipPath id="23f40e6800"><path d="M 71 104 L 113 104 L 113 150.65625 L 71 150.65625 Z M 71 104 " clip-rule="nonzero"/></clipPath><clipPath id="e3b4c83759"><path d="M 0 36.210938 L 187 36.210938 L 187 109 L 0 109 Z M 0 36.210938 " clip-rule="nonzero"/></clipPath><clipPath id="8d98e4d365"><path d="M 49 62 L 89 62 L 89 108 L 49 108 Z M 49 62 " clip-rule="nonzero"/></clipPath><clipPath id="1a4785e983"><path d="M 67.941406 62.660156 L 50.132812 72.929688 C 49.464844 73.3125 49.054688 74.023438 49.054688 74.789062 L 49.054688 95.339844 C 49.054688 96.105469 49.464844 96.816406 50.132812 97.199219 L 67.945312 107.476562 C 68.609375 107.859375 69.429688 107.859375 70.09375 107.476562 L 87.902344 97.199219 C 88.566406 96.816406 88.976562 96.105469 88.976562 95.339844 L 88.976562 74.789062 C 88.976562 74.023438 88.566406 73.3125 87.898438 72.929688 L 70.09375 62.660156 C 69.757812 62.46875 69.386719 62.375 69.015625 62.375 C 68.644531 62.375 68.273438 62.46875 67.9375 62.660156 " clip-rule="nonzero"/></clipPath><clipPath id="085590129c"><path d="M 106.972656 71.183594 L 56.789062 46.613281 L 31.058594 99.046875 L 81.242188 123.621094 Z M 106.972656 71.183594 " clip-rule="nonzero"/></clipPath><linearGradient x1="-0.347233" gradientTransform="matrix(-16.091032, 32.788741, -32.825577, -16.072973, 76.267081, 70.271688)" y1="0" x2="1.251868" gradientUnits="userSpaceOnUse" y2="0" id="0398c520f1"><stop stop-opacity="1" stop-color="rgb(24.299622%, 52.49939%, 23.899841%)" offset="0"/><stop stop-opacity="1" stop-color="rgb(24.299622%, 52.49939%, 23.899841%)" offset="0.25"/><stop stop-opacity="1" stop-color="rgb(24.299622%, 52.49939%, 23.899841%)" offset="0.28125"/><stop stop-opacity="1" stop-color="rgb(24.299622%, 52.49939%, 23.899841%)" offset="0.296875"/><stop stop-opacity="1" stop-color="rgb(24.415588%, 52.565002%, 23.991394%)" offset="0.304687"/><stop stop-opacity="1" stop-color="rgb(24.708557%, 52.731323%, 24.221802%)" offset="0.3125"/><stop stop-opacity="1" stop-color="rgb(25.059509%, 52.929688%, 24.499512%)" offset="0.320312"/><stop stop-opacity="1" stop-color="rgb(25.411987%, 53.129578%, 24.777222%)" offset="0.328125"/><stop stop-opacity="1" stop-color="rgb(25.762939%, 53.327942%, 25.053406%)" offset="0.335938"/><stop stop-opacity="1" stop-color="rgb(26.113892%, 53.527832%, 25.331116%)" offset="0.34375"/><stop stop-opacity="1" stop-color="rgb(26.46637%, 53.726196%, 25.608826%)" offset="0.351562"/><stop stop-opacity="1" stop-color="rgb(26.817322%, 53.926086%, 25.886536%)" offset="0.359375"/><stop stop-opacity="1" stop-color="rgb(27.1698%, 54.125977%, 26.16272%)" offset="0.367188"/><stop stop-opacity="1" stop-color="rgb(27.520752%, 54.324341%, 26.44043%)" offset="0.375"/><stop stop-opacity="1" stop-color="rgb(27.871704%, 54.524231%, 26.71814%)" offset="0.382812"/><stop stop-opacity="1" stop-color="rgb(28.224182%, 54.722595%, 26.99585%)" offset="0.390625"/><stop stop-opacity="1" stop-color="rgb(28.575134%, 54.922485%, 27.27356%)" offset="0.398437"/><stop stop-opacity="1" stop-color="rgb(28.927612%, 55.12085%, 27.549744%)" offset="0.40625"/><stop stop-opacity="1" stop-color="rgb(29.278564%, 55.32074%, 27.827454%)" offset="0.414062"/><stop stop-opacity="1" stop-color="rgb(29.631042%, 55.52063%, 28.105164%)" offset="0.421875"/><stop stop-opacity="1" stop-color="rgb(29.981995%, 55.718994%, 28.382874%)" offset="0.429688"/><stop stop-opacity="1" stop-color="rgb(30.332947%, 55.918884%, 28.659058%)" offset="0.4375"/><stop stop-opacity="1" stop-color="rgb(30.685425%, 56.117249%, 28.936768%)" offset="0.445312"/><stop stop-opacity="1" stop-color="rgb(31.036377%, 56.317139%, 29.214478%)" offset="0.453125"/><stop stop-opacity="1" stop-color="rgb(31.388855%, 56.515503%, 29.492188%)" offset="0.460937"/><stop stop-opacity="1" stop-color="rgb(31.739807%, 56.715393%, 29.768372%)" offset="0.46875"/><stop stop-opacity="1" stop-color="rgb(32.090759%, 56.915283%, 30.046082%)" offset="0.476562"/><stop stop-opacity="1" stop-color="rgb(32.443237%, 57.113647%, 30.323792%)" offset="0.484375"/><stop stop-opacity="1" stop-color="rgb(32.794189%, 57.313538%, 30.601501%)" offset="0.492187"/><stop stop-opacity="1" stop-color="rgb(33.135986%, 57.514954%, 30.865479%)" offset="0.5"/><stop stop-opacity="1" stop-color="rgb(33.328247%, 57.749939%, 30.941772%)" offset="0.507812"/><stop stop-opacity="1" stop-color="rgb(33.380127%, 58.015442%, 30.839539%)" offset="0.515625"/><stop stop-opacity="1" stop-color="rgb(33.432007%, 58.280945%, 30.738831%)" offset="0.523437"/><stop stop-opacity="1" stop-color="rgb(33.485413%, 58.546448%, 30.636597%)" offset="0.53125"/><stop stop-opacity="1" stop-color="rgb(33.537292%, 58.811951%, 30.534363%)" offset="0.539062"/><stop stop-opacity="1" stop-color="rgb(33.589172%, 59.077454%, 30.433655%)" offset="0.546875"/><stop stop-opacity="1" stop-color="rgb(33.641052%, 59.342957%, 30.331421%)" offset="0.554688"/><stop stop-opacity="1" stop-color="rgb(33.692932%, 59.608459%, 30.230713%)" offset="0.5625"/><stop stop-opacity="1" stop-color="rgb(33.744812%, 59.873962%, 30.128479%)" offset="0.570312"/><stop stop-opacity="1" stop-color="rgb(33.796692%, 60.139465%, 30.027771%)" offset="0.578125"/><stop stop-opacity="1" stop-color="rgb(33.850098%, 60.406494%, 29.925537%)" offset="0.585937"/><stop stop-opacity="1" stop-color="rgb(33.901978%, 60.671997%, 29.824829%)" offset="0.59375"/><stop stop-opacity="1" stop-color="rgb(33.953857%, 60.9375%, 29.722595%)" offset="0.601562"/><stop stop-opacity="1" stop-color="rgb(34.005737%, 61.203003%, 29.620361%)" offset="0.609375"/><stop stop-opacity="1" stop-color="rgb(34.057617%, 61.468506%, 29.519653%)" offset="0.617187"/><stop stop-opacity="1" stop-color="rgb(34.109497%, 61.734009%, 29.417419%)" offset="0.625"/><stop stop-opacity="1" stop-color="rgb(34.161377%, 61.999512%, 29.316711%)" offset="0.632812"/><stop stop-opacity="1" stop-color="rgb(34.214783%, 62.265015%, 29.214478%)" offset="0.640625"/><stop stop-opacity="1" stop-color="rgb(34.266663%, 62.530518%, 29.11377%)" offset="0.648438"/><stop stop-opacity="1" stop-color="rgb(34.318542%, 62.796021%, 29.011536%)" offset="0.65625"/><stop stop-opacity="1" stop-color="rgb(34.370422%, 63.061523%, 28.909302%)" offset="0.664062"/><stop stop-opacity="1" stop-color="rgb(34.422302%, 63.328552%, 28.808594%)" offset="0.671875"/><stop stop-opacity="1" stop-color="rgb(34.474182%, 63.594055%, 28.70636%)" offset="0.679687"/><stop stop-opacity="1" stop-color="rgb(34.526062%, 63.859558%, 28.605652%)" offset="0.6875"/><stop stop-opacity="1" stop-color="rgb(34.577942%, 64.125061%, 28.503418%)" offset="0.695312"/><stop stop-opacity="1" stop-color="rgb(34.631348%, 64.390564%, 28.40271%)" offset="0.703125"/><stop stop-opacity="1" stop-color="rgb(34.683228%, 64.656067%, 28.300476%)" offset="0.710937"/><stop stop-opacity="1" stop-color="rgb(34.735107%, 64.92157%, 28.199768%)" offset="0.71875"/><stop stop-opacity="1" stop-color="rgb(34.786987%, 65.187073%, 28.097534%)" offset="0.726562"/><stop stop-opacity="1" stop-color="rgb(34.838867%, 65.452576%, 27.9953%)" offset="0.734375"/><stop stop-opacity="1" stop-color="rgb(34.890747%, 65.718079%, 27.894592%)" offset="0.742188"/><stop stop-opacity="1" stop-color="rgb(34.942627%, 65.983582%, 27.792358%)" offset="0.75"/><stop stop-opacity="1" stop-color="rgb(34.996033%, 66.25061%, 27.69165%)" offset="0.757812"/><stop stop-opacity="1" stop-color="rgb(35.047913%, 66.516113%, 27.589417%)" offset="0.765625"/><stop stop-opacity="1" stop-color="rgb(35.099792%, 66.781616%, 27.488708%)" offset="0.773437"/><stop stop-opacity="1" stop-color="rgb(35.151672%, 67.047119%, 27.386475%)" offset="0.78125"/><stop stop-opacity="1" stop-color="rgb(35.203552%, 67.312622%, 27.284241%)" offset="0.789062"/><stop stop-opacity="1" stop-color="rgb(35.255432%, 67.578125%, 27.183533%)" offset="0.796875"/><stop stop-opacity="1" stop-color="rgb(35.290527%, 67.755127%, 27.116394%)" offset="0.8125"/><stop stop-opacity="1" stop-color="rgb(35.299683%, 67.799377%, 27.099609%)" offset="0.875"/><stop stop-opacity="1" stop-color="rgb(35.299683%, 67.799377%, 27.099609%)" offset="1"/></linearGradient><clipPath id="d6f27de59b"><path d="M 49.328125 62.40625 L 88.644531 62.40625 L 88.644531 108 L 49.328125 108 Z M 49.328125 62.40625 " clip-rule="nonzero"/></clipPath><clipPath id="2ea4b9a054"><path d="M 49.496094 96.644531 C 49.667969 96.863281 49.882812 97.054688 50.132812 97.199219 L 65.410156 106.015625 L 67.953125 107.476562 C 68.335938 107.695312 68.769531 107.789062 69.195312 107.757812 C 69.335938 107.746094 69.476562 107.71875 69.617188 107.679688 L 88.402344 73.324219 C 88.257812 73.167969 88.089844 73.039062 87.898438 72.925781 L 76.238281 66.199219 L 70.074219 62.660156 C 69.898438 62.558594 69.710938 62.484375 69.515625 62.433594 Z M 49.496094 96.644531 " clip-rule="nonzero"/></clipPath><clipPath id="5f797c49f8"><path d="M 27.800781 78.453125 L 63.234375 126.359375 L 110.097656 91.773438 L 74.660156 43.867188 Z M 27.800781 78.453125 " clip-rule="nonzero"/></clipPath><linearGradient x1="-0.456148" gradientTransform="matrix(45.149557, -33.322721, 33.360158, 45.098888, 66.318209, 87.484925)" y1="0" x2="0.581849" gradientUnits="userSpaceOnUse" y2="0" id="8d5e1da585"><stop stop-opacity="1" stop-color="rgb(24.299622%, 52.49939%, 23.899841%)" offset="0"/><stop stop-opacity="1" stop-color="rgb(24.299622%, 52.49939%, 23.899841%)" offset="0.5"/><stop stop-opacity="1" stop-color="rgb(24.299622%, 52.49939%, 23.899841%)" offset="0.5625"/><stop stop-opacity="1" stop-color="rgb(24.307251%, 52.502441%, 23.904419%)" offset="0.570312"/><stop stop-opacity="1" stop-color="rgb(24.67041%, 52.69165%, 24.176025%)" offset="0.574219"/><stop stop-opacity="1" stop-color="rgb(25.027466%, 52.876282%, 24.441528%)" offset="0.578125"/><stop stop-opacity="1" stop-color="rgb(25.384521%, 53.060913%, 24.707031%)" offset="0.582031"/><stop stop-opacity="1" stop-color="rgb(25.741577%, 53.24707%, 24.972534%)" offset="0.585938"/><stop stop-opacity="1" stop-color="rgb(26.098633%, 53.431702%, 25.238037%)" offset="0.589844"/><stop stop-opacity="1" stop-color="rgb(26.455688%, 53.616333%, 25.505066%)" offset="0.59375"/><stop stop-opacity="1" stop-color="rgb(26.811218%, 53.800964%, 25.770569%)" offset="0.597656"/><stop stop-opacity="1" stop-color="rgb(27.168274%, 53.985596%, 26.036072%)" offset="0.601562"/><stop stop-opacity="1" stop-color="rgb(27.52533%, 54.170227%, 26.301575%)" offset="0.605469"/><stop stop-opacity="1" stop-color="rgb(27.882385%, 54.356384%, 26.567078%)" offset="0.609375"/><stop stop-opacity="1" stop-color="rgb(28.239441%, 54.541016%, 26.832581%)" offset="0.613281"/><stop stop-opacity="1" stop-color="rgb(28.596497%, 54.725647%, 27.098083%)" offset="0.617187"/><stop stop-opacity="1" stop-color="rgb(28.952026%, 54.910278%, 27.363586%)" offset="0.621094"/><stop stop-opacity="1" stop-color="rgb(29.309082%, 55.096436%, 27.629089%)" offset="0.625"/><stop stop-opacity="1" stop-color="rgb(29.666138%, 55.281067%, 27.894592%)" offset="0.628906"/><stop stop-opacity="1" stop-color="rgb(30.023193%, 55.465698%, 28.160095%)" offset="0.632812"/><stop stop-opacity="1" stop-color="rgb(30.378723%, 55.65033%, 28.425598%)" offset="0.636719"/><stop stop-opacity="1" stop-color="rgb(30.735779%, 55.834961%, 28.692627%)" offset="0.640625"/><stop stop-opacity="1" stop-color="rgb(31.092834%, 56.019592%, 28.95813%)" offset="0.644531"/><stop stop-opacity="1" stop-color="rgb(31.44989%, 56.20575%, 29.223633%)" offset="0.648437"/><stop stop-opacity="1" stop-color="rgb(31.806946%, 56.390381%, 29.489136%)" offset="0.652344"/><stop stop-opacity="1" stop-color="rgb(32.164001%, 56.575012%, 29.754639%)" offset="0.65625"/><stop stop-opacity="1" stop-color="rgb(32.519531%, 56.759644%, 30.020142%)" offset="0.660156"/><stop stop-opacity="1" stop-color="rgb(32.876587%, 56.944275%, 30.285645%)" offset="0.664062"/><stop stop-opacity="1" stop-color="rgb(33.233643%, 57.128906%, 30.551147%)" offset="0.667969"/><stop stop-opacity="1" stop-color="rgb(33.590698%, 57.315063%, 30.81665%)" offset="0.671875"/><stop stop-opacity="1" stop-color="rgb(33.947754%, 57.499695%, 31.082153%)" offset="0.675781"/><stop stop-opacity="1" stop-color="rgb(34.30481%, 57.684326%, 31.347656%)" offset="0.679688"/><stop stop-opacity="1" stop-color="rgb(34.660339%, 57.868958%, 31.613159%)" offset="0.683594"/><stop stop-opacity="1" stop-color="rgb(35.017395%, 58.053589%, 31.878662%)" offset="0.6875"/><stop stop-opacity="1" stop-color="rgb(35.374451%, 58.23822%, 32.144165%)" offset="0.691406"/><stop stop-opacity="1" stop-color="rgb(35.731506%, 58.424377%, 32.411194%)" offset="0.695312"/><stop stop-opacity="1" stop-color="rgb(36.087036%, 58.609009%, 32.676697%)" offset="0.699219"/><stop stop-opacity="1" stop-color="rgb(36.444092%, 58.79364%, 32.9422%)" offset="0.703125"/><stop stop-opacity="1" stop-color="rgb(36.801147%, 58.978271%, 33.207703%)" offset="0.707031"/><stop stop-opacity="1" stop-color="rgb(37.158203%, 59.162903%, 33.473206%)" offset="0.710938"/><stop stop-opacity="1" stop-color="rgb(37.515259%, 59.347534%, 33.738708%)" offset="0.714844"/><stop stop-opacity="1" stop-color="rgb(37.872314%, 59.533691%, 34.004211%)" offset="0.71875"/><stop stop-opacity="1" stop-color="rgb(38.031006%, 59.657288%, 34.109497%)" offset="0.726562"/><stop stop-opacity="1" stop-color="rgb(38.305664%, 59.890747%, 34.286499%)" offset="0.734375"/><stop stop-opacity="1" stop-color="rgb(38.536072%, 60.110474%, 34.428406%)" offset="0.742188"/><stop stop-opacity="1" stop-color="rgb(38.768005%, 60.331726%, 34.571838%)" offset="0.75"/><stop stop-opacity="1" stop-color="rgb(38.999939%, 60.551453%, 34.713745%)" offset="0.757812"/><stop stop-opacity="1" stop-color="rgb(39.231873%, 60.771179%, 34.855652%)" offset="0.765625"/><stop stop-opacity="1" stop-color="rgb(39.46228%, 60.992432%, 34.997559%)" offset="0.773438"/><stop stop-opacity="1" stop-color="rgb(39.694214%, 61.212158%, 35.140991%)" offset="0.78125"/><stop stop-opacity="1" stop-color="rgb(39.926147%, 61.433411%, 35.282898%)" offset="0.789062"/><stop stop-opacity="1" stop-color="rgb(40.158081%, 61.653137%, 35.424805%)" offset="0.796875"/><stop stop-opacity="1" stop-color="rgb(40.390015%, 61.87439%, 35.566711%)" offset="0.804688"/><stop stop-opacity="1" stop-color="rgb(40.620422%, 62.094116%, 35.710144%)" offset="0.8125"/><stop stop-opacity="1" stop-color="rgb(40.852356%, 62.315369%, 35.852051%)" offset="0.820312"/><stop stop-opacity="1" stop-color="rgb(41.08429%, 62.535095%, 35.993958%)" offset="0.828125"/><stop stop-opacity="1" stop-color="rgb(41.316223%, 62.756348%, 36.135864%)" offset="0.835938"/><stop stop-opacity="1" stop-color="rgb(41.546631%, 62.976074%, 36.279297%)" offset="0.84375"/><stop stop-opacity="1" stop-color="rgb(41.778564%, 63.195801%, 36.421204%)" offset="0.851562"/><stop stop-opacity="1" stop-color="rgb(42.010498%, 63.417053%, 36.56311%)" offset="0.859375"/><stop stop-opacity="1" stop-color="rgb(42.242432%, 63.63678%, 36.706543%)" offset="0.867187"/><stop stop-opacity="1" stop-color="rgb(42.474365%, 63.858032%, 36.84845%)" offset="0.875"/><stop stop-opacity="1" stop-color="rgb(42.704773%, 64.077759%, 36.990356%)" offset="0.882812"/><stop stop-opacity="1" stop-color="rgb(42.936707%, 64.299011%, 37.132263%)" offset="0.890625"/><stop stop-opacity="1" stop-color="rgb(43.16864%, 64.518738%, 37.275696%)" offset="0.898438"/><stop stop-opacity="1" stop-color="rgb(43.400574%, 64.73999%, 37.417603%)" offset="0.90625"/><stop stop-opacity="1" stop-color="rgb(43.630981%, 64.959717%, 37.559509%)" offset="0.914062"/><stop stop-opacity="1" stop-color="rgb(43.862915%, 65.180969%, 37.701416%)" offset="0.921875"/><stop stop-opacity="1" stop-color="rgb(44.094849%, 65.400696%, 37.844849%)" offset="0.929688"/><stop stop-opacity="1" stop-color="rgb(44.326782%, 65.620422%, 37.986755%)" offset="0.9375"/><stop stop-opacity="1" stop-color="rgb(44.55719%, 65.841675%, 38.128662%)" offset="0.945312"/><stop stop-opacity="1" stop-color="rgb(44.789124%, 66.061401%, 38.270569%)" offset="0.953125"/><stop stop-opacity="1" stop-color="rgb(45.021057%, 66.282654%, 38.414001%)" offset="0.960938"/><stop stop-opacity="1" stop-color="rgb(45.252991%, 66.50238%, 38.555908%)" offset="0.96875"/><stop stop-opacity="1" stop-color="rgb(45.484924%, 66.723633%, 38.697815%)" offset="0.976562"/><stop stop-opacity="1" stop-color="rgb(45.715332%, 66.943359%, 38.839722%)" offset="0.984375"/><stop stop-opacity="1" stop-color="rgb(45.947266%, 67.164612%, 38.983154%)" offset="0.992188"/><stop stop-opacity="1" stop-color="rgb(46.179199%, 67.384338%, 39.125061%)" offset="1"/></linearGradient><clipPath id="08518ddc46"><path d="M 50.183594 62.378906 L 88.941406 62.378906 L 88.941406 107.738281 L 50.183594 107.738281 Z M 50.183594 62.378906 " clip-rule="nonzero"/></clipPath><clipPath id="8328c6762a"><path d="M 68.804688 62.386719 C 68.503906 62.414062 68.210938 62.507812 67.941406 62.660156 L 50.183594 72.898438 L 69.332031 107.738281 C 69.601562 107.699219 69.863281 107.613281 70.097656 107.476562 L 87.90625 97.199219 C 88.457031 96.882812 88.832031 96.34375 88.949219 95.730469 L 69.425781 62.421875 C 69.28125 62.390625 69.140625 62.378906 68.992188 62.378906 C 68.933594 62.378906 68.871094 62.378906 68.8125 62.386719 " clip-rule="nonzero"/></clipPath><linearGradient x1="0.0426928" gradientTransform="matrix(41.180703, 0, 0, 41.134492, 48.425805, 85.060033)" y1="0" x2="0.983822" gradientUnits="userSpaceOnUse" y2="0" id="e84383e39f"><stop stop-opacity="1" stop-color="rgb(41.999817%, 74.899292%, 27.799988%)" offset="0"/><stop stop-opacity="1" stop-color="rgb(41.999817%, 74.899292%, 27.799988%)" offset="0.125"/><stop stop-opacity="1" stop-color="rgb(41.999817%, 74.899292%, 27.799988%)" offset="0.15625"/><stop stop-opacity="1" stop-color="rgb(42.045593%, 74.862671%, 27.886963%)" offset="0.164062"/><stop stop-opacity="1" stop-color="rgb(42.190552%, 74.749756%, 28.153992%)" offset="0.171875"/><stop stop-opacity="1" stop-color="rgb(42.385864%, 74.597168%, 28.517151%)" offset="0.179688"/><stop stop-opacity="1" stop-color="rgb(42.581177%, 74.44458%, 28.878784%)" offset="0.1875"/><stop stop-opacity="1" stop-color="rgb(42.776489%, 74.290466%, 29.240417%)" offset="0.195312"/><stop stop-opacity="1" stop-color="rgb(42.971802%, 74.137878%, 29.603577%)" offset="0.203125"/><stop stop-opacity="1" stop-color="rgb(43.167114%, 73.985291%, 29.96521%)" offset="0.210938"/><stop stop-opacity="1" stop-color="rgb(43.362427%, 73.832703%, 30.328369%)" offset="0.21875"/><stop stop-opacity="1" stop-color="rgb(43.557739%, 73.680115%, 30.690002%)" offset="0.226563"/><stop stop-opacity="1" stop-color="rgb(43.753052%, 73.527527%, 31.051636%)" offset="0.234375"/><stop stop-opacity="1" stop-color="rgb(43.948364%, 73.374939%, 31.414795%)" offset="0.242188"/><stop stop-opacity="1" stop-color="rgb(44.143677%, 73.222351%, 31.776428%)" offset="0.25"/><stop stop-opacity="1" stop-color="rgb(44.338989%, 73.069763%, 32.139587%)" offset="0.257812"/><stop stop-opacity="1" stop-color="rgb(44.534302%, 72.917175%, 32.501221%)" offset="0.265625"/><stop stop-opacity="1" stop-color="rgb(44.729614%, 72.764587%, 32.86438%)" offset="0.273437"/><stop stop-opacity="1" stop-color="rgb(44.924927%, 72.612%, 33.226013%)" offset="0.28125"/><stop stop-opacity="1" stop-color="rgb(45.120239%, 72.457886%, 33.587646%)" offset="0.289062"/><stop stop-opacity="1" stop-color="rgb(45.315552%, 72.305298%, 33.950806%)" offset="0.296875"/><stop stop-opacity="1" stop-color="rgb(45.510864%, 72.15271%, 34.312439%)" offset="0.304687"/><stop stop-opacity="1" stop-color="rgb(45.707703%, 72.000122%, 34.675598%)" offset="0.3125"/><stop stop-opacity="1" stop-color="rgb(45.903015%, 71.847534%, 35.037231%)" offset="0.320312"/><stop stop-opacity="1" stop-color="rgb(46.098328%, 71.694946%, 35.398865%)" offset="0.328125"/><stop stop-opacity="1" stop-color="rgb(46.29364%, 71.542358%, 35.762024%)" offset="0.335938"/><stop stop-opacity="1" stop-color="rgb(46.488953%, 71.389771%, 36.123657%)" offset="0.34375"/><stop stop-opacity="1" stop-color="rgb(46.684265%, 71.237183%, 36.486816%)" offset="0.351562"/><stop stop-opacity="1" stop-color="rgb(46.879578%, 71.084595%, 36.84845%)" offset="0.359375"/><stop stop-opacity="1" stop-color="rgb(47.07489%, 70.932007%, 37.210083%)" offset="0.367187"/><stop stop-opacity="1" stop-color="rgb(47.270203%, 70.777893%, 37.573242%)" offset="0.375"/><stop stop-opacity="1" stop-color="rgb(47.410583%, 70.606995%, 37.893677%)" offset="0.382812"/><stop stop-opacity="1" stop-color="rgb(47.384644%, 70.376587%, 38.084412%)" offset="0.390625"/><stop stop-opacity="1" stop-color="rgb(47.244263%, 70.108032%, 38.189697%)" offset="0.398437"/><stop stop-opacity="1" stop-color="rgb(47.105408%, 69.837952%, 38.293457%)" offset="0.40625"/><stop stop-opacity="1" stop-color="rgb(46.966553%, 69.569397%, 38.397217%)" offset="0.414062"/><stop stop-opacity="1" stop-color="rgb(46.827698%, 69.300842%, 38.500977%)" offset="0.421875"/><stop stop-opacity="1" stop-color="rgb(46.688843%, 69.030762%, 38.606262%)" offset="0.429687"/><stop stop-opacity="1" stop-color="rgb(46.549988%, 68.762207%, 38.710022%)" offset="0.4375"/><stop stop-opacity="1" stop-color="rgb(46.411133%, 68.493652%, 38.813782%)" offset="0.445312"/><stop stop-opacity="1" stop-color="rgb(46.272278%, 68.223572%, 38.919067%)" offset="0.453125"/><stop stop-opacity="1" stop-color="rgb(46.133423%, 67.955017%, 39.022827%)" offset="0.460937"/><stop stop-opacity="1" stop-color="rgb(45.994568%, 67.684937%, 39.126587%)" offset="0.46875"/><stop stop-opacity="1" stop-color="rgb(45.825195%, 67.449951%, 39.135742%)" offset="0.476562"/><stop stop-opacity="1" stop-color="rgb(45.619202%, 67.254639%, 39.025879%)" offset="0.484375"/><stop stop-opacity="1" stop-color="rgb(45.405579%, 67.068481%, 38.893127%)" offset="0.492187"/><stop stop-opacity="1" stop-color="rgb(45.191956%, 66.880798%, 38.760376%)" offset="0.5"/><stop stop-opacity="1" stop-color="rgb(44.976807%, 66.694641%, 38.627625%)" offset="0.507812"/><stop stop-opacity="1" stop-color="rgb(44.763184%, 66.506958%, 38.494873%)" offset="0.515625"/><stop stop-opacity="1" stop-color="rgb(44.549561%, 66.320801%, 38.363647%)" offset="0.523438"/><stop stop-opacity="1" stop-color="rgb(44.335938%, 66.133118%, 38.230896%)" offset="0.53125"/><stop stop-opacity="1" stop-color="rgb(44.120789%, 65.94696%, 38.098145%)" offset="0.539062"/><stop stop-opacity="1" stop-color="rgb(43.907166%, 65.759277%, 37.965393%)" offset="0.546875"/><stop stop-opacity="1" stop-color="rgb(43.693542%, 65.57312%, 37.832642%)" offset="0.554687"/><stop stop-opacity="1" stop-color="rgb(43.479919%, 65.386963%, 37.69989%)" offset="0.5625"/><stop stop-opacity="1" stop-color="rgb(43.264771%, 65.19928%, 37.568665%)" offset="0.570312"/><stop stop-opacity="1" stop-color="rgb(43.051147%, 65.013123%, 37.435913%)" offset="0.578125"/><stop stop-opacity="1" stop-color="rgb(42.837524%, 64.825439%, 37.303162%)" offset="0.585937"/><stop stop-opacity="1" stop-color="rgb(42.622375%, 64.639282%, 37.17041%)" offset="0.59375"/><stop stop-opacity="1" stop-color="rgb(42.408752%, 64.451599%, 37.037659%)" offset="0.601562"/><stop stop-opacity="1" stop-color="rgb(42.195129%, 64.265442%, 36.904907%)" offset="0.609375"/><stop stop-opacity="1" stop-color="rgb(41.981506%, 64.077759%, 36.773682%)" offset="0.617187"/><stop stop-opacity="1" stop-color="rgb(41.766357%, 63.891602%, 36.64093%)" offset="0.625"/><stop stop-opacity="1" stop-color="rgb(41.552734%, 63.705444%, 36.508179%)" offset="0.632812"/><stop stop-opacity="1" stop-color="rgb(41.339111%, 63.517761%, 36.375427%)" offset="0.640625"/><stop stop-opacity="1" stop-color="rgb(41.125488%, 63.331604%, 36.242676%)" offset="0.648437"/><stop stop-opacity="1" stop-color="rgb(40.910339%, 63.143921%, 36.11145%)" offset="0.65625"/><stop stop-opacity="1" stop-color="rgb(40.696716%, 62.957764%, 35.978699%)" offset="0.664062"/><stop stop-opacity="1" stop-color="rgb(40.483093%, 62.770081%, 35.845947%)" offset="0.671875"/><stop stop-opacity="1" stop-color="rgb(40.26947%, 62.583923%, 35.713196%)" offset="0.679687"/><stop stop-opacity="1" stop-color="rgb(40.054321%, 62.39624%, 35.580444%)" offset="0.6875"/><stop stop-opacity="1" stop-color="rgb(39.840698%, 62.210083%, 35.447693%)" offset="0.695312"/><stop stop-opacity="1" stop-color="rgb(39.555359%, 61.988831%, 35.258484%)" offset="0.703125"/><stop stop-opacity="1" stop-color="rgb(39.079285%, 61.676025%, 34.912109%)" offset="0.707031"/><stop stop-opacity="1" stop-color="rgb(38.780212%, 61.489868%, 34.689331%)" offset="0.710937"/><stop stop-opacity="1" stop-color="rgb(38.48114%, 61.303711%, 34.466553%)" offset="0.714844"/><stop stop-opacity="1" stop-color="rgb(38.182068%, 61.11908%, 34.243774%)" offset="0.71875"/><stop stop-opacity="1" stop-color="rgb(37.882996%, 60.932922%, 34.020996%)" offset="0.722656"/><stop stop-opacity="1" stop-color="rgb(37.583923%, 60.748291%, 33.798218%)" offset="0.726562"/><stop stop-opacity="1" stop-color="rgb(37.284851%, 60.562134%, 33.575439%)" offset="0.730469"/><stop stop-opacity="1" stop-color="rgb(36.987305%, 60.377502%, 33.352661%)" offset="0.734375"/><stop stop-opacity="1" stop-color="rgb(36.688232%, 60.191345%, 33.129883%)" offset="0.738281"/><stop stop-opacity="1" stop-color="rgb(36.38916%, 60.006714%, 32.907104%)" offset="0.742187"/><stop stop-opacity="1" stop-color="rgb(36.090088%, 59.820557%, 32.684326%)" offset="0.746094"/><stop stop-opacity="1" stop-color="rgb(35.791016%, 59.634399%, 32.461548%)" offset="0.75"/><stop stop-opacity="1" stop-color="rgb(35.491943%, 59.448242%, 32.23877%)" offset="0.753906"/><stop stop-opacity="1" stop-color="rgb(35.192871%, 59.263611%, 32.015991%)" offset="0.757813"/><stop stop-opacity="1" stop-color="rgb(34.893799%, 59.077454%, 31.793213%)" offset="0.761719"/><stop stop-opacity="1" stop-color="rgb(34.596252%, 58.892822%, 31.57196%)" offset="0.765625"/><stop stop-opacity="1" stop-color="rgb(34.29718%, 58.706665%, 31.349182%)" offset="0.769531"/><stop stop-opacity="1" stop-color="rgb(33.998108%, 58.522034%, 31.126404%)" offset="0.773438"/><stop stop-opacity="1" stop-color="rgb(33.699036%, 58.335876%, 30.903625%)" offset="0.777344"/><stop stop-opacity="1" stop-color="rgb(33.399963%, 58.149719%, 30.680847%)" offset="0.78125"/><stop stop-opacity="1" stop-color="rgb(33.100891%, 57.963562%, 30.458069%)" offset="0.785156"/><stop stop-opacity="1" stop-color="rgb(32.803345%, 57.778931%, 30.235291%)" offset="0.789063"/><stop stop-opacity="1" stop-color="rgb(32.504272%, 57.592773%, 30.012512%)" offset="0.792969"/><stop stop-opacity="1" stop-color="rgb(32.2052%, 57.408142%, 29.789734%)" offset="0.796875"/><stop stop-opacity="1" stop-color="rgb(31.906128%, 57.221985%, 29.566956%)" offset="0.800781"/><stop stop-opacity="1" stop-color="rgb(31.607056%, 57.037354%, 29.344177%)" offset="0.804688"/><stop stop-opacity="1" stop-color="rgb(31.307983%, 56.851196%, 29.121399%)" offset="0.808594"/><stop stop-opacity="1" stop-color="rgb(31.008911%, 56.665039%, 28.898621%)" offset="0.8125"/><stop stop-opacity="1" stop-color="rgb(30.709839%, 56.478882%, 28.675842%)" offset="0.816406"/><stop stop-opacity="1" stop-color="rgb(30.412292%, 56.29425%, 28.453064%)" offset="0.820313"/><stop stop-opacity="1" stop-color="rgb(30.11322%, 56.108093%, 28.230286%)" offset="0.824219"/><stop stop-opacity="1" stop-color="rgb(29.814148%, 55.923462%, 28.007507%)" offset="0.828125"/><stop stop-opacity="1" stop-color="rgb(29.515076%, 55.737305%, 27.784729%)" offset="0.832031"/><stop stop-opacity="1" stop-color="rgb(29.216003%, 55.552673%, 27.563477%)" offset="0.835938"/><stop stop-opacity="1" stop-color="rgb(28.916931%, 55.366516%, 27.340698%)" offset="0.839844"/><stop stop-opacity="1" stop-color="rgb(28.617859%, 55.180359%, 27.11792%)" offset="0.84375"/><stop stop-opacity="1" stop-color="rgb(28.318787%, 54.994202%, 26.895142%)" offset="0.847656"/><stop stop-opacity="1" stop-color="rgb(28.02124%, 54.80957%, 26.672363%)" offset="0.851563"/><stop stop-opacity="1" stop-color="rgb(27.722168%, 54.623413%, 26.449585%)" offset="0.855469"/><stop stop-opacity="1" stop-color="rgb(27.423096%, 54.438782%, 26.226807%)" offset="0.859375"/><stop stop-opacity="1" stop-color="rgb(27.124023%, 54.252625%, 26.004028%)" offset="0.863281"/><stop stop-opacity="1" stop-color="rgb(26.824951%, 54.067993%, 25.78125%)" offset="0.867188"/><stop stop-opacity="1" stop-color="rgb(26.525879%, 53.881836%, 25.558472%)" offset="0.871094"/><stop stop-opacity="1" stop-color="rgb(26.226807%, 53.697205%, 25.335693%)" offset="0.875"/><stop stop-opacity="1" stop-color="rgb(25.927734%, 53.511047%, 25.112915%)" offset="0.878906"/><stop stop-opacity="1" stop-color="rgb(25.630188%, 53.32489%, 24.890137%)" offset="0.882813"/><stop stop-opacity="1" stop-color="rgb(25.331116%, 53.138733%, 24.667358%)" offset="0.886719"/><stop stop-opacity="1" stop-color="rgb(25.032043%, 52.954102%, 24.44458%)" offset="0.890625"/><stop stop-opacity="1" stop-color="rgb(24.732971%, 52.767944%, 24.221802%)" offset="0.894531"/><stop stop-opacity="1" stop-color="rgb(24.433899%, 52.583313%, 24.000549%)" offset="0.898438"/><stop stop-opacity="1" stop-color="rgb(24.36676%, 52.540588%, 23.950195%)" offset="0.90625"/><stop stop-opacity="1" stop-color="rgb(24.299622%, 52.49939%, 23.899841%)" offset="0.9375"/><stop stop-opacity="1" stop-color="rgb(24.299622%, 52.49939%, 23.899841%)" offset="1"/></linearGradient></defs><g clip-path="url(#23f40e6800)"><path fill="#689f63" d="M 92.429688 150.632812 C 91.8125 150.632812 91.199219 150.472656 90.65625 150.160156 L 85.019531 146.824219 C 84.175781 146.355469 84.585938 146.1875 84.863281 146.09375 C 85.988281 145.699219 86.214844 145.613281 87.414062 144.933594 C 87.539062 144.859375 87.707031 144.886719 87.835938 144.960938 L 92.164062 147.527344 C 92.320312 147.613281 92.542969 147.613281 92.6875 147.527344 L 109.578125 137.792969 C 109.734375 137.703125 109.835938 137.523438 109.835938 137.335938 L 109.835938 117.871094 C 109.835938 117.675781 109.734375 117.503906 109.574219 117.40625 L 92.691406 107.675781 C 92.535156 107.585938 92.328125 107.585938 92.171875 107.675781 L 75.292969 117.40625 C 75.128906 117.5 75.027344 117.679688 75.027344 117.867188 L 75.027344 137.332031 C 75.027344 137.519531 75.128906 137.695312 75.289062 137.785156 L 79.914062 140.453125 C 82.425781 141.707031 83.957031 140.226562 83.957031 138.742188 L 83.957031 119.53125 C 83.957031 119.253906 84.175781 119.042969 84.449219 119.042969 L 86.589844 119.042969 C 86.855469 119.042969 87.074219 119.253906 87.074219 119.53125 L 87.074219 138.75 C 87.074219 142.09375 85.25 144.015625 82.074219 144.015625 C 81.097656 144.015625 80.328125 144.015625 78.179688 142.960938 L 73.75 140.410156 C 72.65625 139.777344 71.980469 138.59375 71.980469 137.332031 L 71.980469 117.867188 C 71.980469 116.597656 72.65625 115.417969 73.75 114.792969 L 90.65625 105.050781 C 91.722656 104.445312 93.144531 104.445312 94.207031 105.050781 L 111.089844 114.796875 C 112.179688 115.425781 112.859375 116.605469 112.859375 117.871094 L 112.859375 137.335938 C 112.859375 138.597656 112.179688 139.777344 111.089844 140.410156 L 94.207031 150.152344 C 93.664062 150.464844 93.050781 150.625 92.425781 150.625 " fill-opacity="1" fill-rule="nonzero"/></g><path fill="#689f63" d="M 97.644531 137.21875 C 90.253906 137.21875 88.707031 133.832031 88.707031 130.988281 C 88.707031 130.71875 88.921875 130.503906 89.195312 130.503906 L 91.375 130.503906 C 91.617188 130.503906 91.820312 130.679688 91.859375 130.917969 C 92.1875 133.136719 93.167969 134.257812 97.636719 134.257812 C 101.195312 134.257812 102.710938 133.453125 102.710938 131.570312 C 102.710938 130.484375 102.277344 129.675781 96.75 129.136719 C 92.125 128.679688 89.265625 127.664062 89.265625 123.96875 C 89.265625 120.566406 92.140625 118.539062 96.957031 118.539062 C 102.363281 118.539062 105.042969 120.414062 105.382812 124.441406 C 105.394531 124.582031 105.34375 124.714844 105.25 124.816406 C 105.15625 124.914062 105.027344 124.972656 104.890625 124.972656 L 102.695312 124.972656 C 102.46875 124.972656 102.269531 124.8125 102.222656 124.59375 C 101.695312 122.257812 100.417969 121.511719 96.949219 121.511719 C 93.0625 121.511719 92.609375 122.863281 92.609375 123.875 C 92.609375 125.105469 93.144531 125.464844 98.386719 126.15625 C 103.574219 126.84375 106.039062 127.816406 106.039062 131.460938 C 106.039062 135.132812 102.972656 137.238281 97.621094 137.238281 M 118.191406 116.597656 L 118.757812 116.597656 C 119.222656 116.597656 119.308594 116.269531 119.308594 116.082031 C 119.308594 115.582031 118.96875 115.582031 118.777344 115.582031 L 118.195312 115.582031 Z M 117.5 115 L 118.757812 115 C 119.1875 115 120.03125 115 120.03125 115.960938 C 120.03125 116.632812 119.601562 116.773438 119.34375 116.859375 C 119.847656 116.890625 119.878906 117.222656 119.949219 117.683594 C 119.980469 117.976562 120.035156 118.480469 120.136719 118.648438 L 119.363281 118.648438 C 119.34375 118.480469 119.226562 117.550781 119.226562 117.5 C 119.175781 117.292969 119.101562 117.191406 118.84375 117.191406 L 118.207031 117.191406 L 118.207031 118.652344 L 117.5 118.652344 Z M 115.992188 116.816406 C 115.992188 118.328125 117.214844 119.550781 118.714844 119.550781 C 120.226562 119.550781 121.449219 118.300781 121.449219 116.816406 C 121.449219 115.300781 120.210938 114.097656 118.710938 114.097656 C 117.230469 114.097656 115.988281 115.28125 115.988281 116.8125 M 121.972656 116.824219 C 121.972656 118.613281 120.507812 120.074219 118.71875 120.074219 C 116.941406 120.074219 115.464844 118.632812 115.464844 116.824219 C 115.464844 114.984375 116.976562 113.574219 118.71875 113.574219 C 120.472656 113.574219 121.96875 114.988281 121.96875 116.824219 " fill-opacity="1" fill-rule="nonzero"/><g clip-path="url(#e3b4c83759)"><path fill="#333333" d="M 40.132812 74.46875 C 40.132812 73.691406 39.722656 72.976562 39.050781 72.589844 L 21.144531 62.300781 C 20.84375 62.121094 20.503906 62.03125 20.160156 62.015625 L 19.976562 62.015625 C 19.632812 62.03125 19.292969 62.121094 18.988281 62.300781 L 1.082031 72.589844 C 0.414062 72.980469 0 73.691406 0 74.46875 L 0.0390625 102.1875 C 0.0390625 102.570312 0.238281 102.929688 0.578125 103.121094 C 0.90625 103.320312 1.320312 103.320312 1.648438 103.121094 L 12.292969 97.03125 C 12.964844 96.632812 13.375 95.925781 13.375 95.15625 L 13.375 82.207031 C 13.375 81.433594 13.785156 80.722656 14.457031 80.335938 L 18.988281 77.730469 C 19.324219 77.535156 19.695312 77.4375 20.070312 77.4375 C 20.441406 77.4375 20.820312 77.535156 21.144531 77.730469 L 25.675781 80.335938 C 26.34375 80.71875 26.757812 81.433594 26.757812 82.207031 L 26.757812 95.152344 C 26.757812 95.921875 27.171875 96.632812 27.839844 97.027344 L 38.480469 103.113281 C 38.8125 103.3125 39.230469 103.3125 39.5625 103.113281 C 39.890625 102.921875 40.097656 102.5625 40.097656 102.179688 Z M 124.621094 88.898438 C 124.621094 89.089844 124.519531 89.269531 124.351562 89.367188 L 118.199219 92.90625 C 118.035156 93.003906 117.828125 93.003906 117.660156 92.90625 L 111.511719 89.367188 C 111.339844 89.269531 111.238281 89.089844 111.238281 88.898438 L 111.238281 81.804688 C 111.238281 81.613281 111.339844 81.433594 111.507812 81.335938 L 117.652344 77.789062 C 117.820312 77.695312 118.027344 77.695312 118.199219 77.789062 L 124.347656 81.335938 C 124.519531 81.433594 124.621094 81.613281 124.621094 81.804688 Z M 126.28125 36.371094 C 125.945312 36.183594 125.539062 36.1875 125.207031 36.378906 C 124.878906 36.574219 124.671875 36.929688 124.671875 37.3125 L 124.671875 64.761719 C 124.671875 65.03125 124.53125 65.28125 124.296875 65.414062 C 124.0625 65.550781 123.773438 65.550781 123.539062 65.414062 L 119.054688 62.835938 C 118.386719 62.449219 117.5625 62.449219 116.894531 62.835938 L 98.980469 73.160156 C 98.3125 73.542969 97.898438 74.257812 97.898438 75.027344 L 97.898438 95.683594 C 97.898438 96.457031 98.3125 97.164062 98.980469 97.554688 L 116.894531 107.886719 C 117.5625 108.269531 118.386719 108.269531 119.054688 107.886719 L 136.96875 97.550781 C 137.636719 97.160156 138.050781 96.449219 138.050781 95.679688 L 138.050781 44.199219 C 138.050781 43.414062 137.621094 42.691406 136.9375 42.308594 Z M 185.925781 81.621094 C 186.589844 81.234375 187 80.519531 187 79.753906 L 187 74.746094 C 187 73.976562 186.589844 73.265625 185.925781 72.878906 L 168.128906 62.558594 C 167.457031 62.167969 166.632812 62.167969 165.960938 62.558594 L 148.050781 72.882812 C 147.378906 73.269531 146.96875 73.980469 146.96875 74.753906 L 146.96875 95.402344 C 146.96875 96.175781 147.390625 96.894531 148.0625 97.28125 L 165.855469 107.410156 C 166.507812 107.785156 167.3125 107.789062 167.976562 107.421875 L 178.738281 101.445312 C 179.078125 101.257812 179.292969 100.898438 179.292969 100.511719 C 179.292969 100.121094 179.085938 99.757812 178.746094 99.566406 L 160.730469 89.238281 C 160.390625 89.050781 160.183594 88.691406 160.183594 88.308594 L 160.183594 81.828125 C 160.183594 81.441406 160.386719 81.085938 160.726562 80.894531 L 166.332031 77.664062 C 166.664062 77.46875 167.074219 77.46875 167.410156 77.664062 L 173.019531 80.894531 C 173.351562 81.082031 173.558594 81.441406 173.558594 81.828125 L 173.558594 86.917969 C 173.558594 87.304688 173.765625 87.664062 174.101562 87.855469 C 174.433594 88.046875 174.847656 88.046875 175.183594 87.851562 Z M 185.925781 81.621094 " fill-opacity="1" fill-rule="evenodd"/></g><path fill="#689f63" d="M 166.78125 80.652344 C 166.910156 80.578125 167.066406 80.578125 167.195312 80.652344 L 170.632812 82.632812 C 170.761719 82.707031 170.839844 82.84375 170.839844 82.992188 L 170.839844 86.957031 C 170.839844 87.105469 170.761719 87.242188 170.632812 87.316406 L 167.195312 89.296875 C 167.066406 89.371094 166.910156 89.371094 166.78125 89.296875 L 163.347656 87.316406 C 163.214844 87.242188 163.136719 87.105469 163.136719 86.957031 L 163.136719 82.992188 C 163.136719 82.84375 163.210938 82.707031 163.34375 82.632812 Z M 166.78125 80.652344 " fill-opacity="1" fill-rule="evenodd"/><g clip-path="url(#8d98e4d365)"><g clip-path="url(#1a4785e983)"><g clip-path="url(#085590129c)"><path fill="url(#0398c520f1)" d="M 106.972656 71.1875 L 56.789062 46.613281 L 31.058594 99.046875 L 81.242188 123.617188 Z M 106.972656 71.1875 " fill-rule="nonzero"/></g></g></g><g clip-path="url(#d6f27de59b)"><g clip-path="url(#2ea4b9a054)"><g clip-path="url(#5f797c49f8)"><path fill="url(#8d5e1da585)" d="M 27.796875 78.449219 L 63.234375 126.359375 L 110.101562 91.769531 L 74.664062 43.863281 Z M 27.796875 78.449219 " fill-rule="nonzero"/></g></g></g><g clip-path="url(#08518ddc46)"><g clip-path="url(#8328c6762a)"><path fill="url(#e84383e39f)" d="M 50.183594 62.378906 L 50.183594 107.738281 L 88.941406 107.738281 L 88.941406 62.378906 Z M 50.183594 62.378906 " fill-rule="nonzero"/></g></g></svg>