<svg xmlns="http://www.w3.org/2000/svg" xmlns:xlink="http://www.w3.org/1999/xlink" width="250" zoomAndPan="magnify" viewBox="0 0 187.5 187.499992" height="250" preserveAspectRatio="xMidYMid meet" version="1.0"><defs><clipPath id="bf459b3c1f"><path d="M 8.964844 31 L 154 31 L 154 185 L 8.964844 185 Z M 8.964844 31 " clip-rule="nonzero"/></clipPath><clipPath id="dd6bbbd173"><path d="M 33 31 L 178.015625 31 L 178.015625 185 L 33 185 Z M 33 31 " clip-rule="nonzero"/></clipPath><clipPath id="67c8bfa227"><path d="M 8.964844 3 L 178.015625 3 L 178.015625 116 L 8.964844 116 Z M 8.964844 3 " clip-rule="nonzero"/></clipPath></defs><g clip-path="url(#bf459b3c1f)"><path fill="#e55b2d" d="M 105.5625 31.304688 L 105.5625 59.234375 L 153.859375 87.167969 L 153.859375 59.234375 Z M 8.964844 59.234375 L 8.964844 87.167969 L 33.113281 101.128906 L 33.113281 73.203125 Z M 81.410156 73.203125 L 57.261719 87.167969 L 57.261719 170.953125 L 81.410156 184.917969 L 81.410156 129.0625 L 105.5625 143.027344 L 105.5625 115.09375 L 81.410156 101.128906 Z M 81.410156 73.203125 " fill-opacity="1" fill-rule="nonzero"/></g><g clip-path="url(#dd6bbbd173)"><path fill="#ed8e24" d="M 105.5625 31.304688 L 33.113281 73.203125 L 33.113281 101.128906 L 81.410156 73.203125 L 81.410156 101.128906 L 105.5625 87.167969 Z M 178.011719 45.269531 L 153.859375 59.234375 L 153.859375 87.167969 L 178.011719 73.203125 Z M 129.710938 101.128906 L 105.5625 115.09375 L 105.5625 143.027344 L 129.710938 129.0625 Z M 105.5625 143.027344 L 81.410156 129.0625 L 81.410156 184.917969 L 105.5625 170.953125 Z M 105.5625 143.027344 " fill-opacity="1" fill-rule="nonzero"/></g><g clip-path="url(#67c8bfa227)"><path fill="#f8bf3c" d="M 105.5625 3.378906 L 8.964844 59.234375 L 33.113281 73.203125 L 105.5625 31.304688 L 153.859375 59.234375 L 178.011719 45.269531 Z M 105.5625 87.167969 L 81.410156 101.128906 L 105.5625 115.09375 L 129.710938 101.128906 Z M 105.5625 87.167969 " fill-opacity="1" fill-rule="nonzero"/></g></svg>